<?xml version="1.0" encoding="utf-8"?>
<!-- Generator: Adobe Illustrator 19.1.0, SVG Export Plug-In . SVG Version: 6.00 Build 0)  -->
<svg version="1.1" id="Layer_1" xmlns="http://www.w3.org/2000/svg" xmlns:xlink="http://www.w3.org/1999/xlink" x="0px" y="0px"
	 viewBox="0 0 155.784 143.794" enable-background="new 0 0 155.784 143.794" xml:space="preserve">
<g>
	<g>
		<path fill="#FFFFFF" d="M77.893,125.488c-11.618,0-22.646-3.673-31.967-10.633l-18.546,5.067
			c-0.866,0.233-1.784-0.024-2.402-0.666c-0.619-0.642-0.833-1.575-0.562-2.426l6.266-19.621c-4.178-7.774-6.38-16.504-6.38-25.311
			c0-29.55,24.041-53.591,53.591-53.591s53.591,24.041,53.591,53.591S107.443,125.488,77.893,125.488z M46.444,109.749
			c0.538,0,1.066,0.176,1.499,0.519c8.664,6.77,19.017,10.348,29.95,10.348c26.862,0,48.719-21.857,48.719-48.719
			s-21.857-48.719-48.719-48.719S29.174,45.035,29.174,71.897c0,8.326,2.169,16.58,6.271,23.86c0.333,0.59,0.404,1.289,0.2,1.936
			l-5.219,16.348l15.377-4.206C46.012,109.778,46.23,109.749,46.444,109.749z"/>
	</g>
</g>
</svg>
