<?xml version="1.0" encoding="utf-8"?>
<!-- Generator: Adobe Illustrator 19.1.0, SVG Export Plug-In . SVG Version: 6.00 Build 0)  -->
<svg version="1.1" id="Layer_1" xmlns="http://www.w3.org/2000/svg" xmlns:xlink="http://www.w3.org/1999/xlink" x="0px" y="0px"
	 viewBox="0 218.185 1008 356.815" enable-background="new 0 218.185 1008 356.815" xml:space="preserve">
<rect x="-117.521" y="727.697" fill="#2A2B45" width="1355.365" height="520.104"/>
<g>
	<text transform="matrix(1 0 0 1 168.1908 501.6733)" fill="#FFFFFF" font-family="'JosefinSans-Bold'" font-size="39.7854px">DESIGNER. DEVELOPER. DOG-LOVER.</text>
</g>
<rect x="62.437" y="277.143" fill="none" stroke="#EC494C" stroke-width="5" stroke-miterlimit="10" width="895.211" height="164.419"/>
<g>
	<path fill="#FFFFFF" d="M158.696,378.416c-6.196,14.27-12.956,24.785-20.467,32.672c-7.511,8.074-15.772,13.331-24.41,16.899
		c-3.192,1.502-6.572,2.629-9.952,3.569l-2.254,6.571c-2.629,7.511-5.257,15.21-9.389,21.219
		c-4.506,6.76-10.515,11.266-19.527,11.641c-1.502,0-2.817,0-4.131-0.188c-6.009-0.563-10.515-3.004-13.52-6.196
		c-3.004-3.38-4.506-7.699-4.694-12.017c0-0.939,0-1.878,0-2.629c1.69-16.336,15.209-18.777,32.672-21.97
		c4.694-0.939,9.576-1.69,14.646-3.004c3.192-9.389,6.571-18.777,9.764-28.166c3.005-8.262,6.385-17.839,10.14-27.979
		c4.131-11.641,10.515-28.165,13.707-36.802l0.188-0.189v-0.188c0.751-2.065,3.005-3.192,5.07-2.253
		c2.066,0.75,3.192,3.004,2.441,5.069l-0.188,0.189v0.188c-3.38,8.45-9.576,24.974-13.895,36.616
		c-3.005,8.449-6.197,17.462-9.952,27.977c-2.629,7.511-5.257,15.022-7.886,22.721c1.314-0.564,2.629-0.939,3.755-1.502
		c7.699-3.192,14.834-7.886,21.594-15.022c6.947-7.135,13.332-16.899,18.965-30.231c0.751-2.065,3.192-3.004,5.07-2.065
		C158.509,374.098,159.447,376.538,158.696,378.416z M94.665,433.808c-3.567,0.751-6.947,1.315-10.327,2.066
		c-14.082,2.44-24.974,4.506-26.1,14.834c0,0.563,0,1.126,0,1.69c0.188,2.441,0.939,4.882,2.629,6.76
		c1.878,2.065,4.506,3.38,8.45,3.755c0.939,0.188,2.065,0.188,3.191,0.188c6.01-0.188,10.14-3.568,13.145-8.074
		c3.567-5.257,6.009-12.394,8.45-19.341L94.665,433.808z M136.164,313.447c0-3.567,3.004-6.385,6.571-6.385s6.385,2.817,6.385,6.385
		c0,3.568-2.817,6.384-6.385,6.384S136.164,317.014,136.164,313.447z"/>
	<path fill="#FFFFFF" d="M227.042,378.791c-7.135,15.961-15.961,25.725-25.35,31.734c-9.576,6.009-19.527,7.886-28.916,7.511H172.4
		h-0.188c-6.76-0.376-12.769-2.441-17.087-6.572c-4.506-4.319-7.135-10.515-6.947-18.965v-0.375v-0.189
		c0.188-4.881,1.315-10.327,2.816-15.772c0-0.188,0.188-0.188,0.188-0.375c1.127-3.944,2.63-8.075,4.507-12.017
		c4.319-9.765,10.14-18.966,16.149-25.35c2.816-2.816,6.009-5.07,9.2-6.572c3.192-1.69,6.572-2.629,9.952-2.629
		c4.319,0,7.699,0.939,10.14,2.817c3.004,1.878,4.694,4.694,5.445,7.886c0.751,2.816,0.375,6.196-0.564,9.389
		c-1.501,4.881-4.694,9.764-9.012,13.331c-4.882,4.131-11.079,7.511-17.275,10.14c-8.637,3.755-17.087,6.384-21.594,7.511
		c-1.127,4.319-1.879,8.261-2.066,12.017v0.375c-0.188,6.009,1.502,10.327,4.506,12.956c2.817,2.817,7.136,4.319,12.017,4.507h0.376
		c7.886,0.188,16.524-1.315,24.599-6.385c8.074-5.07,15.96-13.895,22.156-28.166c0.939-1.878,3.192-2.816,5.257-2.065
		C227.042,374.473,227.793,376.914,227.042,378.791z M161.134,371.28c4.319-1.314,9.764-3.191,15.397-5.82
		c5.445-2.441,11.079-5.446,15.397-9.014c3.192-2.629,5.445-6.009,6.572-9.576c0.563-1.878,0.75-3.756,0.375-5.257
		c-0.375-1.315-0.939-2.254-2.065-3.005c-1.315-0.939-3.192-1.501-5.821-1.501c-2.066,0-4.319,0.563-6.572,1.689
		c-2.253,1.315-4.694,3.005-6.76,5.259c-5.445,5.633-10.89,14.082-14.834,22.907C162.26,368.464,161.697,369.779,161.134,371.28z"/>
	<path fill="#FFFFFF" d="M302.711,378.791l-0.188,0.564c-7.135,15.772-17.275,38.869-34.175,38.869h-0.188
		c-5.07,0-8.45-2.254-10.702-5.445c-1.878-3.005-2.629-6.572-2.629-10.327v-0.189c-6.385,9.201-14.271,15.774-23.847,15.586
		c-5.446-0.189-9.201-2.441-11.642-6.385c-2.629-3.755-3.567-9.012-3.38-15.021c0.189-10.516,5.821-31.359,15.022-46.943
		c6.947-11.454,15.772-20.28,26.476-20.467c0.563,0,1.126,0,1.69,0c5.07,0.376,9.576,2.816,12.956,6.572
		c0.939,1.126,1.69,2.253,2.441,3.755c1.126-3.192,2.253-6.009,3.191-8.45c0.751-1.878,3.005-3.004,5.07-2.253
		c2.066,0.751,3.005,3.191,2.254,5.07c-2.066,5.445-5.634,15.021-9.389,25.161c-2.441,6.947-5.07,13.707-6.76,18.965
		c-1.878,5.257-3.38,10.14-4.319,14.271c-1.126,4.13-1.878,7.51-1.878,9.951v0.376c0,2.253,0.375,4.506,1.314,6.009
		c0.751,1.126,2.066,1.878,4.319,1.878c11.642,0,20.655-20.28,26.852-34.175l0.188-0.564c0.939-2.065,3.192-3.004,5.257-2.065
		S303.651,376.726,302.711,378.791z M264.968,363.019c1.69-3.944,3.005-7.699,4.319-10.704c0.189-0.563,0.189-0.939,0.189-1.314
		c-0.189-4.319-1.315-7.887-3.38-10.14c-2.066-2.254-4.695-3.567-7.511-3.755c-0.375-0.189-0.751-0.189-1.126-0.189
		c-7.324,0.189-14.084,7.324-19.716,16.712c-8.45,14.27-13.707,33.424-13.895,43c0,4.506,0.563,8.074,2.065,10.515
		c1.126,1.69,2.816,2.629,5.257,2.816C246.38,410.337,257.458,382.171,264.968,363.019z"/>
	<path fill="#FFFFFF" d="M377.63,378.791l-0.376,0.564c-6.947,15.772-17.087,38.869-33.987,38.869h-0.188
		c-5.07,0-8.45-2.254-10.702-5.445c-1.878-3.005-2.629-6.572-2.629-10.327v-0.564c0-3.944,0.939-8.262,2.253-12.769
		c1.127-4.506,2.817-9.012,4.507-13.707c0.375-1.126,0.751-2.253,1.314-3.568c2.629-6.947,6.572-17.275,6.572-25.161
		c0-5.446-2.441-9.765-9.765-9.765c-4.694,0-9.764,4.319-14.646,10.327c-7.135,8.826-13.331,21.031-17.087,30.982
		c-6.196,17.651-11.641,33.048-13.144,37.18c-0.751,2.253-3.004,3.191-5.07,2.629c-2.065-0.751-3.191-3.005-2.441-5.07
		c1.502-4.131,6.76-19.341,13.145-36.991c0,0,0-0.188,0-0.376c0-0.188,0.188-0.188,0.188-0.375c0-0.188,0.188-0.376,0.188-0.564
		c4.695-12.956,10.14-28.166,15.397-42.812c0.751-2.065,3.005-3.191,5.07-2.44c2.065,0.75,3.192,3.004,2.441,5.069
		c-0.564,1.315-0.939,2.441-1.502,3.756c5.445-5.634,11.266-9.201,17.462-9.201c13.52,0,17.651,7.699,17.651,17.651
		c0,9.2-4.319,20.466-7.135,27.977c-0.564,1.315-0.939,2.629-1.315,3.568c-1.502,4.319-3.192,8.826-4.319,12.956
		c-1.126,3.944-1.878,7.699-1.878,10.891v0.376c0,2.253,0.375,4.506,1.314,6.009c0.751,1.126,2.066,1.878,4.131,1.878h0.188
		c11.642,0,20.656-20.28,26.852-34.175l0.188-0.564c0.939-2.065,3.192-3.004,5.257-2.065
		C377.63,374.473,378.569,376.726,377.63,378.791z"/>
	<path fill="#FFFFFF" d="M452.545,378.791l-0.376,0.564c-6.947,15.772-17.087,38.869-33.986,38.869h-0.189
		c-5.07,0-8.45-2.254-10.702-5.445c-1.878-3.005-2.629-6.572-2.629-10.327v-0.564c0-3.944,0.939-8.262,2.253-12.769
		c1.127-4.506,2.817-9.012,4.507-13.707c0.375-1.126,0.75-2.253,1.314-3.568c2.629-6.947,6.572-17.275,6.572-25.161
		c0-5.446-2.441-9.765-9.765-9.765c-4.694,0-9.764,4.319-14.646,10.327c-7.135,8.826-13.331,21.031-17.087,30.982
		c-6.196,17.651-11.641,33.048-13.144,37.18c-0.751,2.253-3.004,3.191-5.07,2.629c-2.065-0.751-3.191-3.005-2.441-5.07
		c1.502-4.131,6.76-19.341,13.145-36.991c0,0,0-0.188,0-0.376c0-0.188,0.188-0.188,0.188-0.375c0-0.188,0.188-0.376,0.188-0.564
		c4.695-12.956,10.14-28.166,15.397-42.812c0.751-2.065,3.005-3.191,5.07-2.44c2.065,0.75,3.192,3.004,2.441,5.069
		c-0.564,1.315-0.939,2.441-1.503,3.756c5.445-5.634,11.266-9.201,17.462-9.201c13.52,0,17.651,7.699,17.651,17.651
		c0,9.2-4.319,20.466-7.135,27.977c-0.564,1.315-0.939,2.629-1.315,3.568c-1.502,4.319-3.192,8.826-4.319,12.956
		c-1.126,3.944-1.878,7.699-1.878,10.891v0.376c0,2.253,0.375,4.506,1.314,6.009c0.751,1.126,2.066,1.878,4.131,1.878h0.189
		c11.641,0,20.655-20.28,26.851-34.175l0.188-0.564c0.939-2.065,3.192-3.004,5.257-2.065
		C452.545,374.473,453.484,376.726,452.545,378.791z"/>
	<path fill="#FFFFFF" d="M487.089,378.791c-3.379,7.511-7.51,16.9-12.767,24.599c-5.821,8.45-12.956,14.834-21.782,14.834h-0.188
		c-5.07,0-8.45-2.254-10.702-5.445c-1.879-3.005-2.63-6.572-2.63-10.327v-0.564c0-3.005,0.751-6.947,2.066-11.642
		c1.126-4.506,2.629-9.576,4.506-14.834c0.564-1.878,2.066-6.009,4.131-11.641c2.065-5.821,4.319-12.394,6.76-18.59
		c0.188-0.939,0.751-2.441,1.502-4.695l3.191-8.637c0.564-2.065,2.817-3.191,4.882-2.44c2.065,0.563,3.192,2.816,2.441,4.881
		l-3.005,8.825l-1.69,4.695c-2.816,7.699-5.07,14.082-6.759,18.777c-1.69,4.694-3.005,8.637-3.944,11.266
		c-1.878,5.257-3.38,10.14-4.506,14.271c-0.939,4.13-1.69,7.51-1.69,9.951v0.376c0,2.253,0.375,4.506,1.314,6.009
		c0.751,1.126,2.066,1.878,4.131,1.878h0.188c5.634,0,10.704-4.882,15.21-11.266c4.882-7.136,8.825-16.336,12.017-23.472
		c0.939-2.065,3.38-3.004,5.257-2.065C487.089,374.285,488.029,376.726,487.089,378.791z M466.059,313.447
		c0-3.567,3.005-6.385,6.572-6.385c3.567,0,6.384,2.817,6.384,6.385c0,3.568-2.816,6.384-6.384,6.384
		C469.064,319.83,466.059,317.014,466.059,313.447z"/>
	<path fill="#FFFFFF" d="M555.436,378.791c-7.135,15.961-15.961,25.725-25.35,31.734c-9.576,6.009-19.527,7.886-28.916,7.511h-0.376
		h-0.188c-6.76-0.376-12.769-2.441-17.087-6.572c-4.506-4.319-7.135-10.515-6.947-18.965v-0.375v-0.189
		c0.188-4.881,1.315-10.327,2.816-15.772c0-0.188,0.189-0.188,0.189-0.375c1.126-3.944,2.629-8.075,4.506-12.017
		c4.319-9.765,10.14-18.966,16.149-25.35c2.816-2.816,6.009-5.07,9.2-6.572c3.192-1.69,6.572-2.629,9.952-2.629
		c4.319,0,7.699,0.939,10.14,2.817c3.004,1.878,4.694,4.694,5.445,7.886c0.751,2.816,0.375,6.196-0.564,9.389
		c-1.501,4.881-4.694,9.764-9.013,13.331c-4.882,4.131-11.079,7.511-17.275,10.14c-8.637,3.755-17.087,6.384-21.594,7.511
		c-1.127,4.319-1.879,8.261-2.066,12.017v0.375c-0.188,6.009,1.502,10.327,4.506,12.956c2.817,2.817,7.136,4.319,12.017,4.507h0.376
		c7.886,0.188,16.524-1.315,24.599-6.385c8.074-5.07,15.96-13.895,22.156-28.166c0.939-1.878,3.192-2.816,5.258-2.065
		C555.436,374.473,556.188,376.914,555.436,378.791z M489.528,371.28c4.319-1.314,9.764-3.191,15.397-5.82
		c5.445-2.441,11.079-5.446,15.397-9.014c3.192-2.629,5.445-6.009,6.572-9.576c0.563-1.878,0.751-3.756,0.375-5.257
		c-0.375-1.315-0.939-2.254-2.065-3.005c-1.315-0.939-3.192-1.501-5.821-1.501c-2.066,0-4.319,0.563-6.572,1.689
		c-2.253,1.315-4.694,3.005-6.76,5.259c-5.445,5.633-10.89,14.082-14.834,22.907C490.654,368.464,490.092,369.779,489.528,371.28z"
		/>
	<path fill="#FFD242" d="M661.335,378.791l-0.377,0.564c-6.946,15.772-17.086,38.869-33.986,38.869h-0.189
		c-5.069,0-8.449-2.254-10.701-5.445c-1.878-3.005-2.63-6.572-2.63-10.327v-0.564c0-3.944,0.939-8.262,2.253-12.769
		c1.127-4.506,2.819-9.012,4.507-13.707c0.375-1.126,0.75-2.253,1.314-3.568c2.63-6.947,6.574-17.275,6.574-25.161
		c0-5.446-2.441-9.765-9.765-9.765c-4.694,0-9.765,4.319-14.647,10.327c-7.134,8.826-13.33,21.031-17.086,30.982
		c-6.196,17.651-11.641,33.048-13.144,37.18c-0.751,2.253-3.004,3.191-5.07,2.629c-2.065-0.751-3.191-3.005-2.441-5.07
		c1.502-4.131,6.76-19.341,13.145-36.991c0,0,0-0.188,0-0.376c0-0.188,0.188-0.188,0.188-0.375c0-0.188,0.188-0.376,0.188-0.564
		c4.695-12.956,10.14-28.166,15.397-42.812c0.751-2.065,3.005-3.191,5.07-2.44c2.065,0.75,3.192,3.004,2.441,5.069
		c-0.564,1.315-0.939,2.441-1.502,3.756c5.445-5.634,11.266-9.201,17.462-9.201c13.52,0,17.65,7.699,17.65,17.651
		c0,9.2-4.319,20.466-7.135,27.977c-0.564,1.315-0.939,2.629-1.314,3.568c-1.503,4.319-3.194,8.826-4.319,12.956
		c-1.127,3.944-1.878,7.699-1.878,10.891v0.376c0,2.253,0.375,4.506,1.314,6.009c0.75,1.126,2.066,1.878,4.13,1.878h0.189
		c11.642,0,20.655-20.28,26.851-34.175l0.189-0.564c0.939-2.065,3.191-3.004,5.257-2.065
		C661.335,374.473,662.273,376.726,661.335,378.791z"/>
	<path fill="#FFD242" d="M734.746,378.604c-0.564,1.314-0.939,2.441-1.502,3.755c-0.564,0.939-1.127,2.066-1.689,3.192
		c-2.63,4.882-5.446,9.764-9.39,13.707c-4.319,4.131-9.576,6.947-16.523,6.947c-1.878,0-3.569-0.188-5.257-0.564
		c-3.005-0.939-5.821-2.441-8.262-4.506c-6.949,9.389-16.525,17.087-25.537,17.087c-30.795,0-10.515-52.201-0.375-69.1
		c6.946-11.455,15.961-20.092,26.287-20.092h0.189c5.444,0.188,10.515,2.065,14.081,6.196c3.005,3.567,4.882,8.45,4.694,15.21
		c-0.186,11.83-6.196,29.669-14.645,43.938c1.314,1.69,3.38,3.005,5.633,3.568c0.939,0.189,2.066,0.376,3.194,0.376
		c4.505,0,8.074-1.878,10.89-4.695c3.191-3.191,5.821-7.51,7.885-11.641c0.564-0.939,0.939-1.878,1.503-3.005
		c0.564-0.939,0.939-2.065,1.502-3.38c0.752-2.065,3.191-3.004,5.258-2.065C734.557,374.285,735.685,376.726,734.746,378.604z
		 M695.127,378.228c-0.564,1.502-0.752,3.005-0.939,4.319c5.633-11.266,9.199-23.659,9.388-32.296
		c0.189-4.506-0.939-7.699-2.816-9.765c-1.878-2.253-4.882-3.379-8.262-3.568c-7.135,0-13.895,6.947-19.341,16.336
		c-7.324,11.83-25.349,57.083-6.571,57.083c6.946,0,14.834-7.511,21.03-16.336c-1.125-2.629-1.503-5.446-1.503-8.825
		c0-2.817,0.377-5.821,1.316-9.014c0.561-2.254,2.628-3.38,4.88-2.816C694.375,373.909,695.689,375.975,695.127,378.228z"/>
	<path fill="#FFD242" d="M803.841,378.791l-0.186,0.564c-6.949,15.772-17.275,38.869-34.175,38.869h-0.189
		c-5.069,0-8.449-2.254-10.701-5.445c-1.88-3.005-2.63-6.572-2.63-10.327v-0.564c0-3.005,0.75-6.947,2.066-11.642
		c1.125-4.506,2.628-9.576,4.505-14.834c1.691-5.07,2.63-8.074,3.38-10.515c1.128-3.38,1.878-5.821,3.38-9.765l-3.005-0.939
		c-5.444-1.878-11.64-3.755-17.461-6.571c-0.564,1.69-1.314,3.38-1.878,4.694v0.188l-15.211,32.861
		c-0.939,2.065-3.191,2.816-5.258,1.878c-1.878-0.939-2.816-3.192-1.878-5.257l15.022-32.672c0.75-1.878,1.502-3.756,2.253-5.634
		c-6.196-4.319-10.326-9.764-9.576-17.65c0.375-2.817,1.691-5.259,3.569-7.136c0-0.188,0.186-0.188,0.186-0.188
		c2.066-1.878,4.696-3.004,7.699-3.004c1.127,0,2.255,0.188,3.194,0.375l0.186,0.188c2.816,0.751,4.696,2.629,6.01,4.882
		c1.127,2.065,1.503,4.319,1.503,6.947c0,1.878-0.375,3.755-0.939,5.634c-0.564,1.878-1.316,4.13-2.066,6.384
		c5.258,2.629,11.642,4.694,17.086,6.572c2.63,0.751,5.071,1.501,7.137,2.253c2.064,0.751,3.003,3.192,2.253,5.257v0.189
		c-2.253,5.82-3.191,8.637-4.507,12.956c-0.939,2.816-2.064,6.009-3.566,10.515c-1.691,5.257-3.38,10.14-4.319,14.271
		c-1.127,4.13-1.691,7.51-1.878,9.951v0.376c0,2.253,0.375,4.506,1.5,6.009c0.752,1.126,1.88,1.878,4.132,1.878
		c11.829,0,20.655-20.28,26.851-34.175l0.189-0.564c0.939-2.065,3.191-3.004,5.257-2.065
		C803.841,374.473,804.78,376.726,803.841,378.791z M746.759,327.905c0-1.127-0.186-2.254-0.564-3.005
		c-0.375-0.563-0.75-0.939-1.314-1.126h-0.189c-0.375,0-0.561-0.188-0.939-0.188c-0.939,0-1.689,0.375-2.253,0.939h-0.189
		c-0.561,0.564-0.939,1.502-1.125,2.441c-0.375,3.38,1.502,6.384,4.505,8.825c0.564-1.502,0.939-3.005,1.502-4.506
		C746.572,330.158,746.759,329.032,746.759,327.905z"/>
	<path fill="#FFD242" d="M842.896,378.791c-3.944,8.45-7.699,15.585-11.454,21.219c-3.944,6.009-7.887,10.327-12.206,13.52
		c-2.253,1.501-4.694,2.629-7.135,3.379c-2.63,0.94-5.446,1.315-7.887,1.315h-0.186c-3.755,0-7.324-1.315-9.765-4.131
		c-2.441-2.629-3.944-6.571-3.944-11.641v-0.189v-0.375c0-3.005,0.752-6.947,2.066-11.642c1.127-4.506,2.628-9.576,4.507-14.834
		c0.561-1.878,2.064-6.009,4.13-11.641c2.066-5.821,4.319-12.206,6.76-18.59c0.189-0.939,1.314-3.944,2.816-8.262H798.77
		c-2.255,0-3.944-1.69-3.944-3.943c0-2.066,1.689-3.944,3.944-3.944h14.459c0.561-1.314,0.939-2.816,1.5-4.131
		c3.569-10.327,7.324-21.406,8.262-23.846c0.752-2.066,3.005-3.192,5.071-2.441c2.064,0.751,3.191,3.004,2.441,5.07
		c-0.939,2.253-4.696,13.331-8.262,23.846c-0.189,0.564-0.375,0.939-0.564,1.502h12.581c2.253,0,3.944,1.878,3.944,3.944
		c0,2.253-1.691,3.943-3.944,3.943h-15.397c-1.691,5.257-3.191,9.201-3.755,10.891c-2.63,7.511-5.071,14.082-6.76,18.777
		c-1.691,4.694-3.005,8.637-3.944,11.266c-1.878,5.257-3.38,10.14-4.507,14.271c-0.939,4.13-1.689,7.51-1.689,9.951v0.376
		c0,3.004,0.75,5.07,1.878,6.196c0.939,1.126,2.441,1.69,3.944,1.69h0.186c1.691,0,3.569-0.376,5.446-0.939
		c1.691-0.564,3.38-1.315,5.069-2.441c3.569-2.441,6.76-6.196,10.14-11.266c3.569-5.257,6.949-12.017,10.704-20.28
		c0.939-1.878,3.38-2.816,5.446-1.878C842.896,374.473,843.835,376.726,842.896,378.791z"/>
	<path fill="#FFD242" d="M917.812,378.791l-0.375,0.564c-6.946,15.772-17.086,38.869-33.986,38.869h-0.189
		c-5.257,0-8.637-2.254-10.704-5.445c-1.878-3.005-2.628-6.572-2.628-10.327v-0.564c0-3.944,0.939-8.262,2.066-12.769
		c1.314-4.506,2.816-9.012,4.505-13.707c0.564-1.126,0.939-2.253,1.314-3.568c2.819-6.947,6.76-17.275,6.76-25.161
		c0-5.446-2.441-9.765-9.763-9.765c-4.696,0-9.954,4.319-14.834,10.327c-6.949,8.826-13.145,21.219-16.9,31.171
		c-0.189,0.188-0.189,0.188-0.189,0.188c-5.258,14.646-10.89,30.419-13.145,36.804c-0.75,2.253-3.003,3.191-5.069,2.629
		c-2.066-0.751-3.191-3.005-2.441-5.07c2.066-5.821,7.699-21.782,13.145-36.991l0.186-0.188v-0.189c0,0,0-0.188,0.189-0.188
		c5.633-15.772,11.267-31.546,13.52-36.991v-0.188c1.878-5.446,2.628-7.699,3.566-9.952c1.502-4.506,3.005-8.637,3.757-11.079
		l1.125-3.191c1.127-3.005,2.63-7.511,4.696-13.52c0.75-1.878,3.003-3.005,5.069-2.254c2.066,0.751,3.191,3.005,2.441,5.07
		c-1.691,4.695-3.569,9.765-4.694,13.332c-0.377,0.939-0.564,1.878-1.127,3.191c-1.689,5.07-2.816,8.262-3.944,11.079l-2.441,6.947
		c5.446-5.445,11.079-8.825,17.089-8.825c13.331,0,17.65,7.699,17.65,17.651c0,9.2-4.319,20.466-7.135,27.977
		c-0.564,1.315-0.939,2.629-1.314,3.568c-1.691,4.319-3.194,8.826-4.319,12.956c-1.127,3.944-1.88,7.699-1.88,10.891v0.376
		c0,2.253,0.377,4.506,1.316,6.009c0.75,1.126,2.064,1.878,4.13,1.878h0.189c11.642,0,20.655-20.28,26.851-34.175l0.189-0.564
		c0.939-2.065,3.191-3.004,5.258-2.065C917.812,374.473,918.564,376.726,917.812,378.791z"/>
</g>
</svg>
