<?xml version="1.0" encoding="utf-8"?>
<!-- Generator: Adobe Illustrator 19.1.0, SVG Export Plug-In . SVG Version: 6.00 Build 0)  -->

   <?xml-stylesheet type="text/css" href="/css/animate.css" ?>
<svg version="1.1" xmlns="http://www.w3.org/2000/svg" xmlns:xlink="http://www.w3.org/1999/xlink" x="0px" y="0px"
	 viewBox="24 102.2 1008 356.8" enable-background="new 24 102.2 1008 356.8" xml:space="preserve">
   

   

<g id="Layer_1">
	<g>
		<path fill="#FFFFFF" d="M179.985,269.635c-6.9,15.8-14.3,27.4-22.6,36.1c-8.3,8.9-17.4,14.7-27,18.7c-3.5,1.7-7.3,2.9-11,3.9
			l-2.5,7.3c-2.9,8.3-5.8,16.8-10.4,23.5c-5,7.5-11.6,12.5-21.6,12.9c-1.7,0-3.1,0-4.6-0.2c-6.6-0.6-11.6-3.3-15-6.9
			c-3.3-3.7-5-8.5-5.2-13.3c0-1,0-2.1,0-2.9c1.9-18,16.9-20.7,36.2-24.3c5.2-1,10.6-1.9,16.2-3.3c3.5-10.4,7.3-20.8,10.8-31.2
			c3.3-9.1,7.1-19.7,11.2-31c4.6-12.9,11.6-31.2,15.2-40.7l0.2-0.2v-0.2c0.8-2.3,3.3-3.5,5.6-2.5c2.3,0.8,3.5,3.3,2.7,5.6l-0.2,0.2
			v0.2c-3.7,9.3-10.6,27.6-15.4,40.5c-3.3,9.3-6.9,19.3-11,30.9c-2.9,8.3-5.8,16.6-8.7,25.1c1.5-0.6,2.9-1,4.2-1.7
			c8.5-3.5,16.4-8.7,23.9-16.6c7.7-7.9,14.7-18.7,21-33.4c0.8-2.3,3.5-3.3,5.6-2.3C179.785,264.835,180.885,267.535,179.985,269.635
			z M109.185,330.935c-3.9,0.8-7.7,1.5-11.4,2.3c-15.6,2.7-27.6,5-28.9,16.4c0,0.6,0,1.2,0,1.9c0.2,2.7,1,5.4,2.9,7.5
			c2.1,2.3,5,3.7,9.3,4.2c1,0.2,2.3,0.2,3.5,0.2c6.6-0.2,11.2-3.9,14.5-8.9c3.9-5.8,6.6-13.7,9.3-21.4L109.185,330.935z
			 M155.085,197.735c0-3.9,3.3-7.1,7.3-7.1c3.9,0,7.1,3.1,7.1,7.1c0,3.9-3.1,7.1-7.1,7.1
			C158.385,204.835,155.085,201.735,155.085,197.735z"/>
		<path fill="#FFFFFF" d="M255.585,270.035c-7.9,17.7-17.7,28.5-28,35.1c-10.6,6.6-21.6,8.7-32,8.3h-0.4h-0.2
			c-7.5-0.4-14.1-2.7-18.9-7.3c-5-4.8-7.9-11.6-7.7-21v-0.4v-0.2c0.2-5.4,1.5-11.4,3.1-17.4c0-0.2,0.2-0.2,0.2-0.4
			c1.2-4.4,2.9-8.9,5-13.3c4.8-10.8,11.2-21,17.9-28c3.1-3.1,6.6-5.6,10.2-7.3c3.5-1.9,7.3-2.9,11-2.9c4.8,0,8.5,1,11.2,3.1
			c3.3,2.1,5.2,5.2,6,8.7c0.8,3.1,0.4,6.9-0.6,10.4c-1.7,5.4-5.2,10.8-10,14.7c-5.4,4.6-12.3,8.3-19.1,11.2
			c-9.6,4.2-18.9,7.1-23.9,8.3c-1.2,4.8-2.1,9.1-2.3,13.3v0.4c-0.2,6.6,1.7,11.4,5,14.3c3.1,3.1,7.9,4.8,13.3,5h0.4
			c8.7,0.2,18.3-1.5,27.2-7.1s17.7-15.4,24.5-31.2c1-2.1,3.5-3.1,5.8-2.3C255.585,265.235,256.485,267.935,255.585,270.035z
			 M182.685,261.735c4.8-1.5,10.8-3.5,17-6.4c6-2.7,12.3-6,17-10c3.5-2.9,6-6.6,7.3-10.6c0.6-2.1,0.8-4.2,0.4-5.8
			c-0.4-1.5-1-2.5-2.3-3.3c-1.5-1-3.5-1.7-6.4-1.7c-2.3,0-4.8,0.6-7.3,1.9c-2.5,1.5-5.2,3.3-7.5,5.8c-6,6.2-12,15.6-16.4,25.3
			C183.985,258.635,183.285,260.035,182.685,261.735z"/>
		<path fill="#FFFFFF" d="M339.285,270.035l-0.2,0.6c-7.9,17.4-19.1,43-37.8,43h-0.2c-5.6,0-9.3-2.5-11.8-6
			c-2.1-3.3-2.9-7.3-2.9-11.4v-0.2c-7.1,10.2-15.8,17.4-26.4,17.2c-6-0.2-10.2-2.7-12.9-7.1c-2.9-4.2-3.9-10-3.7-16.6
			c0.2-11.6,6.4-34.7,16.6-51.9c7.7-12.7,17.4-22.4,29.3-22.6c0.6,0,1.2,0,1.9,0c5.6,0.4,10.6,3.1,14.3,7.3c1,1.2,1.9,2.5,2.7,4.2
			c1.2-3.5,2.5-6.6,3.5-9.3c0.8-2.1,3.3-3.3,5.6-2.5c2.3,0.8,3.3,3.5,2.5,5.6c-2.3,6-6.2,16.6-10.4,27.8c-2.7,7.7-5.6,15.2-7.5,21
			c-2.1,5.8-3.7,11.2-4.8,15.8c-1.2,4.6-2.1,8.3-2.1,11v0.4c0,2.5,0.4,5,1.5,6.6c0.8,1.2,2.3,2.1,4.8,2.1
			c12.9,0,22.8-22.4,29.7-37.8l0.2-0.6c1-2.3,3.5-3.3,5.8-2.3S340.385,267.735,339.285,270.035z M297.585,252.635
			c1.9-4.4,3.3-8.5,4.8-11.8c0.2-0.6,0.2-1,0.2-1.5c-0.2-4.8-1.5-8.7-3.7-11.2c-2.3-2.5-5.2-3.9-8.3-4.2c-0.4-0.2-0.8-0.2-1.2-0.2
			c-8.1,0.2-15.6,8.1-21.8,18.5c-9.3,15.8-15.2,37-15.4,47.6c0,5,0.6,8.9,2.3,11.6c1.2,1.9,3.1,2.9,5.8,3.1
			C276.985,304.935,289.285,273.835,297.585,252.635z"/>
		<path fill="#FFFFFF" d="M422.185,270.035l-0.4,0.6c-7.7,17.4-18.9,43-37.6,43h-0.2c-5.6,0-9.3-2.5-11.8-6
			c-2.1-3.3-2.9-7.3-2.9-11.4v-0.6c0-4.4,1-9.1,2.5-14.1c1.2-5,3.1-10,5-15.2c0.4-1.2,0.8-2.5,1.5-3.9c2.9-7.7,7.3-19.1,7.3-27.8
			c0-6-2.7-10.8-10.8-10.8c-5.2,0-10.8,4.8-16.2,11.4c-7.9,9.8-14.7,23.3-18.9,34.3c-6.9,19.5-12.9,36.6-14.5,41.1
			c-0.8,2.5-3.3,3.5-5.6,2.9c-2.3-0.8-3.5-3.3-2.7-5.6c1.7-4.6,7.5-21.4,14.5-40.9c0,0,0-0.2,0-0.4c0-0.2,0.2-0.2,0.2-0.4
			s0.2-0.4,0.2-0.6c5.2-14.3,11.2-31.2,17-47.4c0.8-2.3,3.3-3.5,5.6-2.7c2.3,0.8,3.5,3.3,2.7,5.6c-0.6,1.5-1,2.7-1.7,4.2
			c6-6.2,12.5-10.2,19.3-10.2c15,0,19.5,8.5,19.5,19.5c0,10.2-4.8,22.6-7.9,31c-0.6,1.5-1,2.9-1.5,3.9c-1.7,4.8-3.5,9.8-4.8,14.3
			c-1.2,4.4-2.1,8.5-2.1,12v0.4c0,2.5,0.4,5,1.5,6.6c0.8,1.2,2.3,2.1,4.6,2.1h0.2c12.9,0,22.8-22.4,29.7-37.8l0.2-0.6
			c1-2.3,3.5-3.3,5.8-2.3C422.185,265.235,423.285,267.735,422.185,270.035z"/>
		<path fill="#FFFFFF" d="M505.085,270.035l-0.4,0.6c-7.7,17.4-18.9,43-37.6,43h-0.2c-5.6,0-9.3-2.5-11.8-6
			c-2.1-3.3-2.9-7.3-2.9-11.4v-0.6c0-4.4,1-9.1,2.5-14.1c1.2-5,3.1-10,5-15.2c0.4-1.2,0.8-2.5,1.5-3.9c2.9-7.7,7.3-19.1,7.3-27.8
			c0-6-2.7-10.8-10.8-10.8c-5.2,0-10.8,4.8-16.2,11.4c-7.9,9.8-14.7,23.3-18.9,34.3c-6.9,19.5-12.9,36.6-14.5,41.1
			c-0.8,2.5-3.3,3.5-5.6,2.9c-2.3-0.8-3.5-3.3-2.7-5.6c1.7-4.6,7.5-21.4,14.5-40.9c0,0,0-0.2,0-0.4c0-0.2,0.2-0.2,0.2-0.4
			s0.2-0.4,0.2-0.6c5.2-14.3,11.2-31.2,17-47.4c0.8-2.3,3.3-3.5,5.6-2.7c2.3,0.8,3.5,3.3,2.7,5.6c-0.6,1.5-1,2.7-1.7,4.2
			c6-6.2,12.5-10.2,19.3-10.2c15,0,19.5,8.5,19.5,19.5c0,10.2-4.8,22.6-7.9,31c-0.6,1.5-1,2.9-1.5,3.9c-1.7,4.8-3.5,9.8-4.8,14.3
			c-1.2,4.4-2.1,8.5-2.1,12v0.4c0,2.5,0.4,5,1.5,6.6c0.8,1.2,2.3,2.1,4.6,2.1h0.2c12.9,0,22.8-22.4,29.7-37.8l0.2-0.6
			c1-2.3,3.5-3.3,5.8-2.3C505.085,265.235,506.085,267.735,505.085,270.035z"/>
		<path fill="#FFFFFF" d="M543.285,270.035c-3.7,8.3-8.3,18.7-14.1,27.2c-6.4,9.3-14.3,16.4-24.1,16.4h-0.2c-5.6,0-9.3-2.5-11.8-6
			c-2.1-3.3-2.9-7.3-2.9-11.4v-0.6c0-3.3,0.8-7.7,2.3-12.9c1.2-5,2.9-10.6,5-16.4c0.6-2.1,2.3-6.6,4.6-12.9
			c2.3-6.4,4.8-13.7,7.5-20.6c0.2-1,0.8-2.7,1.7-5.2l3.5-9.6c0.6-2.3,3.1-3.5,5.4-2.7c2.3,0.6,3.5,3.1,2.7,5.4l-3.3,9.8l-1.9,5.2
			c-3.1,8.5-5.6,15.6-7.5,20.8c-1.9,5.2-3.3,9.6-4.4,12.5c-2.1,5.8-3.7,11.2-5,15.8c-1,4.6-1.9,8.3-1.9,11v0.4c0,2.5,0.4,5,1.5,6.6
			c0.8,1.2,2.3,2.1,4.6,2.1h0.2c6.2,0,11.8-5.4,16.8-12.5c5.4-7.9,9.8-18.1,13.3-26c1-2.3,3.7-3.3,5.8-2.3
			C543.285,265.035,544.385,267.735,543.285,270.035z M519.985,197.735c0-3.9,3.3-7.1,7.3-7.1c3.9,0,7.1,3.1,7.1,7.1
			c0,3.9-3.1,7.1-7.1,7.1C523.385,204.835,519.985,201.735,519.985,197.735z"/>
		<path fill="#FFFFFF" d="M618.885,270.035c-7.9,17.7-17.7,28.5-28,35.1c-10.6,6.6-21.6,8.7-32,8.3h-0.4h-0.2
			c-7.5-0.4-14.1-2.7-18.9-7.3c-5-4.8-7.9-11.6-7.7-21v-0.4v-0.2c0.2-5.4,1.5-11.4,3.1-17.4c0-0.2,0.2-0.2,0.2-0.4
			c1.2-4.4,2.9-8.9,5-13.3c4.8-10.8,11.2-21,17.9-28c3.1-3.1,6.6-5.6,10.2-7.3c3.5-1.9,7.3-2.9,11-2.9c4.8,0,8.5,1,11.2,3.1
			c3.3,2.1,5.2,5.2,6,8.7c0.8,3.1,0.4,6.9-0.6,10.4c-1.7,5.4-5.2,10.8-10,14.7c-5.4,4.6-12.3,8.3-19.1,11.2
			c-9.6,4.2-18.9,7.1-23.9,8.3c-1.2,4.8-2.1,9.1-2.3,13.3v0.4c-0.2,6.6,1.7,11.4,5,14.3c3.1,3.1,7.9,4.8,13.3,5h0.4
			c8.7,0.2,18.3-1.5,27.2-7.1s17.7-15.4,24.5-31.2c1-2.1,3.5-3.1,5.8-2.3C618.885,265.235,619.785,267.935,618.885,270.035z
			 M545.985,261.735c4.8-1.5,10.8-3.5,17-6.4c6-2.7,12.3-6,17-10c3.5-2.9,6-6.6,7.3-10.6c0.6-2.1,0.8-4.2,0.4-5.8
			c-0.4-1.5-1-2.5-2.3-3.3c-1.5-1-3.5-1.7-6.4-1.7c-2.3,0-4.8,0.6-7.3,1.9c-2.5,1.5-5.2,3.3-7.5,5.8c-6,6.2-12,15.6-16.4,25.3
			C547.285,258.635,546.585,260.035,545.985,261.735z"/>
		<path fill="#FFD242" d="M701.785,270.035l-0.4,0.6c-7.7,17.4-18.9,43-37.6,43h-0.2c-5.6,0-9.3-2.5-11.8-6
			c-2.1-3.3-2.9-7.3-2.9-11.4v-0.6c0-4.4,1-9.1,2.5-14.1c1.2-5,3.1-10,5-15.2c0.4-1.2,0.8-2.5,1.5-3.9c2.9-7.7,7.3-19.1,7.3-27.8
			c0-6-2.7-10.8-10.8-10.8c-5.2,0-10.8,4.8-16.2,11.4c-7.9,9.8-14.7,23.3-18.9,34.3c-6.9,19.5-12.9,36.6-14.5,41.1
			c-0.8,2.5-3.3,3.5-5.6,2.9c-2.3-0.8-3.5-3.3-2.7-5.6c1.7-4.6,7.5-21.4,14.5-40.9c0,0,0-0.2,0-0.4c0-0.2,0.2-0.2,0.2-0.4
			s0.2-0.4,0.2-0.6c5.2-14.3,11.2-31.2,17-47.4c0.8-2.3,3.3-3.5,5.6-2.7s3.5,3.3,2.7,5.6c-0.6,1.5-1,2.7-1.7,4.2
			c6-6.2,12.5-10.2,19.3-10.2c15,0,19.5,8.5,19.5,19.5c0,10.2-4.8,22.6-7.9,31c-0.6,1.5-1,2.9-1.5,3.9c-1.7,4.8-3.5,9.8-4.8,14.3
			c-1.2,4.4-2.1,8.5-2.1,12v0.4c0,2.5,0.4,5,1.5,6.6c0.8,1.2,2.3,2.1,4.6,2.1h0.2c12.9,0,22.8-22.4,29.7-37.8l0.2-0.6
			c1-2.3,3.5-3.3,5.8-2.3S702.785,267.735,701.785,270.035z"/>
		<path fill="#FFD242" d="M782.985,269.835c-0.6,1.5-1,2.7-1.7,4.2c-0.6,1-1.2,2.3-1.9,3.5c-2.9,5.4-6,10.8-10.4,15.2
			c-4.8,4.6-10.6,7.7-18.3,7.7c-2.1,0-3.9-0.2-5.8-0.6c-3.3-1-6.4-2.7-9.1-5c-7.7,10.4-18.3,18.9-28.2,18.9
			c-34.1,0-11.6-57.7-0.4-76.4c7.7-12.7,17.7-22.2,29.1-22.2h0.2c6,0.2,11.6,2.3,15.6,6.9c3.3,3.9,5.4,9.3,5.2,16.8
			c-0.2,13.1-6.9,32.8-16.2,48.6c1.5,1.9,3.7,3.3,6.2,3.9c1,0.2,2.3,0.4,3.5,0.4c5,0,8.9-2.1,12-5.2c3.5-3.5,6.4-8.3,8.7-12.9
			c0.6-1,1-2.1,1.7-3.3c0.6-1,1-2.3,1.7-3.7c0.8-2.3,3.5-3.3,5.8-2.3C782.785,265.035,783.985,267.735,782.985,269.835z
			 M739.185,269.435c-0.6,1.7-0.8,3.3-1,4.8c6.2-12.5,10.2-26.2,10.4-35.7c0.2-5-1-8.5-3.1-10.8c-2.1-2.5-5.4-3.7-9.1-3.9
			c-7.9,0-15.4,7.7-21.4,18.1c-8.1,13.1-28,63.1-7.3,63.1c7.7,0,16.4-8.3,23.3-18.1c-1.2-2.9-1.7-6-1.7-9.8c0-3.1,0.4-6.4,1.5-10
			c0.6-2.5,2.9-3.7,5.4-3.1C738.385,264.635,739.785,266.935,739.185,269.435z"/>
		<path fill="#FFD242" d="M859.385,270.035l-0.2,0.6c-7.7,17.4-19.1,43-37.8,43h-0.2c-5.6,0-9.3-2.5-11.8-6
			c-2.1-3.3-2.9-7.3-2.9-11.4v-0.6c0-3.3,0.8-7.7,2.3-12.9c1.2-5,2.9-10.6,5-16.4c1.9-5.6,2.9-8.9,3.7-11.6
			c1.2-3.7,2.1-6.4,3.7-10.8l-3.3-1c-6-2.1-12.9-4.2-19.3-7.3c-0.6,1.9-1.5,3.7-2.1,5.2v0.2l-16.8,36.4c-1,2.3-3.5,3.1-5.8,2.1
			c-2.1-1-3.1-3.5-2.1-5.8l16.6-36.1c0.8-2.1,1.7-4.2,2.5-6.2c-6.9-4.8-11.4-10.8-10.6-19.5c0.4-3.1,1.9-5.8,3.9-7.9
			c0-0.2,0.2-0.2,0.2-0.2c2.3-2.1,5.2-3.3,8.5-3.3c1.2,0,2.5,0.2,3.5,0.4l0.2,0.2c3.1,0.8,5.2,2.9,6.6,5.4c1.2,2.3,1.7,4.8,1.7,7.7
			c0,2.1-0.4,4.2-1,6.2s-1.5,4.6-2.3,7.1c5.8,2.9,12.9,5.2,18.9,7.3c2.9,0.8,5.6,1.7,7.9,2.5c2.3,0.8,3.3,3.5,2.5,5.8v0.2
			c-2.5,6.4-3.5,9.6-5,14.3c-1,3.1-2.3,6.6-3.9,11.6c-1.9,5.8-3.7,11.2-4.8,15.8c-1.2,4.6-1.9,8.3-2.1,11v0.4c0,2.5,0.4,5,1.7,6.6
			c0.8,1.2,2.1,2.1,4.6,2.1c13.1,0,22.8-22.4,29.7-37.8l0.2-0.6c1-2.3,3.5-3.3,5.8-2.3
			C859.385,265.235,860.485,267.735,859.385,270.035z M796.285,213.735c0-1.2-0.2-2.5-0.6-3.3c-0.4-0.6-0.8-1-1.5-1.2h-0.2
			c-0.4,0-0.6-0.2-1-0.2c-1,0-1.9,0.4-2.5,1h-0.2c-0.6,0.6-1,1.7-1.2,2.7c-0.4,3.7,1.7,7.1,5,9.8c0.6-1.7,1-3.3,1.7-5
			C796.085,216.235,796.285,215.035,796.285,213.735z"/>
		<path fill="#FFD242" d="M902.585,270.035c-4.4,9.3-8.5,17.2-12.7,23.5c-4.4,6.6-8.7,11.4-13.5,15c-2.5,1.7-5.2,2.9-7.9,3.7
			c-2.9,1-6,1.5-8.7,1.5h-0.2c-4.2,0-8.1-1.5-10.8-4.6c-2.7-2.9-4.4-7.3-4.4-12.9v-0.2v-0.4c0-3.3,0.8-7.7,2.3-12.9
			c1.2-5,2.9-10.6,5-16.4c0.6-2.1,2.3-6.6,4.6-12.9c2.3-6.4,4.8-13.5,7.5-20.6c0.2-1,1.5-4.4,3.1-9.1h-13.1c-2.5,0-4.4-1.9-4.4-4.4
			c0-2.3,1.9-4.4,4.4-4.4h16c0.6-1.5,1-3.1,1.7-4.6c3.9-11.4,8.1-23.7,9.1-26.4c0.8-2.3,3.3-3.5,5.6-2.7s3.5,3.3,2.7,5.6
			c-1,2.5-5.2,14.7-9.1,26.4c-0.2,0.6-0.4,1-0.6,1.7h13.9c2.5,0,4.4,2.1,4.4,4.4c0,2.5-1.9,4.4-4.4,4.4h-17
			c-1.9,5.8-3.5,10.2-4.2,12c-2.9,8.3-5.6,15.6-7.5,20.8c-1.9,5.2-3.3,9.6-4.4,12.5c-2.1,5.8-3.7,11.2-5,15.8c-1,4.6-1.9,8.3-1.9,11
			v0.4c0,3.3,0.8,5.6,2.1,6.9c1,1.2,2.7,1.9,4.4,1.9h0.2c1.9,0,3.9-0.4,6-1c1.9-0.6,3.7-1.5,5.6-2.7c3.9-2.7,7.5-6.9,11.2-12.5
			c3.9-5.8,7.7-13.3,11.8-22.4c1-2.1,3.7-3.1,6-2.1C902.585,265.235,903.685,267.735,902.585,270.035z"/>
		<path fill="#FFD242" d="M985.485,270.035l-0.4,0.6c-7.7,17.4-18.9,43-37.6,43h-0.2c-5.8,0-9.6-2.5-11.8-6
			c-2.1-3.3-2.9-7.3-2.9-11.4v-0.6c0-4.4,1-9.1,2.3-14.1c1.5-5,3.1-10,5-15.2c0.6-1.2,1-2.5,1.5-3.9c3.1-7.7,7.5-19.1,7.5-27.8
			c0-6-2.7-10.8-10.8-10.8c-5.2,0-11,4.8-16.4,11.4c-7.7,9.8-14.5,23.5-18.7,34.5c-0.2,0.2-0.2,0.2-0.2,0.2
			c-5.8,16.2-12,33.7-14.5,40.7c-0.8,2.5-3.3,3.5-5.6,2.9c-2.3-0.8-3.5-3.3-2.7-5.6c2.3-6.4,8.5-24.1,14.5-40.9l0.2-0.2v-0.2
			c0,0,0-0.2,0.2-0.2c6.2-17.4,12.5-34.9,15-40.9v-0.2c2.1-6,2.9-8.5,3.9-11c1.7-5,3.3-9.6,4.2-12.3l1.2-3.5c1.2-3.3,2.9-8.3,5.2-15
			c0.8-2.1,3.3-3.3,5.6-2.5s3.5,3.3,2.7,5.6c-1.9,5.2-3.9,10.8-5.2,14.7c-0.4,1-0.6,2.1-1.2,3.5c-1.9,5.6-3.1,9.1-4.4,12.3l-2.7,7.7
			c6-6,12.3-9.8,18.9-9.8c14.7,0,19.5,8.5,19.5,19.5c0,10.2-4.8,22.6-7.9,31c-0.6,1.5-1,2.9-1.5,3.9c-1.9,4.8-3.5,9.8-4.8,14.3
			c-1.2,4.4-2.1,8.5-2.1,12v0.4c0,2.5,0.4,5,1.5,6.6c0.8,1.2,2.3,2.1,4.6,2.1h0.2c12.9,0,22.8-22.4,29.7-37.8l0.2-0.6
			c1-2.3,3.5-3.3,5.8-2.3S986.385,267.735,985.485,270.035z"/>
	</g>
	<text transform="matrix(1 0 0 1 154.0257 380.4147)" fill="#FFFFFF" font-family="'JosefinSans-SemiBold'" font-size="45.2687px">DESIGNER.  DEVELOPER.  DOG-LOVER.</text>
</g>
<g id="compass">
	<g>
		<path fill="#FFFFFF" class="blades grow" d="M733.585,237.935l-15.9,23.4c-0.1,0.1-0.2,0.2-0.3,0.4c-0.1,0.1-0.1,0.3-0.1,0.5l-7.2,27.4
			c-0.3,1.3,1.4,2.1,2.1,1l15.9-23.4c0.1-0.1,0.2-0.2,0.3-0.4c0.1-0.1,0.1-0.3,0.1-0.5l7.2-27.4
			C736.085,237.635,734.385,236.835,733.585,237.935z M725.585,265.335c-0.7,1.5-2.5,2.2-4.1,1.5c-1.5-0.7-2.2-2.5-1.5-4.1
			c0.7-1.5,2.5-2.2,4.1-1.5C725.685,261.935,726.285,263.835,725.585,265.335z"/>
	</g>
</g>
</svg>
