<?xml version="1.0" encoding="utf-8"?>
<!-- Generator: Adobe Illustrator 19.1.0, SVG Export Plug-In . SVG Version: 6.00 Build 0)  -->
<svg version="1.1" id="Layer_1" xmlns="http://www.w3.org/2000/svg" xmlns:xlink="http://www.w3.org/1999/xlink" x="0px" y="0px"
	 viewBox="0 0 678 370" enable-background="new 0 0 678 370" xml:space="preserve">
<g>
	<path d="M246.589,249.313c0.294,0.145,0.663,0.366,1.105,0.663c0.885,0.587,1.327,1.548,1.327,2.875
		c0,2.947-0.591,4.754-1.77,5.417c-1.182,0.663-2.287,0.995-3.316,0.995c-1.624-0.148-4.388-0.663-8.292-1.547
		c-3.907-0.885-9.473-2.028-16.694-3.428c-7.224-1.402-16.289-3.061-27.196-4.975c-10.911-1.917-24.102-4.129-39.58-6.634
		c-1.326,2.947-2.95,6.153-4.864,9.619c-1.914,3.462-4.201,6.778-6.854,9.95c-2.653,3.168-5.673,6.042-9.065,8.624
		c-3.39,2.577-7.297,4.457-11.72,5.638c-1.326,0.736-2.798,1.216-4.422,1.438c-1.62,0.221-3.096,0.332-4.422,0.332
		c-2.653,0-5.822-0.518-9.509-1.548c-3.683-1.033-7.186-2.581-10.503-4.644c-3.316-2.066-6.115-4.571-8.402-7.518
		c-2.283-2.951-3.427-6.34-3.427-10.171v0.221c-0.146-0.442-0.221-0.812-0.221-1.105v-1.106c0-0.297,0.037-0.518,0.11-0.663
		c0.076-0.148,0.11-0.37,0.11-0.664l0.221-0.221l0.442-1.769c0.148-2.066,0.995-4.091,2.543-6.081
		c1.548-1.99,3.648-3.355,6.302-4.091l3.538-1.327c-0.146-0.297,0.11-0.408,0.773-0.332c0.664,0.072,1.438-0.038,2.322-0.332
		c0.297-0.148,0.479-0.297,0.553-0.442c0.076-0.149,0.259-0.221,0.553-0.221h0.884c0.149,0,0.298-0.076,0.442-0.221
		c0.148-0.148,0.37-0.221,0.664-0.221c0.297,0,0.479,0.035,0.553,0.111c0.075,0.072,0.259,0.11,0.553,0.11
		c0.297-0.148,0.591-0.297,0.884-0.442c0.298-0.148,0.591-0.297,0.885-0.442l0.442,0.221l3.096-0.663c0.297,0,0.48,0.035,0.553,0.11
		c0.076,0.073,0.259,0.111,0.553,0.111c0.148,0,0.259-0.038,0.332-0.111c0.075-0.076,0.187-0.11,0.331-0.11h1.327l1.769-0.442
		c0.148,0,0.259,0.073,0.332,0.221c0.076,0.145,0.187,0.221,0.331,0.221c0.148,0,0.26-0.076,0.332-0.221
		c0.076-0.148,0.187-0.221,0.332-0.221l3.979-0.221c1.77-0.148,3.614-0.259,5.528-0.332c1.917-0.076,3.907-0.11,5.97-0.11
		c5.604,0,11.719,0.221,18.353,0.663c0-0.148,0.076-0.297,0.221-0.442c2.803-7.96,5.158-15.624,7.076-22.996
		c1.914-7.369,3.462-14.296,4.644-20.785c-0.739,1.624-1.514,3.282-2.322,4.975c-0.812,1.696-1.658,3.354-2.543,4.975l-2.432,6.191
		c-0.588,1.033-1.105,2.066-1.548,3.096c-0.442,1.033-1.029,2.066-1.769,3.096l-0.442,0.442l-0.222,0.221l0.222,0.221l-0.222-0.221
		l-0.221,0.442v0.442l-0.442,0.663l-0.221,0.442l-0.885,1.548h0.221l-2.211,3.096l-0.221,0.663v-0.221l-0.222,0.221v0.221v0.221
		l-0.884,0.663l-0.664,0.885l-0.884,0.884L138.464,223l-0.221,0.442h0.221c-0.442,0.442-0.884,0.809-1.326,1.105
		c-0.442,0.294-0.809,0.587-1.105,0.885v-0.221l0.221-0.221v-0.664v-0.442c0.297-0.149,0.519-0.297,0.663-0.442
		c0.148-0.145,0.37-0.515,0.664-1.105v0.221c0-0.294,0.11-0.587,0.331-0.885c0.222-0.293,0.408-0.515,0.553-0.663l-0.884,1.105
		l-1.106,1.105l-0.663,0.885h-0.442l-1.105,0.884l-0.442,0.442c-0.441,0.442-0.808,0.663-1.105,0.663
		c-0.145,0-0.293-0.076-0.442-0.221v0.221c-0.145,0-0.221-0.221-0.221-0.663c0-0.442,0-0.629,0-0.553
		c0,0.073,0.148-0.038,0.442-0.332l0.442-0.221v-0.663l0.663-0.221l0.442-0.664l0.663-1.327l0.442-0.663l0.663-0.884l0.663-0.442
		l-0.221-0.442l1.105-1.548c2.509-4.422,5.162-10.061,7.96-16.915c2.802-6.854,5.452-13.633,7.96-20.343
		c2.505-6.706,4.605-12.604,6.302-17.689c1.693-5.085,2.688-7.995,2.985-8.734c0-0.145,0.072-0.294,0.222-0.442
		c0.293-0.293,0.884-0.442,1.769-0.442c-0.297,0-0.076,0,0.663,0c0.736,0,1.62,0.187,2.653,0.553c1.029,0.37,2.024,0.96,2.985,1.769
		c0.957,0.812,1.438,2.101,1.438,3.87c0,0.297-0.038,0.553-0.111,0.774c-0.075,0.221-0.11,0.48-0.11,0.774
		c-0.442,2.066-0.812,4.643-1.105,7.739c-0.297,3.096-0.85,7.076-1.658,11.94c-0.812,4.864-2.028,10.911-3.648,18.131
		c-1.624,7.224-3.835,15.996-6.634,26.312c-0.591,1.472-1.182,3.058-1.769,4.754c-0.591,1.693-1.254,3.5-1.99,5.417
		c10.172,0.884,20.453,2.024,30.846,3.427c10.393,1.399,19.9,2.798,28.523,4.201c8.624,1.399,15.845,2.726,21.67,3.98
		C242.129,247.8,245.556,248.723,246.589,249.313z M107.95,268.771c0.739,0.145,1.402,0.255,1.99,0.332
		c0.591,0.073,1.254,0.11,1.99,0.11c3.244,0,6.34-0.774,9.286-2.321c2.951-1.548,5.639-3.614,8.071-6.191
		c2.432-2.581,4.681-5.493,6.744-8.734c2.065-3.244,3.907-6.634,5.527-10.171c-2.356-0.297-4.644-0.442-6.854-0.442
		s-4.495-0.076-6.854-0.221l-0.885-0.221h-0.663h-0.221l-0.664-0.221c0,0.145-0.145,0.221-0.441,0.221
		c-0.294,0-0.516,0.072-0.664,0.221h-1.548l-0.221-0.221l-0.442,0.221v-0.221l-3.096,0.221v-0.221l-0.663,0.221h0.221
		c-1.178,0.146-2.355,0.221-3.537,0.221c-1.179,0-2.356,0-3.538,0l-0.442,0.221v-0.221l-0.663,0.221h-0.885
		c-0.146,0-0.183,0.035-0.11,0.11c0.076,0.073-0.035,0.111-0.332,0.111h-2.653l-1.769,0.221h-1.105v0.221
		c-0.146,0-0.222-0.076-0.222-0.221l-1.105,0.221v-0.221l-0.885,0.442c-0.884,0.146-1.803,0.256-2.764,0.332
		c-0.957,0.072-1.804,0.255-2.543,0.553l0.442-0.221l0.885-0.884h-0.222l0.664-0.442c0.148,0,0.739-0.111,1.769-0.332
		c1.033-0.221,1.696-0.408,1.99-0.553v0.221c0.297-0.297,0.995-0.518,2.101-0.663c1.105-0.148,1.807-0.221,2.101-0.221h0.442
		c0.884-0.148,1.734-0.297,2.543-0.442c0.812-0.148,1.658-0.221,2.542-0.221l-0.221,0.221h0.221h0.222
		c0-0.148,0.442-0.259,1.326-0.332c0.885-0.076,1.548-0.187,1.99-0.332v0.221c0.442-0.149,1.254-0.221,2.433-0.221l0.663,0.221
		c0.297-0.149,0.519-0.221,0.663-0.221c0.148,0,0.37-0.076,0.664-0.221c0.297,0,0.628,0.035,0.994,0.11
		c0.37,0.073,0.702,0.111,0.995,0.111c0.739-0.148,1.514-0.221,2.322-0.221c0.812,0,1.658,0,2.543,0
		c-1.327-0.148-2.653-0.221-3.98-0.221c-1.326,0-2.799,0-4.422,0h-1.77l-3.316-0.221h-2.211c-0.294,0-0.477,0.035-0.553,0.111
		c-0.073,0.072-0.256,0.11-0.553,0.11l-0.664-0.221l-4.201,0.885c-0.293,0-0.515-0.038-0.663-0.111
		c-0.145-0.076-0.366-0.11-0.663-0.11c-0.146,0-0.294,0.072-0.442,0.221c-0.146,0.145-0.294,0.221-0.442,0.221l-1.769,0.221
		L98,240.469c-0.145,0-0.294-0.038-0.442-0.111c-0.145-0.076-0.293-0.11-0.442-0.11c-0.293,0.145-0.441,0.293-0.441,0.442
		c0,0.145-0.146,0.221-0.442,0.221l-1.327,0.442c-6.633,1.327-9.95,4.053-9.95,8.181c0,1.769,0.591,3.683,1.77,5.749
		c1.182,2.062,2.84,4.015,4.975,5.86c2.139,1.841,4.609,3.461,7.407,4.864C101.907,267.407,104.854,268.329,107.95,268.771z
		 M91.146,270.761l-1.326-1.105l-1.548-0.884l1.105,1.105l0.663,0.221L91.146,270.761z M94.241,271.867l-1.327-0.884l-1.105-0.663
		l-0.221,0.663l2.211,1.327l0.222-0.221L94.241,271.867z M94.904,271.646c-0.442-0.149-1.105-0.519-1.99-1.106h-0.441l2.211,1.327
		L94.904,271.646z M106.402,276.51l-0.221-0.221l-2.653-0.663l0.221,0.221l1.105,0.221L106.402,276.51z M104.412,240.911
		c0-0.149-0.034-0.221-0.11-0.221c-0.072,0-0.11-0.076-0.11-0.221l-0.221,0.221L104.412,240.911z M106.182,240.248l-0.222,0.221
		l0.442-0.221H106.182z M108.835,276.731c-0.736,0-1.327-0.076-1.77-0.221c0.149,0,0.26,0.035,0.332,0.111
		c0.076,0.072,0.259,0.11,0.553,0.11h0.222H108.835z M108.835,240.026c0,0.145-0.294,0.221-0.885,0.221L108.835,240.026z
		 M111.267,240.911h1.106v-0.442h-0.664l-0.221,0.221L111.267,240.911z M117.9,240.026h-0.221h-0.222h0.222H117.9z M136.916,240.69
		l1.105,0.221l0.885-0.221c-0.442,0-0.809-0.076-1.105-0.221l-0.221,0.221H136.916z M138.686,221.674
		c0-0.145-0.146-0.221-0.442-0.221L138.686,221.674z M139.127,220.126l-0.441,0.664l0.221-0.221L139.127,220.126z M139.569,220.126
		c0.148-0.145,0.222-0.293,0.222-0.442L139.569,220.126z M139.791,220.568l-0.222,0.221h0.222V220.568z M141.56,218.799
		l-0.221-0.221l-0.222,0.442h0.442V218.799z M142.223,216.367l0.222-0.221h-0.222V216.367z M147.751,207.302l-0.442,0.442v0.442
		l0.442-0.442V207.302z M162.565,142.515l0.222-1.105c0-0.146,0.034-0.256,0.11-0.332c0.072-0.072,0.11-0.183,0.11-0.332v-0.442
		c0-0.293,0.034-0.477,0.11-0.553c0.072-0.072,0.11-0.255,0.11-0.553l0.442,0.442v0.442v0.664l-0.221,0.442
		c0,0.148,0.072,0.297,0.221,0.442l0.663,0.221l-0.221-1.105h-0.442l0.442-0.221c0.146,0,0.221-0.072,0.221-0.221v-0.663
		c0-0.294,0.073-0.587,0.222-0.885h-0.222h-0.441c0,0.149-0.076,0.221-0.222,0.221v0.221l0.222-0.663l-0.222-0.885l0.442-2.432
		c0.146-0.145,0.294-0.221,0.442-0.221v-0.221l0.221-0.221v-0.442l0.442-0.885v-0.663v-0.221c1.179-2.062,2.433-4.201,3.759-6.412
		c1.327-2.211,2.727-3.317,4.201-3.317c1.179,0,2.062,0.553,2.653,1.658c0.588,1.105,0.957,2.47,1.105,4.091v0.442l0.442,0.663
		l-0.442-0.442v1.106l0.664,0.221v1.548v0.664v-0.221v0.221l-0.222,0.221c0.146,0,0.222,0.076,0.222,0.221l-0.222,0.221v1.548v0.442
		l-0.221,1.105c-0.148,0.591-0.37,1.216-0.663,1.879c-0.298,0.664-0.519,1.071-0.664,1.216v-0.442v-0.442l-0.221-0.442
		c-0.297,0.884-0.519,1.475-0.663,1.769h0.442v0.221v0.442h-0.222c0.146,0.148,0.222,0.297,0.222,0.442v-0.221v0.442h-0.222
		c0.146,0,0.222,0.076,0.222,0.221l-0.222-0.221l-0.442-0.221c-0.148,0.148-0.221,0.259-0.221,0.332
		c0,0.076-0.076,0.187-0.222,0.332l0.442,0.442v-0.221v0.221l0.222,0.221v0.442l-0.664,1.105v0.221c0,0.148-0.148,0.628-0.441,1.437
		c-0.298,0.812-0.591,1.438-0.885,1.879l-0.222-0.221v0.221c0-0.145-0.075,0.149-0.221,0.885c-0.148,0.739-0.442,1.105-0.885,1.105
		l-0.221,0.221l-0.885,1.105c-0.591,0.884-1.254,1.403-1.99,1.548h-0.221c-0.591,0.297-1.033,0.442-1.326,0.442
		c-0.591,0-1.106-0.221-1.548-0.663l0.221-0.221c0,0.148-0.37-0.183-1.105-0.995c-0.739-0.808-1.033-1.14-0.885-0.995v-0.442h0.442
		l-0.221-0.664l-0.222-0.221l-0.221,0.442c-0.297-0.587-0.442-0.957-0.442-1.105l-0.221-1.327v0.221l0.221-0.221h-0.221
		c0-0.145-0.038-0.256-0.111-0.332c-0.076-0.073-0.11-0.183-0.11-0.332c0-0.293,0.034-0.515,0.11-0.663
		c0.073-0.145,0.111-0.366,0.111-0.664l-0.222-1.548l1.105-0.221l0.222-0.664l-0.664-0.221l-0.441,0.221v0.442H162.565z
		 M163.671,145.611l0.222-0.442l-0.442,0.221v-0.221c0.294,0,0.442-0.145,0.442-0.442l-0.442-0.221l-0.222-0.221l-0.441,0.442v0.221
		l0.221-0.221l0.221,0.664h-0.441l0.221,0.442c0,0.149,0.146,0.221,0.442,0.221l0.442-0.221L163.671,145.611z M164.776,136.766
		v-0.664l-0.663-0.221v0.442l0.221,0.885L164.776,136.766z M164.113,148.706l0.221,0.442h0.664l-0.222-0.221l0.222-0.221
		l-0.222,0.221v-0.442l-0.221,0.221H164.113z M164.998,149.148v0.442l0.663,0.221l-0.221-0.442L164.998,149.148z M171.631,147.158
		h0.222l0.221-0.221l-0.221-0.221l-0.222,0.221V147.158z M174.063,144.726l-0.221,0.221v-0.221H174.063z M174.063,144.284
		l0.221,0.221C174.136,144.505,174.063,144.433,174.063,144.284z M176.274,135.881h0.442l-0.442-0.442V135.881z M176.496,134.997
		l0.441,0.221l-0.441-1.105V134.997z M176.717,132.344l0.221-0.221h-0.221V132.344z M177.38,134.113l-0.221-0.221
		C177.304,133.892,177.38,133.968,177.38,134.113z M177.602,131.459l-0.222,0.221C177.38,131.535,177.453,131.459,177.602,131.459z"
		/>
	<path d="M210.104,202.879c0,0.148,0.034,0.297,0.11,0.442c0.072,0.149,0.11,0.297,0.11,0.442c0-0.145-0.221,0-0.663,0.442
		c0,0.148,0.034,0.297,0.11,0.442c0.072,0.149,0.11,0.297,0.11,0.442c-0.148,0.297-0.297,0.48-0.441,0.553
		c-0.149,0.076-0.298,0.187-0.442,0.332v1.106v0.442h-0.442l-0.663,2.433l-0.664,0.442v0.664l-0.663,0.884l-0.442,1.327
		c-0.148,0.149-0.297,0.187-0.442,0.111c-0.148-0.073-0.221-0.035-0.221,0.11v0.442v0.221l-0.442,0.663
		c-0.148,0.442-0.663,1.327-1.548,2.653s-2.028,2.802-3.427,4.422c-1.403,1.621-2.985,3.13-4.754,4.533
		c-1.77,1.399-3.538,2.322-5.308,2.764v-0.221c-0.148,0.145-0.297,0.221-0.441,0.221c-0.148,0-0.298,0.072-0.442,0.221h0.221
		c-0.591,0.293-0.96,0.442-1.105,0.442h-0.221c-0.298,0-0.48,0.035-0.553,0.111c-0.076,0.072-0.187,0.11-0.332,0.11
		c-0.591,0-1.033-0.038-1.327-0.11c-0.297-0.076-0.59-0.111-0.884-0.111h-0.663l0.221-0.221c-0.297,0-0.519-0.038-0.663-0.111
		c-0.148-0.076-0.298-0.11-0.442-0.11l-0.222-0.221h-0.221l0.221,0.442c-0.739,0-1.402-0.221-1.989-0.664v0.221h-0.222
		c-0.591-0.442-0.96-0.812-1.105-1.105c-0.148-0.297-0.369-0.591-0.663-0.885v0.221c0.294,0.145,0.221,0.035-0.222-0.332
		c-0.441-0.37-0.884-0.922-1.326-1.658c-2.211-3.538-3.721-6.965-4.533-10.282c-0.809-3.316-1.216-6.816-1.216-10.503
		c0-9.432,1.182-17.651,3.538-24.654c2.355-7,4.975-12.787,7.85-17.357c2.874-4.567,5.6-7.96,8.181-10.171
		c2.577-2.211,4.091-3.317,4.533-3.317c0.735,0,1.251,0.148,1.548,0.442c0.442,0,1.288,0.259,2.543,0.774
		c1.25,0.518,2.542,1.548,3.869,3.095c1.327,1.548,2.505,3.687,3.538,6.413c1.029,2.729,1.548,6.302,1.548,10.724
		c0,2.508-0.591,5.162-1.77,7.96c-1.182,2.802-2.729,5.455-4.644,7.96c-1.917,2.508-4.09,4.72-6.522,6.634
		c-2.433,1.917-4.83,3.171-7.187,3.759h0.222c-1.182,0.591-2.066,0.96-2.653,1.105l-0.222,0.221h-0.442v0.221l-0.221-0.221
		l-1.548,0.664l-0.442,0.221v-0.221l-0.442,0.221l-0.441-0.221l0.221,0.221c-0.442,0-0.812,0.442-1.105,1.327
		c-0.297,0.885-0.519,1.917-0.663,3.096c-0.148,1.182-0.222,2.398-0.222,3.648c0,1.254,0,2.177,0,2.764
		c0,0.884,0.11,2.028,0.332,3.427c0.221,1.402,0.553,2.84,0.995,4.312c0.442,1.475,0.995,2.729,1.658,3.759
		c0.663,1.033,1.438,1.548,2.321,1.548c2.212,0,4.457-0.808,6.744-2.432c2.284-1.62,4.236-3.241,5.859-4.864l1.77-1.99l1.105-1.105
		l0.442-0.885l0.441-0.442l0.442-0.885l0.664-0.884l0.221-0.664c0.294-0.736,0.625-1.472,0.995-2.211
		c0.366-0.736,0.698-1.399,0.995-1.99l-0.222,0.442v0.442l0.222,0.884l0.221-0.221l0.663-1.105v-0.442l-0.663-0.442l0.222-0.442
		c0.145-0.442,0.293-0.663,0.441-0.663v0.442v-0.221l0.222-0.442v0.221l0.221-0.442v0.884l-0.221-0.221
		c-0.148,0-0.222,0.149-0.222,0.442v0.221v-0.221c0.146,0,0.222,0.148,0.222,0.442l0.221-0.221l-0.221,0.663h-0.222v0.442
		l0.442-1.105l0.664-0.442l0.221-0.884c0.294-0.587,0.587-1.03,0.885-1.327l0.442-0.442h-0.222l0.222-0.442l0.441-0.221
		c0.885,0,1.327,0.297,1.327,0.884c0,0.148-0.11,0.408-0.332,0.774C210.657,202.254,210.398,202.585,210.104,202.879z
		 M185.781,183.863c-0.441,1.624-0.922,3.317-1.437,5.086c-0.519,1.769-0.995,3.686-1.438,5.749l0.221,0.221v-0.442l1.327-0.885
		c3.831-2.356,7.075-5.562,9.729-9.618c2.654-4.053,3.98-8.879,3.98-14.483c0-3.24-0.591-5.821-1.769-7.739
		c-1.327,1.624-2.913,4.167-4.754,7.628C189.796,172.846,187.845,177.672,185.781,183.863z"/>
	<path d="M249.461,194.477c0.294-0.146,0.626-0.111,0.995,0.11c0.366,0.221,0.553,0.48,0.553,0.774c0,0.148-0.076,0.259-0.221,0.332
		c-0.148,0.076-0.297,0.259-0.442,0.553v0.442c0,0.148,0.072,0.221,0.221,0.221c0,0.148-0.075,0.221-0.221,0.221
		c-0.148,0-0.221,0.076-0.221,0.221c-0.149,0-0.149,0.076,0,0.221c0.145,0.149,0.145,0.297,0,0.442c0,0.148-0.076,0.221-0.222,0.221
		c-0.148,0-0.221,0.076-0.221,0.221c-0.148,0.297-0.148,0.518,0,0.663c0.145,0.149,0.145,0.297,0,0.442l-0.222,0.221v0.442
		l-0.442,1.327c0,0.148-0.075,0.221-0.221,0.221c-0.148,0-0.221,0.076-0.221,0.221c0,0.149,0.072,0.297,0.221,0.442l-0.221,0.664
		l-0.222,0.884v0.221c-0.148,0.148-0.369,0.221-0.663,0.221c0,0.148,0.072,0.259,0.221,0.332c0.146,0.076,0.222,0.187,0.222,0.332
		l-0.222,0.664l-0.442,1.548c-0.884,2.95-1.989,6.267-3.316,9.95c-0.442,0.885-0.885,1.807-1.326,2.764
		c-0.442,0.96-1.033,2.028-1.77,3.206c-0.442,0.587-0.85,1.216-1.216,1.879c-0.37,0.664-1.364,1.289-2.985,1.879
		c-0.442,0.442-0.812,0.736-1.105,0.885v0.221c-0.739,0.293-1.696,0.293-2.874,0c0-0.149,0.072-0.187,0.221-0.111
		c0.146,0.073,0.072,0.035-0.221-0.11h-0.442c-0.148-0.297-0.259-0.519-0.332-0.664c-0.076-0.148-0.11-0.37-0.11-0.663
		c-1.033-0.591-1.769-1.327-2.211-2.211l-0.885-2.653c-0.297-0.736-0.442-1.548-0.442-2.432s0-1.693,0-2.432
		c-1.033,1.624-2.211,3.576-3.537,5.859c-1.327,2.284-3.244,3.942-5.749,4.975c-0.885,0.884-2.139,1.327-3.76,1.327h0.664
		l-0.222-0.221h0.442c0.294,0,0.588-0.148,0.885-0.442l0.221,0.221l0.663-0.442c0.146,0,0.222-0.038,0.222-0.111
		c0-0.076,0.072-0.11,0.221-0.11h-0.884l-0.222,0.221l0.222-0.221h-0.885l0.221,0.221l-0.441,0.221c0-0.149-0.222-0.221-0.664-0.221
		h-0.442v0.221h-0.441h-0.222l-0.221,0.221l0.221,0.221c0,0.145,0.222,0.221,0.663,0.221h-0.441
		c-0.591-0.297-1.144-0.629-1.659-0.995c-0.518-0.37-1.07-0.701-1.658-0.995v-0.221h-0.221c-1.472-0.885-2.543-2.028-3.206-3.427
		c-0.664-1.399-1.067-2.688-1.217-3.87c-0.884-3.832-1.25-7.148-1.105-9.95c0-6.336,0.664-12.382,1.99-18.131
		c1.327-5.749,3.206-11.018,5.639-15.81c2.432-4.789,4.864-8.917,7.297-12.383c2.432-3.461,4.716-6.153,6.854-8.07
		c2.135-1.914,3.648-3.02,4.532-3.317c0.588-0.293,1.179-0.442,1.77-0.442c1.178,0,2.283,0.96,3.316,2.875
		c0.885,1.769,1.327,3.096,1.327,3.98c0,0.884-0.298,1.547-0.885,1.99c-0.739,0.739-1.658,1.586-2.764,2.543
		c-1.105,0.96-2.433,2.397-3.98,4.312c-1.548,1.917-3.244,4.46-5.086,7.628c-1.845,3.172-3.797,7.408-5.859,12.714
		c-0.739,1.769-1.437,3.835-2.101,6.191c-0.663,2.36-1.254,4.865-1.769,7.518c-0.519,2.653-0.885,5.345-1.105,8.071
		c-0.222,2.729-0.187,5.417,0.11,8.07c0.146,1.624,0.442,2.581,0.885,2.875c0.442,0.297,0.663,0.37,0.663,0.221
		c0.736-0.442,1.582-1.25,2.543-2.432c0.957-1.178,1.804-2.356,2.543-3.538c1.62-2.504,3.096-5.009,4.422-7.518
		c1.327-2.505,2.577-4.865,3.759-7.076v-0.221c0.146-0.884,0.294-1.769,0.442-2.653c0.146-0.884,0.294-1.769,0.442-2.653
		c0.885-4.125,1.842-8.033,2.874-11.719c1.03-3.683,2.025-6.965,2.985-9.839c0.957-2.875,1.842-5.231,2.653-7.076
		c0.809-1.842,1.438-2.985,1.88-3.427c0.145-0.442,0.515-0.736,1.105-0.885c0.442-0.145,0.957-0.183,1.548-0.11
		c0.587,0.076,1.472,0.48,2.653,1.216c2.798,2.066,3.979,3.538,3.538,4.422c-0.298,0.74-0.629,1.659-0.995,2.764
		c-0.37,1.105-0.885,2.581-1.548,4.422c-0.664,1.845-1.438,4.128-2.322,6.854c-0.884,2.729-1.845,6.157-2.874,10.282
		c-0.739,3.096-1.696,6.709-2.875,10.834c-1.182,4.129-2.139,8.402-2.874,12.825c0,0.591-0.038,1.144-0.11,1.658
		c-0.076,0.519-0.111,1.071-0.111,1.659c1.179-1.769,2.246-3.61,3.207-5.528c0.957-1.914,1.879-3.683,2.764-5.307v-0.221
		l0.442-0.664l0.221-0.663v-0.221l0.442-0.885c0-0.145,0.034-0.255,0.11-0.332c0.072-0.072,0.11-0.183,0.11-0.332l0.222-0.221
		l0.221-0.442h0.222l0.221-0.663h-0.221c0.293-0.587,0.587-1.178,0.884-1.769c0.294-0.587,0.588-1.105,0.885-1.548v0.221h-0.221
		v0.221v0.221l0.441-0.221c0.146-0.145,0.184-0.256,0.111-0.332c-0.076-0.073-0.038-0.183,0.11-0.332l-0.222-0.221l0.222-0.221
		c0.145-0.294,0.256-0.477,0.331-0.553c0.073-0.073,0.035-0.035-0.11,0.11l0.885-0.884v-0.442l0.442-0.442l0.221-0.663
		c0.146-0.294,0.366-0.587,0.663-0.885c0.146-0.145,0.294-0.221,0.442-0.221h-0.221L249.461,194.477z"/>
	<path d="M285.943,156.887c1.178,1.033,1.88,2.101,2.101,3.207c0.221,1.105,0.332,1.879,0.332,2.322
		c-0.149,3.835-0.702,7.334-1.659,10.503c-0.96,3.171-1.807,6.229-2.542,9.176c-2.066,7.518-3.538,14.3-4.423,20.342
		c-0.885,6.046-1.326,10.834-1.326,14.373c0,2.508,0.145,4.128,0.441,4.864c0.294,0.739,0.442,1.182,0.442,1.327
		c0-0.145-0.11,0.038-0.331,0.553c-0.222,0.515-0.629,1.14-1.217,1.88c-0.591,0.736-1.292,1.399-2.101,1.99
		c-0.812,0.587-1.807,0.885-2.984,0.885c-1.624,0-2.84-1.327-3.648-3.98c-0.812-2.653-1.217-5.821-1.217-9.508
		c0-3.98,0.626-9.508,1.88-16.583c1.251-7.076,3.572-15.844,6.965-26.312c0-0.145,0.035-0.256,0.11-0.332
		c0.073-0.072,0.111-0.183,0.111-0.332c-2.951,3.244-5.307,6.523-7.076,9.84c-1.769,3.316-3.687,6.671-5.749,10.061l-0.442,0.442
		c0,0.148-0.037,0.259-0.11,0.332c-0.076,0.076-0.11,0.187-0.11,0.332l-0.442,0.664v-0.221v0.221v0.442v0.221l-0.663,1.327
		l-0.885,1.99c-0.884,5.604-1.548,10.8-1.99,15.588c-0.441,4.792-0.663,8.44-0.663,10.945c0,1.472,0.072,2.284,0.222,2.432
		c0,0.145-0.222,0.477-0.664,0.995c-0.442,0.515-2.287,0.774-5.527,0.774c-2.799,0-4.236-0.629-4.312-1.879
		c-0.073-1.254-0.111-3.13-0.111-5.639c0-2.356,0.222-5.749,0.664-10.171l-0.442,1.548l-0.222-0.221l0.222,0.442l-1.548,2.875
		l-0.222,0.664v-0.221l-0.221,0.221l0.221,0.221h-0.441l-0.442,0.884l-0.442,0.884l-0.663,0.885l-0.442,0.221h0.221
		c-0.884,1.182-1.548,1.917-1.99,2.211v-0.221l0.442-0.221l-0.221-0.663l-0.222-0.221l0.222-0.221c0-0.145-0.072-0.221-0.222-0.221
		l0.222-0.221l0.663-1.105l0.222,0.221v-0.221c0-0.293,0.075-0.625,0.221-0.995c0.148-0.366,0.369-0.625,0.663-0.773l0.885-1.99
		v0.221c0-0.145,0.038-0.183,0.11-0.111c0.076,0.076,0.11,0.038,0.11-0.11c0.148,0,0.076-0.145-0.221-0.442
		c0.297-0.293,0.442-0.587,0.442-0.884c-0.294,0.297-0.442,0.518-0.442,0.663l-0.442,0.885l-0.885,1.327l-0.663,0.884l-0.663,0.885
		l-0.885,1.327l-0.663,0.884l-0.442,0.442l-0.663,0.884l-0.663,0.664c-0.442,0.442-0.736,0.663-0.885,0.663h-0.222h0.222
		l-0.222,0.221c-0.587,0-0.884-0.366-0.884-1.105c0.148,0,0.297-0.073,0.442-0.221c0.148-0.145,0.221-0.366,0.221-0.664l0.442-0.221
		l0.442-0.664v-0.884h0.442l0.441-1.327l0.222-0.664l0.442-1.105l0.663-0.442l-0.222-0.221l0.664-1.769
		c1.624-3.241,3.244-7.187,4.864-11.83c1.624-4.644,3.206-9.432,4.754-14.373c1.548-4.937,3.02-9.802,4.422-14.594
		c1.399-4.789,2.765-8.955,4.091-12.493c0.736-3.096,1.179-5.562,1.327-7.408c0.145-1.841,1.25-2.764,3.316-2.764
		c2.947,0,5.048,0.518,6.302,1.548c1.251,1.033,1.88,1.769,1.88,2.211c0,1.327-0.519,3.317-1.548,5.97
		c-1.033,2.653-2.433,6.931-4.201,12.825c0.442-0.736,0.884-1.438,1.326-2.101c0.442-0.664,0.885-1.361,1.327-2.101
		c0.587-0.736,1.288-1.804,2.101-3.206c0.809-1.399,1.73-2.764,2.764-4.091c1.029-1.327,2.173-2.467,3.428-3.427
		c1.25-0.957,2.688-1.438,4.312-1.438C283.068,155.561,284.319,156.003,285.943,156.887z M246.585,213.935v-0.221l-0.221,0.221
		l0.221,0.442l0.221-0.442H246.585z M246.585,211.282l0.221-0.221h-0.221V211.282z"/>
	<path d="M323.532,156.887c1.178,1.033,1.88,2.101,2.101,3.207c0.221,1.105,0.332,1.879,0.332,2.322
		c-0.149,3.835-0.702,7.334-1.659,10.503c-0.96,3.171-1.807,6.229-2.542,9.176c-2.066,7.518-3.538,14.3-4.423,20.342
		c-0.885,6.046-1.326,10.834-1.326,14.373c0,2.508,0.145,4.128,0.441,4.864c0.294,0.739,0.442,1.182,0.442,1.327
		c0-0.145-0.11,0.038-0.331,0.553c-0.222,0.515-0.629,1.14-1.217,1.88c-0.591,0.736-1.292,1.399-2.101,1.99
		c-0.812,0.587-1.807,0.885-2.984,0.885c-1.624,0-2.84-1.327-3.648-3.98c-0.812-2.653-1.217-5.821-1.217-9.508
		c0-3.98,0.626-9.508,1.88-16.583c1.251-7.076,3.572-15.844,6.965-26.312c0-0.145,0.035-0.256,0.11-0.332
		c0.073-0.072,0.111-0.183,0.111-0.332c-2.951,3.244-5.307,6.523-7.076,9.84c-1.769,3.316-3.687,6.671-5.749,10.061l-0.442,0.442
		c0,0.148-0.037,0.259-0.11,0.332c-0.076,0.076-0.11,0.187-0.11,0.332l-0.442,0.664v-0.221v0.221v0.442v0.221l-0.663,1.327
		l-0.885,1.99c-0.884,5.604-1.548,10.8-1.99,15.588c-0.441,4.792-0.663,8.44-0.663,10.945c0,1.472,0.072,2.284,0.222,2.432
		c0,0.145-0.222,0.477-0.664,0.995c-0.442,0.515-2.287,0.774-5.527,0.774c-2.799,0-4.236-0.629-4.312-1.879
		c-0.073-1.254-0.111-3.13-0.111-5.639c0-2.356,0.222-5.749,0.664-10.171l-0.442,1.548l-0.222-0.221l0.222,0.442l-1.548,2.875
		l-0.222,0.664v-0.221l-0.221,0.221l0.221,0.221h-0.441l-0.442,0.884l-0.442,0.884l-0.663,0.885l-0.442,0.221h0.221
		c-0.884,1.182-1.548,1.917-1.99,2.211v-0.221l0.442-0.221l-0.221-0.663l-0.222-0.221l0.222-0.221c0-0.145-0.072-0.221-0.222-0.221
		l0.222-0.221l0.663-1.105l0.222,0.221v-0.221c0-0.293,0.075-0.625,0.221-0.995c0.148-0.366,0.369-0.625,0.663-0.773l0.885-1.99
		v0.221c0-0.145,0.038-0.183,0.11-0.111c0.076,0.076,0.11,0.038,0.11-0.11c0.148,0,0.076-0.145-0.221-0.442
		c0.297-0.293,0.442-0.587,0.442-0.884c-0.294,0.297-0.442,0.518-0.442,0.663l-0.442,0.885l-0.885,1.327l-0.663,0.884l-0.663,0.885
		l-0.885,1.327l-0.663,0.884l-0.442,0.442l-0.663,0.884l-0.663,0.664c-0.442,0.442-0.736,0.663-0.885,0.663h-0.222h0.222
		l-0.222,0.221c-0.587,0-0.884-0.366-0.884-1.105c0.148,0,0.297-0.073,0.442-0.221c0.148-0.145,0.221-0.366,0.221-0.664l0.442-0.221
		l0.442-0.664v-0.884h0.442l0.441-1.327l0.222-0.664l0.442-1.105l0.663-0.442l-0.222-0.221l0.664-1.769
		c1.624-3.241,3.244-7.187,4.864-11.83c1.624-4.644,3.206-9.432,4.754-14.373c1.548-4.937,3.02-9.802,4.422-14.594
		c1.399-4.789,2.765-8.955,4.091-12.493c0.736-3.096,1.179-5.562,1.327-7.408c0.145-1.841,1.25-2.764,3.316-2.764
		c2.947,0,5.048,0.518,6.302,1.548c1.251,1.033,1.88,1.769,1.88,2.211c0,1.327-0.519,3.317-1.548,5.97
		c-1.033,2.653-2.433,6.931-4.201,12.825c0.442-0.736,0.884-1.438,1.326-2.101c0.442-0.664,0.885-1.361,1.327-2.101
		c0.587-0.736,1.288-1.804,2.101-3.206c0.809-1.399,1.73-2.764,2.764-4.091c1.029-1.327,2.173-2.467,3.428-3.427
		c1.25-0.957,2.688-1.438,4.312-1.438C320.657,155.561,321.908,156.003,323.532,156.887z M284.174,213.935v-0.221l-0.221,0.221
		l0.221,0.442l0.221-0.442H284.174z M284.174,211.282l0.221-0.221h-0.221V211.282z"/>
	<path d="M323.532,222.779c-0.293-1.472-0.477-2.764-0.553-3.869c-0.072-1.105-0.11-2.246-0.11-3.427
		c-0.145-4.422,0.148-8.769,0.885-13.046c0.739-4.274,1.475-8.402,2.211-12.382c2.062-11.35,4.163-19.641,6.302-24.875
		c2.135-5.23,3.794-7.85,4.975-7.85c1.03,0,1.952,0.297,2.765,0.885c0.809,0.59,1.548,1.216,2.211,1.879
		c0.663,0.663,1.361,1.585,2.101,2.764c0,1.182-0.701,3.465-2.101,6.854c-1.402,3.393-3.062,9.142-4.976,17.247
		c-0.441,2.066-1.07,4.46-1.879,7.186c-0.812,2.729-1.624,5.566-2.433,8.513c-0.812,2.95-1.475,5.936-1.99,8.955
		c-0.518,3.023-0.773,5.787-0.773,8.292c0,0.297,0.034,0.59,0.11,0.884c0.073,0.297,0.11,0.591,0.11,0.884
		c0.442-0.442,1.51-1.25,3.207-2.432c1.692-1.178,2.836-2.284,3.427-3.317l1.548-1.548l1.105-0.663l0.442-0.884l0.442-0.442
		l0.221-0.221l0.885-0.884h-0.222c0.736-0.736,1.548-1.693,2.433-2.875l-0.221,0.442l-0.222,0.442l0.442-0.221l0.442-0.663v-0.442
		c0-0.145,0.072-0.293,0.221-0.442h0.222l-0.222,0.221l0.222-0.221l0.221-0.221v0.221l0.222-0.442v0.221l0.663-0.664
		c0.145-0.293,0.294-0.477,0.442-0.553c0.145-0.073,0.293-0.183,0.442-0.332c0.145-0.146,0.293-0.221,0.441-0.221h-0.221
		l0.221-0.221h0.222c0.294,0,0.587,0.076,0.885,0.221c0.293,0.148,0.441,0.37,0.441,0.663c0,0.149-0.187,0.332-0.553,0.553
		c-0.369,0.221-0.553,0.48-0.553,0.774c0,0.149,0.073,0.297,0.222,0.442c0-0.145-0.222,0-0.664,0.442v0.442c0-0.293,0-0.221,0,0.221
		c0,0.442-0.297,0.96-0.884,1.548l-0.222,0.664l-1.326,1.327l-0.442,1.105l-0.663,1.105c0,0.148-0.076,0.187-0.222,0.111
		c-0.148-0.073-0.221-0.035-0.221,0.11v0.442l-1.327,1.99c-0.442,0.739-1.032,1.659-1.769,2.764
		c-0.739,1.105-1.624,2.211-2.653,3.316c-1.033,1.106-2.177,2.101-3.428,2.985c-1.254,0.884-2.691,1.399-4.312,1.548
		c-1.033,0-2.101-0.332-3.206-0.995c-1.105-0.664-1.804-1.365-2.101-2.101L323.532,222.779z M337.905,144.947l0.221-1.105
		c0-0.145,0.035-0.256,0.11-0.332c0.073-0.073,0.111-0.183,0.111-0.332v-0.442c0-0.146,0.034-0.294,0.11-0.442
		c0.072-0.145,0.11-0.366,0.11-0.664l0.442,0.442v0.442v0.884h-0.442l0.221,0.221c0,0.297,0.073,0.442,0.222,0.442l0.663,0.221
		l-0.442-1.105l-0.221,0.221l0.442-0.442l0.221-0.221v-0.442c0-0.442,0.072-0.736,0.222-0.884l-0.222-0.221h-0.442
		c0,0.148-0.076,0.221-0.221,0.221v0.221l0.221-0.663l-0.221-0.885l0.442-2.432c0.145-0.145,0.293-0.221,0.442-0.221v-0.221
		l0.221-0.442l0.442-1.105c0-1.327,0.366-2.616,1.105-3.87c0.735-1.25,1.548-2.395,2.433-3.427c0.884-1.03,1.769-1.841,2.653-2.432
		c0.884-0.587,1.472-0.885,1.769-0.885c1.178,0,2.024,0.553,2.543,1.659c0.515,1.105,0.919,2.542,1.216,4.312v0.221l0.442,0.663
		l-0.442-0.442v1.105l0.663,0.442l-0.221,1.99l0.221,0.221l-0.221-0.221v0.221c0.146,0,0.221,0.076,0.221,0.221l-0.221,1.105v0.884
		l-0.221,1.327c-0.298,0.591-0.554,1.216-0.774,1.88c-0.221,0.663-0.407,1.144-0.553,1.437v-0.442v-0.442l-0.221-0.664l-0.664,1.99
		l0.442-0.221v0.442v0.221v0.221l-0.221-0.221v0.221l0.221,0.221v-0.221v0.442h-0.221c0.145,0,0.221,0.076,0.221,0.221l-0.221-0.221
		l-0.442-0.221c-0.148,0.148-0.222,0.259-0.222,0.332c0,0.076-0.075,0.187-0.221,0.332l0.442,0.442l0.221,0.442l-0.221-0.221
		c0.145,0.148,0.221,0.37,0.221,0.664l-0.663,0.884v0.221l-0.442,1.327c-0.148,0.297-0.297,0.663-0.442,1.105
		c-0.148,0.442-0.297,0.739-0.441,0.885l-0.222-0.221v0.221h-0.221c0.145,0,0.221,0.148,0.221,0.442
		c-0.297,0.297-0.442,0.591-0.442,0.885c0,0.297-0.221,0.591-0.663,0.884h-0.221l-0.885,1.105c-0.442,0.885-1.105,1.403-1.99,1.548
		h-0.221c-0.591,0.297-1.033,0.442-1.327,0.442c-0.591,0-1.105-0.221-1.548-0.664l0.222-0.221l-0.222-0.221
		c-0.148,0-0.221,0.076-0.221,0.221c-0.297-0.736-0.591-1.178-0.885-1.327c-0.297-0.145-0.519-0.366-0.663-0.663h0.221l-0.221-0.442
		h0.442l-0.222-0.663l-0.221-0.221l-0.222,0.442c-0.297-0.587-0.441-0.957-0.441-1.105l-0.222-1.105c0-0.145-0.038-0.256-0.11-0.332
		c-0.076-0.073-0.11-0.256-0.11-0.553c0-0.294,0.034-0.515,0.11-0.664c0.072-0.145,0.11-0.366,0.11-0.663l-0.221-1.548l1.105-0.221
		l0.221-0.664h-0.442l-0.663-0.221v0.664H337.905z M339.011,148.043l0.221-0.442l-0.442,0.221v-0.221
		c0.294,0,0.442-0.145,0.442-0.442h-0.442v-0.221l-0.221-0.221l-0.442,0.442v0.221l0.442,0.442l-0.442,0.221l0.222,0.221
		c0,0.297,0.072,0.442,0.221,0.442l0.442-0.442V148.043z M340.116,139.198v-0.663l-0.663-0.221l0.221,1.327L340.116,139.198z
		 M339.453,151.139l0.221,0.884l0.663-0.442l-0.221-0.221h0.221l-0.221-0.442l-0.221,0.221H339.453z M340.337,151.802v0.442
		l0.442,0.221v-0.442L340.337,151.802z M344.98,207.522l-0.442,0.442l0.222,0.221v-0.221h0.221v-0.221V207.522z M346.971,149.591
		l0.221,0.221v-0.221l0.222-0.221l-0.222-0.221l-0.221,0.221V149.591z M348.961,148.043h0.221l-0.221-0.221V148.043z
		 M349.403,147.379c-0.148,0-0.222-0.072-0.222-0.221L349.403,147.379z M351.614,138.314h0.442l-0.442-0.442V138.314z
		 M351.835,137.429l0.442,0.221l-0.442-0.884V137.429z M352.057,134.776l0.221-0.221h-0.221V134.776z M352.499,136.545
		c0.145,0,0.221-0.073,0.221-0.221c-0.148,0-0.187,0.038-0.11,0.111C352.682,136.51,352.644,136.545,352.499,136.545z
		 M352.94,133.892l-0.221,0.221C352.72,133.968,352.792,133.892,352.94,133.892z"/>
	<path d="M383.231,202.879c0,0.148,0.034,0.297,0.11,0.442c0.072,0.149,0.11,0.297,0.11,0.442c0-0.145-0.221,0-0.663,0.442
		c0,0.148,0.034,0.297,0.11,0.442c0.072,0.149,0.11,0.297,0.11,0.442c-0.148,0.297-0.297,0.48-0.441,0.553
		c-0.149,0.076-0.298,0.187-0.442,0.332v1.106v0.442h-0.442l-0.663,2.433l-0.664,0.442v0.664l-0.663,0.884l-0.442,1.327
		c-0.148,0.149-0.297,0.187-0.442,0.111c-0.148-0.073-0.221-0.035-0.221,0.11v0.442v0.221l-0.442,0.663
		c-0.148,0.442-0.663,1.327-1.548,2.653s-2.028,2.802-3.427,4.422c-1.403,1.621-2.985,3.13-4.754,4.533
		c-1.77,1.399-3.538,2.322-5.308,2.764v-0.221c-0.148,0.145-0.297,0.221-0.441,0.221c-0.148,0-0.298,0.072-0.442,0.221h0.221
		c-0.591,0.293-0.96,0.442-1.105,0.442h-0.221c-0.298,0-0.48,0.035-0.553,0.111c-0.076,0.072-0.187,0.11-0.332,0.11
		c-0.591,0-1.033-0.038-1.327-0.11c-0.297-0.076-0.59-0.111-0.884-0.111h-0.663l0.221-0.221c-0.297,0-0.519-0.038-0.663-0.111
		c-0.148-0.076-0.298-0.11-0.442-0.11l-0.222-0.221h-0.221l0.221,0.442c-0.739,0-1.402-0.221-1.989-0.664v0.221h-0.222
		c-0.591-0.442-0.96-0.812-1.105-1.105c-0.148-0.297-0.369-0.591-0.663-0.885v0.221c0.294,0.145,0.221,0.035-0.222-0.332
		c-0.441-0.37-0.884-0.922-1.326-1.658c-2.211-3.538-3.721-6.965-4.533-10.282c-0.809-3.316-1.216-6.816-1.216-10.503
		c0-9.432,1.182-17.651,3.538-24.654c2.355-7,4.975-12.787,7.85-17.357c2.874-4.567,5.6-7.96,8.181-10.171
		c2.577-2.211,4.091-3.317,4.533-3.317c0.735,0,1.251,0.148,1.548,0.442c0.442,0,1.288,0.259,2.543,0.774
		c1.25,0.518,2.542,1.548,3.869,3.095c1.327,1.548,2.505,3.687,3.538,6.413c1.029,2.729,1.548,6.302,1.548,10.724
		c0,2.508-0.591,5.162-1.77,7.96c-1.182,2.802-2.729,5.455-4.644,7.96c-1.917,2.508-4.09,4.72-6.522,6.634
		c-2.433,1.917-4.83,3.171-7.187,3.759h0.222c-1.182,0.591-2.066,0.96-2.653,1.105l-0.222,0.221h-0.442v0.221l-0.221-0.221
		l-1.548,0.664l-0.442,0.221v-0.221l-0.442,0.221l-0.441-0.221l0.221,0.221c-0.442,0-0.812,0.442-1.105,1.327
		c-0.297,0.885-0.519,1.917-0.663,3.096c-0.148,1.182-0.222,2.398-0.222,3.648c0,1.254,0,2.177,0,2.764
		c0,0.884,0.11,2.028,0.332,3.427c0.221,1.402,0.553,2.84,0.995,4.312c0.442,1.475,0.995,2.729,1.658,3.759
		c0.663,1.033,1.438,1.548,2.321,1.548c2.212,0,4.457-0.808,6.744-2.432c2.284-1.62,4.236-3.241,5.859-4.864l1.77-1.99l1.105-1.105
		l0.442-0.885l0.441-0.442l0.442-0.885l0.664-0.884l0.221-0.664c0.294-0.736,0.625-1.472,0.995-2.211
		c0.366-0.736,0.698-1.399,0.995-1.99l-0.222,0.442v0.442l0.222,0.884l0.221-0.221l0.663-1.105v-0.442l-0.663-0.442l0.222-0.442
		c0.145-0.442,0.293-0.663,0.441-0.663v0.442v-0.221l0.222-0.442v0.221l0.221-0.442v0.884l-0.221-0.221
		c-0.148,0-0.222,0.149-0.222,0.442v0.221v-0.221c0.146,0,0.222,0.148,0.222,0.442l0.221-0.221l-0.221,0.663h-0.222v0.442
		l0.442-1.105l0.664-0.442l0.221-0.884c0.294-0.587,0.587-1.03,0.885-1.327l0.442-0.442h-0.222l0.222-0.442l0.441-0.221
		c0.885,0,1.327,0.297,1.327,0.884c0,0.148-0.11,0.408-0.332,0.774C383.784,202.254,383.525,202.585,383.231,202.879z
		 M358.908,183.863c-0.441,1.624-0.922,3.317-1.437,5.086c-0.519,1.769-0.995,3.686-1.438,5.749l0.221,0.221v-0.442l1.327-0.885
		c3.831-2.356,7.075-5.562,9.729-9.618c2.654-4.053,3.98-8.879,3.98-14.483c0-3.24-0.591-5.821-1.769-7.739
		c-1.327,1.624-2.913,4.167-4.754,7.628C362.923,172.846,360.972,177.672,358.908,183.863z"/>
	<path d="M445.581,156.887c1.178,1.033,1.88,2.101,2.101,3.207c0.221,1.105,0.332,1.879,0.332,2.322
		c-0.149,3.835-0.702,7.334-1.659,10.503c-0.96,3.171-1.807,6.229-2.542,9.176c-2.066,7.518-3.538,14.3-4.423,20.342
		c-0.885,6.046-1.326,10.834-1.326,14.373c0,2.508,0.145,4.128,0.441,4.864c0.294,0.739,0.442,1.182,0.442,1.327
		c0-0.145-0.11,0.038-0.331,0.553c-0.222,0.515-0.629,1.14-1.217,1.88c-0.591,0.736-1.292,1.399-2.101,1.99
		c-0.812,0.587-1.807,0.885-2.984,0.885c-1.624,0-2.84-1.327-3.648-3.98c-0.812-2.653-1.217-5.821-1.217-9.508
		c0-3.98,0.626-9.508,1.88-16.583c1.251-7.076,3.572-15.844,6.965-26.312c0-0.145,0.035-0.256,0.11-0.332
		c0.073-0.072,0.111-0.183,0.111-0.332c-2.951,3.244-5.307,6.523-7.076,9.84c-1.769,3.316-3.687,6.671-5.749,10.061l-0.442,0.442
		c0,0.148-0.037,0.259-0.11,0.332c-0.076,0.076-0.11,0.187-0.11,0.332l-0.442,0.664v-0.221v0.221v0.442v0.221l-0.663,1.327
		l-0.885,1.99c-0.884,5.604-1.548,10.8-1.99,15.588c-0.441,4.792-0.663,8.44-0.663,10.945c0,1.472,0.072,2.284,0.222,2.432
		c0,0.145-0.222,0.477-0.664,0.995c-0.442,0.515-2.287,0.774-5.527,0.774c-2.799,0-4.236-0.629-4.312-1.879
		c-0.073-1.254-0.111-3.13-0.111-5.639c0-2.356,0.222-5.749,0.664-10.171l-0.442,1.548l-0.222-0.221l0.222,0.442l-1.548,2.875
		l-0.222,0.664v-0.221l-0.221,0.221l0.221,0.221h-0.441l-0.442,0.884l-0.442,0.884l-0.663,0.885l-0.442,0.221h0.221
		c-0.884,1.182-1.548,1.917-1.99,2.211v-0.221l0.442-0.221l-0.221-0.663l-0.222-0.221l0.222-0.221c0-0.145-0.072-0.221-0.222-0.221
		l0.222-0.221l0.663-1.105l0.222,0.221v-0.221c0-0.293,0.075-0.625,0.221-0.995c0.148-0.366,0.369-0.625,0.663-0.773l0.885-1.99
		v0.221c0-0.145,0.038-0.183,0.11-0.111c0.076,0.076,0.11,0.038,0.11-0.11c0.148,0,0.076-0.145-0.221-0.442
		c0.297-0.293,0.442-0.587,0.442-0.884c-0.294,0.297-0.442,0.518-0.442,0.663l-0.442,0.885l-0.885,1.327l-0.663,0.884l-0.663,0.885
		l-0.885,1.327l-0.663,0.884l-0.442,0.442l-0.663,0.884l-0.663,0.664c-0.442,0.442-0.736,0.663-0.885,0.663h-0.222h0.222
		l-0.222,0.221c-0.587,0-0.884-0.366-0.884-1.105c0.148,0,0.297-0.073,0.442-0.221c0.148-0.145,0.221-0.366,0.221-0.664l0.442-0.221
		l0.442-0.664v-0.884h0.442l0.441-1.327l0.222-0.664l0.442-1.105l0.663-0.442l-0.222-0.221l0.664-1.769
		c1.624-3.241,3.244-7.187,4.864-11.83c1.624-4.644,3.206-9.432,4.754-14.373c1.548-4.937,3.02-9.802,4.422-14.594
		c1.399-4.789,2.765-8.955,4.091-12.493c0.736-3.096,1.179-5.562,1.327-7.408c0.145-1.841,1.25-2.764,3.316-2.764
		c2.947,0,5.048,0.518,6.302,1.548c1.251,1.033,1.88,1.769,1.88,2.211c0,1.327-0.519,3.317-1.548,5.97
		c-1.033,2.653-2.433,6.931-4.201,12.825c0.442-0.736,0.884-1.438,1.326-2.101c0.442-0.664,0.885-1.361,1.327-2.101
		c0.587-0.736,1.288-1.804,2.101-3.206c0.809-1.399,1.73-2.764,2.764-4.091c1.029-1.327,2.173-2.467,3.428-3.427
		c1.25-0.957,2.688-1.438,4.312-1.438C442.706,155.561,443.957,156.003,445.581,156.887z M406.223,213.935v-0.221l-0.221,0.221
		l0.221,0.442l0.221-0.442H406.223z M406.223,211.282l0.221-0.221h-0.221V211.282z"/>
	<path d="M494.447,184.306c-0.297,2.066-1.585,4.277-3.869,6.633c-2.287,2.36-5.124,3.759-8.513,4.201
		c-0.739,1.624-1.88,4.533-3.428,8.734s-3.503,8.219-5.859,12.051l-0.221,0.442l-0.222,0.442l-0.221,0.221v0.221v0.221v0.221
		l-0.442,0.442v0.442l-0.221,0.221l-1.105,1.769h0.221c-0.297,0.591-0.629,1.144-0.995,1.658c-0.369,0.519-0.773,0.995-1.216,1.438
		l-0.442,0.442l-0.222,0.442v0.221l-1.105,0.884l-0.663,0.885l-0.885,0.884l-0.663,0.221h0.222
		c-0.591,0.293-1.144,0.625-1.659,0.995c-0.518,0.366-0.922,0.698-1.216,0.995l0.222-0.221l0.221-0.221l0.221-0.884l-0.221,0.221
		l0.221-0.442l-0.221,0.221v-0.221l-0.221,0.221l-0.222,0.221l-0.442,0.221v0.664v0.663c-0.148,0.145-0.297,0.221-0.442,0.221
		h-0.221l0.442-0.221l-0.442,0.221v-0.221v0.221h-0.221h-0.222l0.222-0.663c0.145,0,0.183,0.072,0.11,0.221
		c-0.076,0.146-0.038,0.221,0.11,0.221c0.294,0,0.442-0.148,0.442-0.442l-0.222,0.221l-0.221-0.221l0.221-0.221h-0.221l0.442-0.221
		h-0.222c0.146,0.145,0.184,0.145,0.111,0c-0.076-0.148,0.034-0.221,0.331-0.221v-0.221c0.294,0-0.038,0.294-0.995,0.885
		c-0.96,0.587-1.879,0.884-2.764,0.884h-0.663c-0.297,0.145-0.663,0.221-1.105,0.221c-3.096,0-5.383-1.182-6.854-3.538
		c-1.472-2.359-2.543-4.937-3.206-7.739c-0.664-2.798-0.995-5.341-0.995-7.628c0-2.284,0-3.352,0-3.206
		c0-7.221,0.739-14.224,2.211-21.006c1.472-6.779,3.24-12.825,5.307-18.132c2.062-5.307,4.125-9.691,6.191-13.156
		c2.062-3.461,3.683-5.562,4.864-6.302h-0.221c0-0.145,0.366-0.366,1.105-0.663c0.735-0.294,1.472-0.442,2.211-0.442
		c1.178,0,2.283,1.105,3.316,3.317c0.294-0.294,0.774-0.698,1.438-1.216c0.663-0.515,1.51-0.774,2.543-0.774
		c4.567,0,7.739,2.287,9.508,6.854c1.769,4.571,2.653,10.393,2.653,17.468c0,4.128-0.519,8.479-1.548,13.046
		c0.885-0.294,1.769-0.664,2.653-1.106c0.885-0.442,1.548-1.105,1.99-1.99h0.221v-0.664v0.221l0.222-0.221l-0.222-0.221l0.222-0.221
		l0.221-1.548l0.222-0.664l0.441-0.442l-0.221-0.221c0.294-1.178,0.442-2.063,0.442-2.654v0.442l0.663,0.442l0.222,0.221
		c0,0.148,0.034,0.221,0.11,0.221c0.072,0,0.11,0.076,0.11,0.221l-0.221,1.327l0.221-0.884l0.442-1.327
		c0-0.145,0.072-0.183,0.221-0.11c0.146,0.076,0.222-0.035,0.222-0.332v-0.442v-0.221v-0.442l0.441-0.884l-0.221-0.442l0.221-0.884
		c0-0.442,0.073-0.736,0.222-0.885c0-0.145,0.072-0.293,0.221-0.442l-0.221-0.442c0.442-0.442,0.885-0.664,1.326-0.664
		c0.294,0,0.478,0.259,0.553,0.774c0.073,0.519,0.184,1.071,0.332,1.659l-0.221,0.442c0,0.149,0.072,0.221,0.221,0.221l0.222,0.221
		c0,0.148-0.076,0.259-0.222,0.332c-0.148,0.076-0.221,0.259-0.221,0.553c0,0.149,0.072,0.259,0.221,0.332
		c0.146,0.076,0.222,0.259,0.222,0.553l-0.222,0.221l0.222,1.548l-0.222,0.221c-0.148,0-0.221,0.076-0.221,0.221l0.221,0.442
		l-0.221,0.442l0.221,1.105c-0.297,0-0.519,0.076-0.663,0.221c0,0.148,0.072,0.221,0.221,0.221l0.222,0.221L494.447,184.306z
		 M472.336,192.929c-1.917-1.03-3.537-2.395-4.864-4.091c-1.326-1.693-2.397-3.462-3.206-5.307c-0.812-1.841-1.402-3.61-1.769-5.307
		c-0.37-1.693-0.553-2.985-0.553-3.87c-1.327,3.538-2.985,8.7-4.976,15.478c-1.99,6.782-2.985,14.373-2.985,22.775
		c0,1.033,0.035,2.176,0.111,3.427c0.072,1.254,0.255,2.397,0.553,3.427c0.293,1.033,0.663,1.917,1.105,2.653
		c0.442,0.739,1.029,1.105,1.769,1.105c1.029,0,2.101-0.515,3.206-1.548c1.105-1.029,2.174-2.394,3.206-4.09
		c1.03-1.693,2.024-3.538,2.985-5.528c0.957-1.99,1.804-3.942,2.543-5.86v-0.442v0.221l1.326-6.191l0.222-1.105v0.221l0.221-0.442
		h-0.221v-0.442l0.663-1.99l0.221-1.548l0.442-1.106h-0.221h0.221V192.929z M459.732,229.634c0.294-0.297,0.442-0.519,0.442-0.664
		c-0.297,0.293-0.553,0.477-0.773,0.553c-0.222,0.073-0.48,0.183-0.774,0.332h-0.221c-0.442,0-0.812,0.035-1.105,0.111
		c-0.298,0.072-0.664,0.11-1.105,0.11v0.221l0.221,0.221h0.663h0.664l-0.222-0.221h0.442c0.146-0.148,0.294-0.187,0.442-0.11
		c0.145,0.072,0.294,0.034,0.442-0.111l0.221,0.221L459.732,229.634z M465.261,224.77c0.587-0.884,0.957-1.399,1.105-1.548
		c-0.591,0.736-1.254,1.51-1.99,2.322c-0.739,0.809-1.182,1.216-1.326,1.216v0.442l0.663-0.663l0.221,0.221
		c0-0.297,0.184-0.702,0.553-1.216C464.853,225.025,465.112,224.77,465.261,224.77z M465.039,225.875
		c0-0.148-0.148-0.221-0.441-0.221L465.039,225.875z M465.481,224.77h-0.221l0.221,0.221V224.77z M466.146,224.327l0.221-0.663
		c0,0.145-0.038,0.255-0.11,0.332C466.18,224.068,466.146,224.179,466.146,224.327z M467.029,222.779l0.222-0.221L467.029,222.779
		v-0.442c0,0.148-0.148,0.37-0.442,0.663c0.146-0.145,0.222-0.293,0.222-0.442L467.029,222.779z M467.251,222.779
		c0.145,0,0.221-0.072,0.221-0.221L467.251,222.779z M467.472,223l0.221-0.221h-0.221V223z M468.356,223l-0.222-0.221V223h-0.442
		h0.222v0.442l0.221-0.442H468.356z M471.673,200.447l-0.442-0.221l-0.663,0.442l0.885,0.442L471.673,200.447z M475.211,179.22
		c0-5.01-0.222-9.432-0.663-13.267c-0.442-3.832-0.885-5.97-1.327-6.412c-0.442,0-0.773,0.96-0.995,2.875
		c-0.221,1.917-0.332,3.835-0.332,5.749c0,1.182,0.111,3.465,0.332,6.855c0.222,3.393,1.141,6.339,2.764,8.844
		c0.146-0.736,0.222-1.51,0.222-2.322C475.211,180.733,475.211,179.959,475.211,179.22z"/>
	<path d="M519.43,204.869c0.294,0,0.588,0.076,0.885,0.221c0.294,0.148,0.442,0.37,0.442,0.664c0,0.148-0.076,0.259-0.222,0.332
		c-0.148,0.076-0.297,0.259-0.442,0.553c0,0.148,0.035,0.259,0.111,0.332c0.072,0.076,0.11,0.187,0.11,0.332l-0.442,0.221v0.442
		c0,0.148-0.11,0.259-0.332,0.332c-0.221,0.076-0.331,0.259-0.331,0.553c0,0.149,0.034,0.259,0.11,0.332
		c0.072,0.076,0.11,0.187,0.11,0.332h-0.442l0.222,0.442l-0.442,1.105c0,0.148-0.076,0.221-0.222,0.221h-0.221
		c0,0.148,0.034,0.259,0.11,0.332c0.073,0.076,0.11,0.187,0.11,0.332l-0.441,0.442l-0.222,0.884c0,0.149-0.076,0.221-0.221,0.221
		h-0.222c0,0.148,0.073,0.297,0.222,0.442l-0.663,1.99c-0.591,1.182-1.144,2.433-1.659,3.759c-0.518,1.327-1.144,2.802-1.879,4.422
		c-0.297,0.442-0.591,1.105-0.885,1.99c-0.297,0.884-0.739,1.804-1.326,2.764c-0.591,0.957-1.365,1.769-2.322,2.432
		c-0.96,0.663-2.249,0.995-3.869,0.995c-2.211,0-3.797-0.702-4.754-2.101c-0.961-1.403-1.586-2.985-1.88-4.754
		c-0.297-1.769-0.369-3.462-0.221-5.086c0.145-1.62,0.221-2.653,0.221-3.096c0-3.538,0.184-7.148,0.553-10.834
		c0.366-3.683,0.885-7.221,1.548-10.613c0.663-3.389,1.361-6.523,2.101-9.397c0.736-2.875,1.472-5.269,2.211-7.186
		c-1.623-0.736-3.465-2.063-5.527-3.98c-1.918,5.749-3.466,10.579-4.644,14.483c-1.182,3.907-2.581,8.07-4.201,12.493l-0.221,0.221
		l-0.222,0.221h0.222l-0.222,0.221v0.221v0.221l-0.221,0.664h0.221l-0.221,0.221l-0.222,1.327c-0.293,0.884-0.587,1.696-0.884,2.432
		v0.442l-0.222,0.221l0.222,0.221h-0.222l-0.442,0.885l-0.441,0.884h0.221l-0.442,0.442l-0.221,0.221
		c-0.146,0.297-0.294,0.628-0.442,0.995c-0.146,0.37-0.294,0.702-0.442,0.995h-0.221h0.221v-0.442l-0.442-0.664l-0.221,0.221
		l0.221-0.221c0-0.145-0.034-0.221-0.11-0.221c-0.072,0-0.11-0.072-0.11-0.221l0.663-0.884l-0.221-0.221
		c0-0.293-0.035-0.477-0.111-0.553c-0.072-0.073,0.26-0.995,0.995-2.764l0.222,0.221c0-0.145,0.038-0.183,0.11-0.11
		c0.076,0.076,0.11,0.038,0.11-0.11h-0.221v-0.442l-0.442,1.105h-0.442v0.664l-0.442,0.884l-0.663,1.105l-0.442,0.885l-0.221,0.442
		l-0.442,0.885l-0.442,0.663c-0.146,0.297-0.294,0.518-0.442,0.664l-0.221,0.221h0.221l-0.221,0.221l-0.222,0.221
		c-0.587,0-0.884-0.221-0.884-0.663l0.441-0.885l-0.221-0.442l0.442-0.221l-0.222-0.442l0.442-0.442v-0.884l0.222-1.105l0.221-0.664
		l0.222-0.884l0.441-0.442l-0.221-0.221l0.442-1.548c0.739-2.356,1.548-5.196,2.432-8.513c0.885-3.317,1.77-6.744,2.653-10.282
		c0.885-3.538,1.659-7.038,2.322-10.503c0.663-3.462,1.216-6.596,1.658-9.397c-1.326-2.505-2.211-4.899-2.653-7.186
		c-0.442-2.284-0.663-4.236-0.663-5.86c0-1.769,0-2.947,0-3.538c0-0.587,0.957-0.884,2.874-0.884c3.39,0,5.859,0.148,7.407,0.442
		c1.548,0.297,2.578,0.812,3.096,1.548c0.515,0.739,0.736,1.696,0.663,2.875c-0.075,1.182-0.037,2.653,0.111,4.422
		c0.145,1.769,0.625,3.87,1.437,6.302c0.809,2.432,2.322,5.196,4.533,8.292c1.029,0.297,1.914,0.774,2.653,1.438
		c0.736,0.663,1.361,1.327,1.88,1.99c0.515,0.663,1.067,1.437,1.658,2.321c0,0.442-0.148,0.96-0.442,1.548v0.221v0.221v-0.221v0.221
		c0,0.148,0.072,0.221,0.221,0.221l-0.441,0.221l0.221-0.221c0-0.145-0.076-0.221-0.221-0.221c0,1.182-0.591,3.171-1.77,5.97
		c-1.182,2.802-2.211,6.93-3.096,12.382c-0.442,2.95-1.182,6.523-2.211,10.724c-1.033,4.201-1.548,8.292-1.548,12.271
		c0.885-1.178,1.731-2.394,2.543-3.648c0.809-1.251,1.582-2.467,2.321-3.648l0.222-0.442l0.221-0.442v-0.221l0.222-0.221
		l0.663-1.106l0.663-1.327h-0.221l0.442-0.442l0.441-0.442c0.294-0.442,0.554-0.957,0.774-1.548
		c0.221-0.587,0.477-1.029,0.773-1.327v0.221l-0.221,0.442l0.221,0.663l0.442-0.884h0.442l-0.221-0.221l-0.442-0.442l0.221-0.221
		c0.146-0.293,0.294-0.442,0.442-0.442l-0.221,0.221h0.442v-0.442v0.221l0.221-0.221v0.663c-0.148,0-0.187-0.034-0.11-0.11
		c0.072-0.073,0.034-0.11-0.11-0.11c-0.149,0-0.298,0.076-0.442,0.221c0,0.149,0.072,0.221,0.221,0.221v-0.221
		c0.146,0,0.222,0.076,0.222,0.221l0.441-0.884l0.664-0.885l0.663-0.663c0.145-0.145,0.294-0.221,0.442-0.221h-0.222l0.222-0.221
		H519.43z M486.263,209.955h0.221h0.222H486.263z M488.253,207.302h-0.222l0.222,0.442v-0.221V207.302z M488.474,205.533
		l-0.221-0.221v0.221H488.474z M491.569,198.899l0.222-0.442L491.569,198.899z"/>
	<path d="M478.522,140.967c-0.442-0.294-0.885-0.515-1.327-0.664c-0.441-0.145-0.884-0.366-1.326-0.663l0.221,0.221l1.105-0.221
		h-0.221h0.442l-0.222-0.221l0.442,0.221h0.442c0.297,0,0.739,0.11,1.327,0.332c0.591,0.221,1.032,0.408,1.326,0.553h-0.221h0.221
		c1.182,0,2.433,0.148,3.759,0.442c1.327,0.297,2.509,0.518,3.538,0.663h-0.221c0.148,0,0.221,0.038,0.221,0.111
		c0,0.076,0.076,0.11,0.221,0.11l-0.221-0.221h0.442c-3.241-0.587-6.226-1.289-8.955-2.101c-2.727-0.808-4.236-1.879-4.533-3.206
		c-0.145-0.587,0.038-1.029,0.553-1.327c0.519-0.293,0.923-0.587,1.217-0.884h0.221c0,0.148,0.11,0.221,0.332,0.221
		c0.221,0,0.407,0.076,0.553,0.221l0.441,0.442h-0.221c0.442,0.442,1.658,0.739,3.648,0.884c1.99,0.149,4.608,0.221,7.85,0.221
		c5.749,0,12.79-0.221,21.116-0.663c8.33-0.442,16.915-0.957,25.76-1.548c1.62-3.832,2.947-6.889,3.98-9.176
		c1.029-2.284,1.914-4.053,2.653-5.307c0.735-1.251,1.326-2.062,1.769-2.433c0.442-0.366,0.957-0.553,1.548-0.553
		c1.77,0,3.39,0.664,4.864,1.99c1.473,1.327,2.284,2.36,2.433,3.096c0.146,1.033-0.259,2.47-1.216,4.312
		c-0.961,1.845-2.101,4.239-3.428,7.187c4.716-0.294,8.586-0.477,11.608-0.553c3.02-0.072,6.302-0.11,9.84-0.11
		c2.505,0,5.048,0.038,7.629,0.11c2.577,0.076,4.975,0.259,7.186,0.553c2.211,0.297,4.125,0.701,5.749,1.216
		c1.62,0.519,2.799,1.144,3.538,1.879l-0.442,0.442l0.663-0.442c0.146,0.149,0.222,0.37,0.222,0.664
		c0.442,0.739,0,1.254-1.327,1.548c-0.739-0.294-1.624-0.515-2.653-0.664c-1.033-0.145-2.287-0.221-3.759-0.221
		c-2.653,0-5.749,0.221-9.287,0.664l1.327-0.221l-0.442,0.221h0.442h0.221l0.442-0.221v0.221h3.096l0.221,0.221l0.664-0.221h2.211
		c1.178,0.148,2.467,0.332,3.869,0.553c1.399,0.221,2.322,0.408,2.765,0.553h-0.885h0.221h-0.221h-0.663l-0.442,0.221l-1.327,0.221
		l0.442-0.221h-0.663c-0.148,0.148-0.37,0.297-0.663,0.442v-0.221c-0.298,0-0.442,0.038-0.442,0.11c0,0.076-0.148,0.111-0.442,0.111
		l-1.99-0.221l-0.221-0.885l-1.105,0.664l-0.222,0.442h-1.769l0.221-0.221h0.442l0.442-0.221l0.442-0.884l-1.327,0.442l-0.884,0.221
		l-0.222,0.221c-0.442,0-0.739,0.148-0.885,0.442h-0.884l0.221-0.221l0.222-0.664h-1.106l-1.105-0.442l0.222,1.105l0.221,0.221
		h0.222h-0.664l0.222-0.221l-0.222,0.221l-0.221-0.221l0.221,0.221c0-0.146-0.369-0.111-1.105,0.11
		c-0.739,0.221-1.326,0.332-1.769,0.332c-0.297,0-0.553-0.034-0.774-0.11c-0.221-0.073-0.407-0.111-0.553-0.111l-0.221-0.442
		l0.442,0.221c0,0.148,0.072,0.221,0.221,0.221h0.442h0.442l-0.222-0.221l0.664-0.442l-0.222-0.221l-0.442-0.221l-0.441,0.221
		l-0.885,0.221l-0.221-0.221h-0.885l0.885-0.221h0.441l0.442-0.442c-0.297,0-0.591,0.038-0.884,0.11
		c-0.298,0.076-0.591,0.11-0.885,0.11l-0.442,0.885c0,0.148,0.072,0.221,0.221,0.221l0.442,0.221h-2.211
		c-0.739,0.297-1.476,0.408-2.211,0.332c-0.739-0.073-1.476,0.038-2.211,0.332l-0.222-0.221c-0.739,0.297-1.513,0.408-2.321,0.332
		c-0.812-0.072-1.586-0.034-2.322,0.111v-0.221c-2.95,0.591-5.859,1.182-8.733,1.769c-2.875,0.591-5.566,1.105-8.071,1.548
		c-0.739,1.769-2.027,5.234-3.869,10.392c-1.845,5.162-3.687,11.094-5.528,17.8c-1.845,6.709-3.465,13.747-4.864,21.116
		c-1.402,7.373-2.101,14.228-2.101,20.564c0,1.475,0.222,2.985,0.663,4.533c0.442,1.548,0.809,3.061,1.106,4.533v0.221L529.6,223
		v0.221c0.146,0.148,0.366,0.221,0.663,0.221c2.356,0,4.754-1.327,7.187-3.98s4.235-5.379,5.417-8.181
		c-0.148-0.442-0.075-0.809,0.222-1.106v-0.442l0.221-0.221c-0.148-0.145-0.221-0.183-0.221-0.11c0,0.076-0.076,0.038-0.222-0.111
		l0.664-0.884v-1.105l0.221-0.442l0.442-0.221h-0.221c0.145-0.442,0.293-0.847,0.441-1.216c0.146-0.366,0.222-0.698,0.222-0.995
		l0.442,0.221l-0.222,0.221l0.442,0.664l0.442-0.442l0.221-0.663v-0.442l0.222-0.221l0.442-0.884l-0.222-0.221l0.442-0.664
		c0-0.145,0.146-0.366,0.442-0.663l0.221-0.221l-0.221-0.221h0.221c0.885,0,1.472,0.148,1.77,0.442l-0.442,0.884
		c0,0.148,0.072,0.221,0.221,0.221l0.222,0.221c0,0.148-0.076,0.221-0.222,0.221h-0.221l0.442,0.442
		c0,0.149-0.076,0.221-0.222,0.221c-0.148,0-0.221,0.076-0.221,0.221c0,0.148,0.034,0.259,0.11,0.332
		c0.072,0.076,0.11,0.187,0.11,0.332v0.221l-0.221,1.106c0.145,0.297,0.145,0.408,0,0.332c-0.148-0.073-0.148-0.035,0,0.11
		l0.221,0.221l-0.221,0.442v0.663c-0.297,0-0.442,0.076-0.442,0.221l0.442,0.221v1.548c-0.297,1.182-0.739,3.061-1.327,5.638
		c-0.591,2.581-1.548,5.196-2.874,7.85c-1.327,2.653-3.062,4.975-5.196,6.965c-2.139,1.99-4.83,2.985-8.07,2.985
		c-2.654,0-4.903-0.629-6.744-1.879c-1.846-1.254-3.317-2.875-4.423-4.864c-1.105-1.99-1.879-4.274-2.321-6.855
		c-0.442-2.577-0.588-5.196-0.442-7.849c0.297-7.518,0.995-14.594,2.101-21.227c1.105-6.634,2.395-12.787,3.869-18.463
		c1.472-5.673,2.947-10.724,4.423-15.146c1.472-4.422,2.798-8.105,3.979-11.056c-0.591,0.148-1.623,0.221-3.096,0.221
		c-3.393,0-7.59-0.293-12.604-0.884c-5.009-0.587-10.022-0.884-15.035-0.884l-0.663-0.221h-0.442h-0.222l-0.442-0.221
		c0,0.148-0.293,0.221-0.884,0.221h-0.885h-0.885l-2.432-0.221l-0.442,0.221c-0.885,0-1.804-0.035-2.764-0.111
		c-0.957-0.072-1.952-0.183-2.985-0.332h-0.221h-1.106l0.222-0.221h-0.442v0.221h-0.442l-1.769-0.663h-0.885L478.522,140.967z
		 M481.839,140.967v-0.221h-0.221L481.839,140.967z M485.156,142.073l-0.222-0.221v0.221H485.156z M488.915,142.515h-0.222h-0.442
		l-0.221,0.442h0.663l0.222-0.221V142.515z M492.895,142.515c0,0.148,0.076,0.148,0.222,0H492.895z M568.737,139.641h0.442
		l0.441-0.442c-0.148,0.148-0.441,0.221-0.884,0.221V139.641z M581.119,138.977v0.221l0.222-0.221H581.119z M581.341,138.314h0.221
		h0.222h-0.222H581.341z"/>
	<path d="M591.51,154.897c0.146,0.297,0.221,0.812,0.221,1.548c0,0.884-0.148,1.845-0.441,2.875
		c-0.298,1.033-0.591,1.99-0.885,2.875c-3.393,11.056-6.229,20.491-8.513,28.303c-2.287,7.815-3.428,14.814-3.428,21.006
		c0,2.802,0.146,4.975,0.442,6.522c0.294,1.548,0.587,2.729,0.885,3.538c0.293,0.812,0.587,1.403,0.884,1.769
		c0.294,0.366,0.442,0.625,0.442,0.774c0,0.293-0.259,1.067-0.773,2.321c-0.519,1.251-1.586,2.467-3.206,3.648
		c0.145,0,0.221,0.073,0.221,0.221l-0.221-0.221c-0.298,0-0.591,0.073-0.885,0.221c-0.297,0.145-0.591,0.221-0.885,0.221
		c-1.769,0-3.503-1.769-5.196-5.307c-1.696-3.538-2.542-8.105-2.542-13.709c0-3.241,0.331-7,0.994-11.277
		c0.664-4.274,1.804-9.211,3.428-14.815c0.885-3.389,2.101-6.778,3.648-10.171c1.548-3.389,2.985-7.369,4.312-11.94
		c-3.393,2.951-6.34,6.081-8.845,9.397c-2.508,3.316-5.013,6.82-7.518,10.503l-0.442,0.663l-0.221,0.442v0.221l-0.664,0.663v-0.221
		v0.221c0,0.149-0.037,0.259-0.11,0.332c-0.076,0.076-0.11,0.187-0.11,0.332l-0.442,1.105l-0.221,0.442l-0.442,0.221h0.221
		l-0.221,0.221l-1.105,2.433l-0.222,0.442c-0.441,1.033-0.922,1.99-1.437,2.875c-0.519,0.885-0.923,1.845-1.217,2.875l-0.221,0.221
		l-0.222,1.105l-0.221,0.221v0.221v0.221l-0.442,0.221l-0.663,1.99l-0.442,1.548l-0.442,0.885l0.222,0.221h-0.222l-0.663,1.769
		c-0.148,0.739-0.332,1.548-0.553,2.432c-0.221,0.885-0.408,1.697-0.553,2.433v-0.442l-0.442-1.105v0.221v-0.442l-0.221,0.221
		v-0.442c0,0.739-0.038,1.182-0.111,1.327c-0.075,0.148-0.11,0.37-0.11,0.664c-0.739,4.277-1.144,7.739-1.216,10.392
		c-0.076,2.653-0.222,4.678-0.442,6.081c-0.221,1.399-0.663,2.322-1.326,2.764c-0.664,0.442-1.956,0.663-3.87,0.663
		c-0.294,0.146-0.442,0.366-0.442,0.664c0,0.293-0.072,0.515-0.221,0.663v-0.442l0.221-0.664l-0.221-0.221
		c-0.146-0.148-0.366-0.221-0.663-0.221c-2.505-0.149-3.76-1.548-3.76-4.201c0-1.769,0.076-3.87,0.222-6.302
		c0.148-2.433,0.48-5.601,0.995-9.508c0.518-3.904,1.292-8.658,2.321-14.262c1.033-5.601,2.433-12.455,4.201-20.563
		c0.294-0.736,0.477-1.472,0.553-2.211c0.073-0.736,0.256-1.472,0.553-2.211l-0.221-0.221c2.062-8.105,4.201-16.031,6.412-23.77
		c2.211-7.739,4.273-14.628,6.191-20.674c1.914-6.043,3.572-11.056,4.975-15.036c1.399-3.98,2.246-6.412,2.543-7.296
		c0.146-0.294,0.366-0.664,0.663-1.106c0.294-0.293,0.626-0.553,0.995-0.773c0.366-0.221,0.919-0.332,1.659-0.332
		c2.211,0,3.831,0.553,4.864,1.659c1.029,1.105,1.548,2.028,1.548,2.764c0,0.148-0.038,0.297-0.11,0.442
		c-0.076,0.148-0.111,0.37-0.111,0.663c-0.297,1.182-1.032,3.687-2.211,7.518c-1.182,3.835-2.619,8.44-4.312,13.82
		c-1.696,5.382-3.538,11.387-5.528,18.021c-1.989,6.633-3.869,13.343-5.638,20.122c-0.148,0.148-0.222,0.442-0.222,0.884
		c-0.739,2.653-1.364,5.234-1.879,7.739c-0.519,2.508-1.071,5.013-1.659,7.518c1.327-2.356,3.096-5.341,5.308-8.955
		c2.211-3.61,4.643-7.076,7.296-10.392c2.654-3.317,5.342-6.191,8.071-8.624c2.726-2.432,5.196-3.648,7.407-3.648
		c0.885,0,1.88,0.297,2.985,0.884C588.746,152.171,590.034,153.277,591.51,154.897z M552.151,207.965v-0.442
		c-0.148,0.149-0.221,0.297-0.221,0.442H552.151z M555.247,196.025c0-0.146,0.034-0.183,0.11-0.111
		c0.072,0.076,0.184-0.035,0.332-0.332l-0.222,0.221v-0.221c0-0.587,0.146-1.03,0.442-1.327l-0.663,0.663l-1.327,2.875l-0.221,1.548
		l-0.442,0.221c-0.148,1.033-0.259,1.99-0.331,2.875c-0.076,0.884-0.26,1.769-0.554,2.653c0.146-0.145,0.222-0.366,0.222-0.663
		h0.221v-0.442c0-1.03,0.294-2.432,0.885-4.201c0.587-1.769,1.105-3.096,1.548-3.98V196.025z M553.036,203.101v-0.442v0.221V203.101
		z M553.257,201.995h0.222h0.221H553.257z M553.92,200.226h-0.221l0.221,0.221V200.226z M554.584,198.899v-1.106v0.221V198.899z
		 M555.689,195.583c0.145,0,0.221-0.073,0.221-0.221L555.689,195.583z M555.91,194.256c0.146-0.294,0.222-0.515,0.222-0.664
		c0-0.145,0.072-0.366,0.221-0.663h-0.221L555.91,194.256z M556.132,195.804h-0.222v0.221L556.132,195.804z M556.795,195.361h-0.222
		H556.795h-0.222l-0.221,0.442l0.221,0.442l0.222-0.442V195.361z M558.121,191.16l0.222-0.442l-0.222,0.221V191.16z
		 M559.228,188.507l-0.222,0.221h0.222V188.507z M568.514,175.019c-0.148,0.297-0.259,0.48-0.331,0.553
		c-0.076,0.076-0.187,0.259-0.332,0.553l0.442-0.664L568.514,175.019z"/>
</g>
</svg>
