<?xml version="1.0" encoding="utf-8"?>
<!-- Generator: Adobe Illustrator 19.1.0, SVG Export Plug-In . SVG Version: 6.00 Build 0)  -->
<svg version="1.1" id="Layer_1" xmlns="http://www.w3.org/2000/svg" xmlns:xlink="http://www.w3.org/1999/xlink" x="0px" y="0px"
	 viewBox="-425 325.206 155.784 143.794" enable-background="new -425 325.206 155.784 143.794" xml:space="preserve">
<g>
	<g>
		<path fill="#FFFFFF" d="M-379.957,435.704c-1.314,0-2.378-1.064-2.378-2.378v-64.628c0-6.261-5.16-11.165-11.75-11.165
			c-1.314,0-2.378-1.064-2.378-2.378s1.064-2.378,2.378-2.378c9.256,0,16.505,6.995,16.505,15.92v64.629
			C-377.579,434.641-378.643,435.704-379.957,435.704z"/>
		<path fill="#FFFFFF" d="M-351.423,435.704c-1.314,0-2.378-1.064-2.378-2.378v-64.628c0-6.32-5.331-11.462-11.889-11.462
			c-6.558,0-11.889,5.095-11.889,11.355v64.736c0,1.314-1.064,2.378-2.378,2.378s-2.378-1.064-2.378-2.378v-64.737
			c0-8.884,7.468-16.111,16.645-16.111c9.177,0,16.645,7.277,16.645,16.218v64.629
			C-349.045,434.641-350.108,435.704-351.423,435.704z"/>
		<path fill="#FFFFFF" d="M-322.889,435.704c-1.314,0-2.378-1.064-2.378-2.378v-64.628c0-6.32-5.331-11.462-11.889-11.462
			s-11.889,5.095-11.889,11.355v64.736c0,1.314-1.064,2.378-2.378,2.378s-2.378-1.064-2.378-2.378v-64.737
			c0-8.884,7.468-16.111,16.645-16.111s16.645,7.277,16.645,16.218v64.629C-320.511,434.641-321.574,435.704-322.889,435.704z"/>
		<path fill="#FFFFFF" d="M-301.488,452.349h-9.289c-8.532,0-14.49-6.845-14.49-16.645V419.06c0-1.314,1.064-2.378,2.378-2.378
			s2.378,1.064,2.378,2.378v16.645c0,5.916,3.01,11.889,9.734,11.889h9.289c1.314,0,2.378,1.064,2.378,2.378
			C-299.11,451.285-300.174,452.349-301.488,452.349z"/>
		<path fill="#FFFFFF" d="M-307.563,464.043c-0.437,0-0.878-0.121-1.277-0.371c-1.105-0.706-1.435-2.173-0.729-3.284l6.618-10.417
			l-6.618-10.408c-0.706-1.11-0.376-2.578,0.729-3.283c1.101-0.71,2.573-0.376,3.283,0.729l7.431,11.685
			c0.497,0.78,0.497,1.775,0,2.555l-7.431,11.694C-306.007,463.654-306.778,464.043-307.563,464.043z"/>
	</g>
</g>
</svg>
