<?xml version="1.0" encoding="utf-8"?>
<!-- Generator: Adobe Illustrator 19.1.0, SVG Export Plug-In . SVG Version: 6.00 Build 0)  -->
<svg version="1.1" id="Layer_1" xmlns="http://www.w3.org/2000/svg" xmlns:xlink="http://www.w3.org/1999/xlink" x="0px" y="0px"
	 viewBox="0 0 155.784 143.794" enable-background="new 0 0 155.784 143.794" xml:space="preserve">
<g>
	<g>
		<path fill="#FFFFFF" d="M64.902,116.261c-11.414,0-23.023-3.268-34.51-9.721c-0.965-0.542-1.415-1.693-1.074-2.749
			c0.342-1.051,1.338-1.698,2.485-1.597c8.633,1.006,17.753-1.047,24.584-5.06c-7.9-1.857-14.285-6.986-17.653-14.436
			c-0.377-0.833-0.232-1.811,0.373-2.498c0.596-0.687,1.556-0.96,2.43-0.692c0.997,0.309,2.011,0.523,2.995,0.642
			c-5.994-3.577-12.415-10.431-12.415-20.693c0-0.901,0.519-1.72,1.329-2.102c0.815-0.391,1.775-0.273,2.471,0.295
			c0.747,0.61,1.548,1.12,2.371,1.52c-1.715-2.325-3.204-5.211-4.05-8.469c-1.552-5.98-0.655-12.032,2.594-17.507
			c0.387-0.66,1.079-1.083,1.839-1.138c0.746-0.082,1.501,0.269,1.984,0.87c6.858,8.569,19.045,18.922,38.646,20.816
			c-0.359-6.203,1.502-16.37,10.067-21.371c10.462-6.116,20.724-5.315,29.38,2.271c3.86-0.86,9.953-3.504,11.214-4.387
			c0.81-0.564,1.871-0.56,2.671-0.005c0.801,0.56,1.17,1.561,0.919,2.508c-0.583,2.198-1.898,4.637-3.541,6.822
			c1.302-0.387,2.394-0.778,2.976-1.078c0.938-0.478,2.07-0.278,2.79,0.496c0.71,0.778,0.81,1.93,0.251,2.822
			c-2.744,4.333-7.172,8.369-10.135,10.553c1.188,14.545-4.696,30.555-15.91,43.12c-11.96,13.394-27.965,20.771-45.072,20.771
			H64.902z M41.542,106.782c7.836,3.204,15.659,4.819,23.36,4.819c0,0,0.004,0,0.009,0c15.76,0,30.532-6.827,41.595-19.214
			c10.704-11.991,16.169-27.269,14.622-40.876c-0.096-0.874,0.3-1.729,1.037-2.212c1.252-0.823,3.167-2.339,5.097-4.214
			c-1.907,0.414-3.786,0.751-5.083,0.692c-1.115,0-2.075-0.792-2.289-1.889c-0.21-1.097,0.387-2.194,1.429-2.608
			c1.315-0.523,3.095-2.111,4.633-4.059c-2.635,1.02-5.488,1.925-7.582,2.226c-0.724,0.068-1.411-0.128-1.93-0.61
			c-7.354-6.913-15.71-7.705-24.725-2.444c-8.133,4.751-8.315,15.833-7.459,19.328c0.178,0.719,0.005,1.474-0.469,2.043
			c-0.464,0.564-1.193,0.96-1.916,0.837c-20.839-1.097-34.368-10.931-42.51-19.997c-1.666,4.342-1.315,8.228-0.614,10.922
			c1.37,5.279,4.819,9.329,7.44,10.858c0.837,0.487,1.283,1.438,1.124,2.394c-0.159,0.956-0.892,1.711-1.843,1.902
			c-2.658,0.528-5.52,0.209-8.164-0.851c2.434,9.712,12.533,14.285,15.373,14.599c0.928,0.105,1.702,0.747,1.975,1.639
			c0.269,0.887-0.014,1.857-0.728,2.457c-2.012,1.707-5.002,2.567-8.519,2.371c3.895,5.193,9.934,8.178,17.152,8.337
			c0.956,0.023,1.802,0.624,2.134,1.52c0.332,0.897,0.082,1.907-0.628,2.544C58.472,102.313,50.175,105.753,41.542,106.782z"/>
	</g>
</g>
</svg>
