<?xml version="1.0" encoding="utf-8"?>
<!-- Generator: Adobe Illustrator 19.1.0, SVG Export Plug-In . SVG Version: 6.00 Build 0)  -->
<svg version="1.1" id="Layer_1" xmlns="http://www.w3.org/2000/svg" xmlns:xlink="http://www.w3.org/1999/xlink" x="0px" y="0px"
	 viewBox="0 0 425 250" enable-background="new 0 0 425 250" xml:space="preserve">
<rect x="-33" y="-17" fill="#FFFFFF" width="501" height="272"/>
<g>
	<g>
		<g>
			<g>
				<path fill="#90D4D3" d="M302.15,96.037h-35.5l13.3,28c0.4,0.8,0.4,1.8,0,2.6l-13,27.4h35.2c16,0,29-13,29-29
					S318.15,96.037,302.15,96.037z M301.75,137.137c-6.7,0-12.1-5.4-12.1-12.1c0-6.7,5.4-12.1,12.1-12.1c6.7,0,12.1,5.4,12.1,12.1
					C313.85,131.737,308.35,137.137,301.75,137.137z"/>
			</g>
		</g>
		<g>
			<path d="M301.75,112.837c-6.7,0-12.1,5.4-12.1,12.1c0,6.7,5.4,12.1,12.1,12.1c6.7,0,12.1-5.4,12.1-12.1
				C313.85,118.237,308.35,112.837,301.75,112.837z M301.75,132.137c-3.9,0-7.1-3.2-7.1-7.1c0-3.9,3.2-7.1,7.1-7.1s7.1,3.2,7.1,7.1
				C308.85,128.937,305.65,132.137,301.75,132.137z"/>
		</g>
		<g>
			<g>
				<polyline fill="#FED141" points="261.95,157.037 232.55,228.337 211.95,217.037 222.55,157.037 				"/>
			</g>
			<g>
				<path d="M232.55,231.337c-0.5,0-1-0.1-1.4-0.4l-20.7-11.3c-1.1-0.6-1.7-1.9-1.5-3.2l10.7-60l5.9,1l-10.3,57.9l15.8,8.7
					l28.1-68.2l5.5,2.3l-29.3,71.3c-0.3,0.8-1,1.4-1.8,1.7C233.25,231.237,232.95,231.337,232.55,231.337z"/>
			</g>
		</g>
		<g>
			<g>
				<polyline fill="#FED141" points="261.95,93.037 232.55,21.637 211.95,33.037 222.55,93.037 				"/>
			</g>
			<g>
				<path d="M259.15,94.137l-28.1-68.2l-15.8,8.7l10.3,57.9l-5.9,1l-10.7-60c-0.2-1.3,0.4-2.5,1.5-3.2l20.7-11.3
					c0.7-0.4,1.6-0.5,2.4-0.2s1.5,0.9,1.8,1.7l29.3,71.3L259.15,94.137z"/>
			</g>
		</g>
		<g>
			<g>
				<path d="M262.25,160.037L262.25,160.037L262.25,160.037z"/>
			</g>
		</g>
		<g>
			<g>
				<path fill="none" d="M264.85,106.137l-4.8-10.1h-94.8c-16,0-29,13-29,29s13,29,29,29h95.1l4.5-9.4V106.137z"/>
			</g>
		</g>
		<g>
			<path d="M302.15,90.037h-37.3h-99.6c-6.1,0-11.8,1.6-16.8,4.3c-11.3,5.7-19,17.5-19,31c0,19.1,15.4,34.7,34.2,34.7
				c0.3,0,0.5,0,0.8,0s0.5,0,0.8,0h97l0,0h2.6h37.3c19.3,0,35-15.7,35-35S321.45,90.037,302.15,90.037z M264.95,92.337
				c0-0.1-0.1-0.1-0.1-0.2l0,0C264.85,92.237,264.95,92.237,264.95,92.337z M164.45,153.937c-15.6-0.4-28.2-13.3-28.2-29
				c0-11,6.1-20.5,15.1-25.5c3.7-1.8,7.9-2.9,12.3-2.9c15.6,0,28.2,12.9,28.2,28.7C191.95,140.837,179.65,153.537,164.45,153.937z
				 M260.35,154.037h-77.4c9.1-6.2,15-16.8,15-28.7c0-12.3-6.4-23.2-16-29.3h78.1l4.8,10.1l9.1,19.2l-9.1,19.2L260.35,154.037z
				 M264.85,158.537L264.85,158.537c0-0.1,0.1-0.1,0.1-0.2C264.95,158.437,264.85,158.437,264.85,158.537z M302.15,154.037h-35.2
				l13-27.4c0.4-0.8,0.4-1.8,0-2.6l-13.3-28l0,0l-1.3-2.7l1.3,2.7h35.5c16,0,29,13,29,29S318.15,154.037,302.15,154.037z"/>
		</g>
	</g>
	<g>
		<path d="M63.25,183.237c-0.1-0.1-0.3-0.2-0.4-0.2s-0.3-0.1-0.4-0.2l0.1,0.1l0.3-0.1h-0.1h0.1l-0.1-0.1l0.1,0.1h0.1
			c0.1,0,0.2,0,0.4,0.1c0.2,0.1,0.3,0.1,0.4,0.2h-0.1h0.1c0.4,0,0.7,0,1.2,0.1c0.4,0.1,0.8,0.2,1.1,0.2h-0.1h0.1c0,0,0,0,0.1,0
			l-0.1-0.1h0.1c-1-0.2-1.9-0.4-2.7-0.6c-0.8-0.2-1.3-0.6-1.4-1c0-0.2,0-0.3,0.2-0.4c0.2-0.1,0.3-0.2,0.4-0.3h0.1c0,0,0,0.1,0.1,0.1
			s0.1,0,0.2,0.1l0.1,0.1h-0.1c0.1,0.1,0.5,0.2,1.1,0.3c0.6,0,1.4,0.1,2.4,0.1c1.8,0,3.9-0.1,6.5-0.2c2.5-0.1,5.2-0.3,7.9-0.5
			c0.5-1.2,0.9-2.1,1.2-2.8c0.3-0.7,0.6-1.2,0.8-1.6c0.2-0.4,0.4-0.6,0.5-0.7c0.1-0.1,0.3-0.2,0.5-0.2c0.5,0,1,0.2,1.5,0.6
			c0.5,0.4,0.7,0.7,0.7,0.9c0,0.3-0.1,0.8-0.4,1.3c-0.3,0.6-0.6,1.3-1,2.2c1.4-0.1,2.6-0.1,3.6-0.2c0.9,0,1.9,0,3,0
			c0.8,0,1.5,0,2.3,0s1.5,0.1,2.2,0.2c0.7,0.1,1.3,0.2,1.8,0.4s0.9,0.3,1.1,0.6l-0.1,0.1l0.2-0.1c0,0,0.1,0.1,0.1,0.2
			c0.1,0.2,0,0.4-0.4,0.5c-0.2-0.1-0.5-0.2-0.8-0.2s-0.7-0.1-1.2-0.1c-0.8,0-1.8,0.1-2.8,0.2l0.4-0.1l-0.1,0.1h0.1h0.1l0.1-0.1v0.1
			h0.9l0.1,0.1l0.2-0.1h0.7c0.4,0,0.8,0.1,1.2,0.2c0.4,0.1,0.7,0.1,0.8,0.2h-0.3h0.1h-0.1h-0.2l-0.1,0.1l-0.4,0.1l0.1-0.1h-0.2
			c0,0-0.1,0.1-0.2,0.1v-0.1c-0.1,0-0.1,0-0.1,0s0,0-0.1,0l-0.6-0.1l-0.1-0.3l-0.3,0.2l-0.1,0.1h-0.5l0.1-0.1h0.1l0.1-0.1l0.1-0.3
			l-0.4,0.1l-0.3,0.1l-0.1,0.1c-0.1,0-0.2,0-0.3,0.1h-0.3l0.1-0.1l0.1-0.2h-0.3l-0.3-0.1l0.1,0.3l0.1,0.1h0.1h-0.4l0.1-0.1l-0.1,0.1
			l-0.1-0.1l0.1,0.1c0,0-0.1,0-0.3,0c-0.2,0.1-0.4,0.1-0.5,0.1s-0.2,0-0.2,0c-0.1,0-0.1,0-0.2,0l-0.1-0.1l0.1,0.1c0,0,0,0.1,0.1,0.1
			h0.1h0.1l-0.1-0.1l0.2-0.1l-0.1-0.1l-0.1-0.1l-0.1,0.1l-0.3,0.1l-0.1-0.1h-0.3l0.3-0.1h0.1l0.1-0.1c-0.1,0-0.2,0-0.3,0
			c-0.1,0-0.2,0-0.3,0l-0.1,0.3c0,0,0,0.1,0.1,0.1l0.1,0.1h-0.7c-0.2,0.1-0.5,0.1-0.7,0.1s-0.5,0-0.7,0.1l-0.1-0.1
			c-0.2,0.1-0.5,0.1-0.7,0.1s-0.5,0-0.7,0v-0.1c-0.9,0.2-1.8,0.4-2.7,0.5c-0.9,0.2-1.7,0.3-2.5,0.5c-0.2,0.5-0.6,1.6-1.2,3.2
			c-0.6,1.6-1.1,3.4-1.7,5.4c-0.6,2.1-1.1,4.2-1.5,6.5s-0.6,4.4-0.6,6.3c0,0.5,0.1,0.9,0.2,1.4s0.2,0.9,0.3,1.4v0.1l-0.1-0.1v0.1
			c0,0,0.1,0.1,0.2,0.1c0.7,0,1.5-0.4,2.2-1.2s1.3-1.6,1.7-2.5c0-0.1,0-0.2,0.1-0.3v0l0.1-0.1c0,0-0.1-0.1-0.1,0c0,0,0,0-0.1,0
			l0.2-0.3v-0.3l0.1-0.1l0.1-0.1h-0.1c0-0.1,0.1-0.3,0.1-0.4c0-0.1,0.1-0.2,0.1-0.3l0.1,0.1l-0.1,0.1l0.1,0.2l0.1-0.1l0.1-0.2v-0.1
			l0.1-0.1l0.1-0.3l-0.1-0.1l0.1-0.2c0,0,0-0.1,0.1-0.2l0.1-0.1l-0.1-0.1h0.1c0.3,0,0.5,0,0.5,0.1l-0.1,0.3c0,0,0,0.1,0.1,0.1
			l0.1,0.1c0,0,0,0.1-0.1,0.1h-0.1l0.1,0.1c0,0,0,0.1-0.1,0.1c0,0-0.1,0-0.1,0.1v0.1v0.1v0.1l-0.1,0.3c0,0.1,0,0.1,0,0.1l0,0
			l0.1,0.1l-0.1,0.1v0.2c-0.1,0-0.1,0-0.1,0.1l0.1,0.1v0.5c-0.1,0.4-0.2,0.9-0.4,1.7c-0.2,0.8-0.5,1.6-0.9,2.4
			c-0.4,0.8-0.9,1.5-1.6,2.1s-1.5,0.9-2.5,0.9c-0.8,0-1.5-0.2-2.1-0.6c-0.6-0.4-1-0.9-1.4-1.5c-0.3-0.6-0.6-1.3-0.7-2.1
			s-0.2-1.6-0.1-2.4c0.1-2.3,0.3-4.5,0.6-6.5s0.7-3.9,1.2-5.6c0.5-1.7,0.9-3.3,1.4-4.6c0.5-1.4,0.9-2.5,1.2-3.4
			c-0.2,0-0.5,0.1-0.9,0.1c-1,0-2.3-0.1-3.9-0.3c-1.5-0.2-3.1-0.3-4.6-0.3l-0.2-0.1h-0.1h-0.1l-0.1-0.1c0,0-0.1,0.1-0.3,0.1h-0.3
			h-0.3l-0.7-0.1l-0.1,0.1c-0.3,0-0.6,0-0.8,0c-0.3,0-0.6-0.1-0.9-0.1h-0.1h-0.3l0.1-0.1h0.6v0.1h-0.1l-0.5-0.2h-0.3L63.25,183.237z
			 M64.25,183.237L64.25,183.237L64.25,183.237L64.25,183.237z M65.25,183.637L65.25,183.637L65.25,183.637L65.25,183.637z
			 M66.35,183.737L66.35,183.737h-0.2l-0.1,0.1h0.2L66.35,183.737L66.35,183.737z M67.65,183.737L67.65,183.737L67.65,183.737z
			 M90.85,182.837h0.1l0.1-0.1C91.05,182.737,90.95,182.837,90.85,182.837L90.85,182.837z M94.65,182.637L94.65,182.637
			L94.65,182.637L94.65,182.637z M94.65,182.437L94.65,182.437h0.1H94.65L94.65,182.437z"/>
		<path d="M93.65,202.837c0.1,0,0.2,0,0.3,0.1c0.1,0,0.1,0.1,0.1,0.2c0,0,0,0.1-0.1,0.1c0,0-0.1,0.1-0.1,0.2v0.1v0.1l-0.1,0.1v0.1
			c0,0,0,0.1-0.1,0.1s-0.1,0.1-0.1,0.2v0.1v0.1h-0.1l0.1,0.1l-0.1,0.3c0,0,0,0.1-0.1,0.1h-0.1v0.1v0.1l-0.1,0.1l-0.1,0.3
			c0,0,0,0.1-0.1,0.1h-0.1c0,0,0,0.1,0.1,0.1l-0.2,0.6c-0.2,0.4-0.4,0.7-0.5,1.1c-0.2,0.4-0.3,0.9-0.6,1.4c-0.1,0.1-0.2,0.3-0.3,0.6
			c-0.1,0.3-0.2,0.6-0.4,0.8c-0.2,0.3-0.4,0.5-0.7,0.7c-0.3,0.2-0.7,0.3-1.2,0.3c-0.7,0-1.2-0.2-1.5-0.6c-0.3-0.4-0.5-0.9-0.6-1.5
			c-0.1-0.5-0.1-1.1-0.1-1.6s0.1-0.8,0.1-0.9c0-1.1,0.1-2.2,0.2-3.3s0.3-2.2,0.5-3.2s0.4-2,0.6-2.9s0.5-1.6,0.7-2.2
			c-0.5-0.2-1.1-0.6-1.7-1.2c-0.6,1.8-1.1,3.2-1.4,4.4c-0.4,1.2-0.8,2.5-1.3,3.8l-0.1,0.1l-0.1,0.1h0.1l-0.1,0.1v0.1v0.1l-0.1,0.2
			h0.1l-0.1,0.1l-0.1,0.4c-0.1,0.3-0.2,0.5-0.3,0.7v0.1l-0.1,0.1l0.1,0.1h-0.1l-0.1,0.3l-0.1,0.3h0.1l-0.1,0.1l-0.1,0.1
			c0,0.1-0.1,0.2-0.1,0.3s-0.1,0.2-0.1,0.3h-0.1h0.1v-0.1l-0.1-0.2l-0.1,0.1l0.1-0.1v-0.1c0,0,0,0,0-0.1l0.2-0.3l-0.1-0.1
			c0-0.1,0-0.1,0-0.2c0,0,0.1-0.3,0.3-0.8l0.1,0.1c0,0,0-0.1,0,0l0,0h-0.1v-0.1l-0.1,0.3h-0.1v0.2l-0.1,0.3l-0.2,0.3l-0.1,0.3
			l-0.1,0.1l-0.1,0.3l-0.1,0.2c0,0.1-0.1,0.2-0.1,0.2l-0.1,0.1h0.1l-0.1,0.1l-0.1,0.1c-0.2,0-0.3-0.1-0.3-0.2l0.1-0.3l-0.1-0.1
			l0.1-0.1l-0.1-0.1l0.1-0.1v-0.3l0.1-0.3l0.1-0.2l0.1-0.3l0.1-0.1l-0.1-0.1l0.1-0.5c0.2-0.7,0.5-1.6,0.7-2.6s0.5-2.1,0.8-3.1
			c0.3-1.1,0.5-2.2,0.7-3.2c0.2-1.1,0.4-2,0.5-2.9c-0.4-0.8-0.7-1.5-0.8-2.2c-0.1-0.7-0.2-1.3-0.2-1.8s0-0.9,0-1.1
			c0-0.2,0.3-0.3,0.9-0.3c1,0,1.8,0,2.3,0.1s0.8,0.2,0.9,0.5c0.2,0.2,0.2,0.5,0.2,0.9s0,0.8,0,1.4c0,0.5,0.2,1.2,0.4,1.9
			c0.2,0.7,0.7,1.6,1.4,2.5c0.3,0.1,0.6,0.2,0.8,0.4c0.2,0.2,0.4,0.4,0.6,0.6c0.2,0.2,0.3,0.4,0.5,0.7c0,0.1,0,0.3-0.1,0.5v0.1v0.1
			v-0.1v0.1c0,0,0,0.1,0.1,0.1l-0.1,0.1l0.1-0.1c0,0,0-0.1-0.1-0.1c0,0.4-0.2,1-0.5,1.8c-0.4,0.9-0.7,2.1-0.9,3.8
			c-0.1,0.9-0.4,2-0.7,3.3s-0.5,2.5-0.5,3.8c0.3-0.4,0.5-0.7,0.8-1.1c0.2-0.4,0.5-0.8,0.7-1.1l0.1-0.1l0.1-0.1v-0.1l0.1-0.1l0.2-0.3
			l0.2-0.4h-0.1l0.1-0.1l0.1-0.1c0.1-0.1,0.2-0.3,0.2-0.5c0.1-0.2,0.1-0.3,0.2-0.4v0.1l-0.1,0.1l0.1,0.2l0.1-0.3h0.1l-0.1-0.1
			l-0.1-0.1l0.1-0.1c0-0.1,0.1-0.1,0.1-0.1l-0.1,0.1h0.1v-0.1v0.1l0.1-0.1v0.2c0,0-0.1,0,0,0l0,0c0,0-0.1,0-0.1,0.1
			c0,0,0,0.1,0.1,0.1v-0.1c0,0,0.1,0,0.1,0.1l0.1-0.3l0.2-0.3l0.2-0.2C93.45,202.937,93.55,202.837,93.65,202.837l-0.1,0.1
			L93.65,202.837L93.65,202.837z M83.55,204.337L83.55,204.337h0.1H83.55z M84.15,203.537L84.15,203.537v0.1V203.537L84.15,203.537z
			 M84.15,203.037L84.15,203.037L84.15,203.037L84.15,203.037z M85.15,200.937l0.1-0.1L85.15,200.937z"/>
		<path d="M105.55,199.637c0.1,0,0.2,0,0.3,0c0.1,0.1,0.2,0.1,0.2,0.2c0,0,0,0.1-0.1,0.1c0,0-0.1,0.1-0.1,0.2v0.1c0,0,0,0.1,0.1,0.1
			c0,0,0,0.1-0.1,0.1c0,0-0.1,0-0.1,0.1c0,0,0,0,0,0.1v0.1c0,0,0,0.1-0.1,0.1s-0.1,0-0.1,0.1s0,0.2,0,0.2v0.1l-0.1,0.1v0.1l-0.1,0.4
			c0,0,0,0.1-0.1,0.1s-0.1,0-0.1,0.1c0,0,0,0.1,0.1,0.1l-0.1,0.2l-0.1,0.3v0.1c0,0-0.1,0.1-0.2,0.1c0,0,0,0.1,0.1,0.1l0.1,0.1
			l-0.1,0.2l-0.1,0.5c-0.3,0.9-0.6,1.9-1,3c-0.1,0.3-0.3,0.6-0.4,0.8c-0.1,0.3-0.3,0.6-0.5,1c-0.1,0.2-0.3,0.4-0.4,0.6
			c-0.1,0.2-0.4,0.4-0.9,0.6c-0.1,0.1-0.2,0.2-0.3,0.3v0.1c-0.2,0.1-0.5,0.1-0.9,0c0,0,0-0.1,0.1,0c0,0,0,0-0.1,0h-0.1
			c0-0.1-0.1-0.2-0.1-0.2s0-0.1,0-0.2c-0.3-0.2-0.5-0.4-0.7-0.7l-0.3-0.8c-0.1-0.2-0.1-0.5-0.1-0.7s0-0.5,0-0.7
			c-0.3,0.5-0.7,1.1-1.1,1.8s-1,1.2-1.8,1.5c-0.3,0.3-0.7,0.4-1.2,0.4h0.2l-0.1-0.1h0.1c0.1,0,0.2,0,0.3-0.1l0.1,0.1l0.2-0.1h0.1
			c0,0,0,0,0.1,0h-0.3l-0.1,0.1l0.1-0.1h-0.3l0.1,0.1l-0.1,0.1c0,0-0.1-0.1-0.2-0.1h-0.1v0.1h-0.1h-0.1l-0.1,0.1l0.1,0.1
			c0,0,0.1,0.1,0.2,0.1h-0.1c-0.2-0.1-0.3-0.2-0.5-0.3s-0.3-0.2-0.5-0.3v-0.1h-0.1c-0.5-0.3-0.8-0.6-1-1s-0.3-0.8-0.4-1.2
			c-0.3-1.2-0.4-2.2-0.3-3c0-1.9,0.2-3.8,0.6-5.5c0.4-1.8,1-3.4,1.7-4.8c0.7-1.5,1.5-2.7,2.2-3.8s1.4-1.9,2.1-2.5s1.1-0.9,1.4-1
			c0.2-0.1,0.4-0.1,0.5-0.1c0.4,0,0.7,0.3,1,0.9c0.3,0.5,0.4,0.9,0.4,1.2s-0.1,0.5-0.3,0.6c-0.2,0.2-0.5,0.5-0.8,0.8
			s-0.7,0.7-1.2,1.3s-1,1.4-1.6,2.3c-0.6,1-1.2,2.3-1.8,3.9c-0.2,0.5-0.4,1.2-0.6,1.9s-0.4,1.5-0.5,2.3c-0.2,0.8-0.3,1.6-0.3,2.5
			c-0.1,0.8-0.1,1.7,0,2.5c0,0.5,0.1,0.8,0.3,0.9c0.1,0.1,0.2,0.1,0.2,0.1c0.2-0.1,0.5-0.4,0.8-0.7c0.3-0.4,0.6-0.7,0.8-1.1
			c0.5-0.8,0.9-1.5,1.4-2.3c0.4-0.8,0.8-1.5,1.2-2.2v-0.1c0-0.3,0.1-0.5,0.1-0.8s0.1-0.5,0.1-0.8c0.3-1.3,0.6-2.5,0.9-3.6
			s0.6-2.1,0.9-3s0.6-1.6,0.8-2.2c0.2-0.6,0.4-0.9,0.6-1c0-0.1,0.2-0.2,0.3-0.3c0.1,0,0.3-0.1,0.5,0c0.2,0,0.5,0.1,0.8,0.4
			c0.9,0.6,1.2,1.1,1.1,1.4c-0.1,0.2-0.2,0.5-0.3,0.8c-0.1,0.3-0.3,0.8-0.5,1.4c-0.2,0.6-0.4,1.3-0.7,2.1c-0.3,0.8-0.6,1.9-0.9,3.1
			c-0.2,0.9-0.5,2.1-0.9,3.3c-0.4,1.3-0.7,2.6-0.9,3.9c0,0.2,0,0.4,0,0.5c0,0.2,0,0.3,0,0.5c0.4-0.5,0.7-1.1,1-1.7
			c0.3-0.6,0.6-1.1,0.8-1.6v-0.1l0.1-0.2l0.1-0.2v-0.1l0.1-0.3v-0.1v-0.1l0.1-0.1l0.1-0.1h0.1l0.1-0.2h-0.1c0.1-0.2,0.2-0.4,0.3-0.5
			c0.1-0.2,0.2-0.3,0.3-0.5v0.1h-0.1v0.1v0.1l0.1-0.1c0,0,0.1-0.1,0-0.1v-0.1l-0.1-0.1l0.1-0.1c0-0.1,0.1-0.1,0.1-0.2l0,0l0.3-0.3
			v-0.9l0.1-0.1l0.1-0.2c0-0.1,0.1-0.2,0.2-0.3C105.45,199.737,105.55,199.737,105.55,199.637L105.55,199.637L105.55,199.637z"/>
		<path d="M116.65,185.937c0.9,0.2,1.3,0.6,1.3,1.1c0,0.4-0.1,0.8-0.2,1.4c-0.2,0.6-0.4,1.3-0.7,2.2c-0.3,0.9-0.8,2-1.3,3.3
			s-1.2,2.9-1.9,4.8c-0.5,1.4-1.2,2.9-2,4.7s-1.5,3.6-2.2,5.6l-0.1,0.2c-0.1,0.1-0.2,0.4-0.5,0.7c-0.2,0.4-0.5,0.5-0.7,0.5
			c-0.1,0-0.2,0-0.3-0.1l-0.5-0.8c-0.2-0.3-0.4-0.6-0.4-1c-0.1-0.4-0.1-0.6-0.2-0.7l-0.1-1.7c0-0.4-0.1-0.7-0.1-1.1
			c0-0.4,0-0.8,0-1.1c0-0.2,0-0.3,0-0.5c0-0.1,0-0.3,0-0.5c0-0.3-0.1-0.6-0.1-0.9c0-0.3,0-0.5,0-0.8l0.1-0.3c0-0.1,0-0.2-0.1-0.2
			l0.1-0.3c0,0-0.1,0,0-0.1c0-0.1,0-0.1,0-0.2v-0.3v-0.3l0.1-0.9l-0.1-0.1c0-0.4,0-0.7,0-1s0-0.6,0.1-0.9v-0.1v-0.3v0.1l0.1-0.1
			l-0.1-0.1l0.1-0.1l0.1-0.7l0.1-0.5l0.1-0.1c0,0,0-0.1,0.1-0.2h-0.1v-0.1c0,0,0.1,0,0.1,0.1l0.1-0.3l0.1-0.3
			c0.1-0.3,0.2-0.6,0.3-0.8c0.1-0.3,0.2-0.6,0.3-0.8l-0.1,0.1v0.2l0.1,0.3v-0.1l0.1,0.1v-0.1l-0.1,0.1v0.2c0,0.1,0,0.3-0.1,0.4
			c0,0.2-0.1,0.3-0.1,0.4h-0.1v0.1v0.3l0.1-0.9l0.1-0.1c0,0,0.1,0,0.1-0.1v-0.1v-0.1v-0.1c0,0,0,0,0-0.1l0.1-0.3
			c0-0.1,0.1-0.3,0.2-0.4v-0.3l0.2-0.5c0-0.1,0.1-0.3,0.3-0.4l0.1-0.1l-0.1-0.1l0.1-0.1l0.1-0.1c0.2,0,0.3,0.1,0.3,0.3
			c0,0-0.1,0.1-0.1,0.2c-0.1,0.2-0.1,0.3-0.1,0.3s0,0.1,0.1,0.1l-0.2,0.2v0.1v0.1c0,0.1,0,0.1-0.1,0.2c-0.1,0-0.1,0.1-0.1,0.1
			c0,0.1,0,0.2,0,0.2c0,0.1,0,0.1,0,0.2l-0.1,0.1v0.7c0,0,0,0.1-0.1,0.1l-0.1,0.1v0.1v0.1l-0.1,0.3v0.5c0,0,0,0.1-0.1,0.1
			s-0.1,0-0.1,0.1c0,0,0,0.1,0.1,0.1l0.1,0.1l-0.1,1c0,0.4,0,0.7,0,1s0,0.7,0,1c0,1.4,0.1,2.8,0.2,4.3c1.2-3.2,2.2-6,3-8.2
			s1.4-4,2-5.3c0.5-1.4,0.9-2.3,1.3-2.9c0.3-0.6,0.6-0.9,0.9-0.9c0.1,0,0.2,0,0.3,0C116.35,185.837,116.45,185.837,116.65,185.937z
			 M107.05,197.037l-0.1-0.1v0.3L107.05,197.037L107.05,197.037z M107.35,196.037L107.35,196.037L107.35,196.037L107.35,196.037z
			 M107.35,195.037L107.35,195.037L107.35,195.037L107.35,195.037z M107.45,194.737L107.45,194.737L107.45,194.737L107.45,194.737z
			 M107.55,195.137L107.55,195.137v-0.3V195.137z"/>
		<path d="M127.25,202.237v0.1v0.1c0,0-0.1,0-0.2,0.1v0.1v0.1c0,0.1-0.1,0.1-0.1,0.2l-0.1,0.1v0.3v0.1h-0.1l-0.2,0.7l-0.2,0.1v0.2
			l-0.2,0.3l-0.1,0.4c0,0-0.1,0.1-0.1,0h-0.1v0.1v0.1l-0.1,0.2c0,0.1-0.2,0.4-0.5,0.8s-0.6,0.9-1,1.4s-0.9,1-1.5,1.4
			c-0.5,0.4-1.1,0.7-1.6,0.8v-0.1l-0.1,0.1c0,0-0.1,0-0.1,0.1h0.1c-0.2,0.1-0.3,0.1-0.3,0.1h-0.1c-0.1,0-0.1,0-0.2,0h-0.1
			c-0.2,0-0.3,0-0.4,0s-0.2,0-0.3,0h-0.2l0.1-0.1c-0.1,0-0.2,0-0.2,0h-0.1l-0.1-0.1h-0.1l0.1,0.1c-0.2,0-0.4-0.1-0.6-0.2v0.1h-0.1
			c-0.2-0.1-0.3-0.2-0.3-0.3s-0.1-0.2-0.2-0.3v0.1c0.1,0,0.1,0-0.1-0.1c-0.1-0.1-0.3-0.3-0.4-0.5c-0.7-1.1-1.1-2.1-1.4-3.1
			c-0.2-1-0.4-2.1-0.4-3.2c0-2.9,0.4-5.4,1.1-7.5s1.5-3.9,2.4-5.3c0.9-1.4,1.7-2.4,2.5-3.1c0.8-0.7,1.3-1,1.4-1c0.2,0,0.4,0,0.5,0.1
			c0.1,0,0.4,0.1,0.8,0.2c0.4,0.2,0.8,0.5,1.2,0.9c0.4,0.5,0.8,1.1,1.1,2c0.3,0.8,0.5,1.9,0.5,3.3c0,0.8-0.2,1.6-0.5,2.4
			c-0.4,0.9-0.8,1.7-1.4,2.4c-0.6,0.8-1.3,1.4-2,2s-1.5,1-2.2,1.1h0.1c-0.4,0.2-0.6,0.3-0.8,0.3l-0.1,0.1h-0.1v0.1l-0.1-0.1
			l-0.5,0.2l-0.1,0.1v-0.1l-0.1,0.1l-0.1-0.1l0.1,0.1c-0.1,0-0.2,0.1-0.3,0.4c-0.1,0.3-0.2,0.6-0.2,0.9c0,0.4-0.1,0.7-0.1,1.1
			c0,0.4,0,0.7,0,0.8c0,0.3,0,0.6,0.1,1s0.2,0.9,0.3,1.3c0.1,0.5,0.3,0.8,0.5,1.1s0.4,0.5,0.7,0.5c0.7,0,1.4-0.2,2.1-0.7
			s1.3-1,1.8-1.5l0.5-0.6l0.3-0.3l0.1-0.3l0.1-0.1l0.1-0.3l0.2-0.3l0.1-0.2c0.1-0.2,0.2-0.5,0.3-0.7c0.1-0.2,0.2-0.4,0.3-0.6
			l-0.1,0.1v0.1l0.1,0.3l0.1-0.1l0.2-0.3v-0.1l-0.2-0.1l0.1-0.1c0-0.1,0.1-0.2,0.1-0.2v0.1v0.4l0.1-0.1v0.1l0.1-0.1v0.3l-0.1-0.1
			c0,0-0.1,0-0.1,0.1v0.1v-0.1c0,0,0.1,0,0.1,0.1l0.1-0.1l-0.1,0.2h-0.1v0.1l0.1-0.3l0.2-0.1l0.1-0.3c0.1-0.2,0.2-0.3,0.3-0.4
			l0.1-0.1h-0.1l0.1-0.1l0.1-0.1c0.3,0,0.4,0.1,0.4,0.3c0,0,0,0.1-0.1,0.2C127.45,202.037,127.35,202.137,127.25,202.237z
			 M119.85,196.437c-0.1,0.5-0.3,1-0.4,1.6c-0.2,0.5-0.3,1.1-0.4,1.8l0.1,0.1v-0.1l0.4-0.3c1.2-0.7,2.2-1.7,3-2.9s1.2-2.7,1.2-4.4
			c0-1-0.2-1.8-0.5-2.4c-0.4,0.5-0.9,1.3-1.5,2.3C121.05,193.037,120.45,194.537,119.85,196.437z"/>
		<path d="M126.45,208.737c-0.2-0.6-0.3-1.2-0.3-1.8s-0.1-1.1-0.1-1.5c0-0.9,0.1-2.6,0.4-5.2c0.3-2.6,1.1-6.2,2.5-10.7
			c0.5-2,1.1-3.9,1.6-5.6s1-3.3,1.5-4.7c0.4-1.4,0.8-2.5,1.1-3.3c0.3-0.9,0.5-1.4,0.6-1.6c0-0.1,0.1-0.2,0.2-0.3s0.2-0.2,0.3-0.2
			c0.1-0.1,0.3-0.1,0.5-0.1c0.7,0,1.2,0.2,1.5,0.5s0.4,0.6,0.4,0.8c0,0.3-0.1,0.8-0.4,1.7c0,0.1-0.1,0.6-0.4,1.6s-0.6,2.1-1,3.4
			c-0.4,1.3-0.8,2.5-1.2,3.7c-0.4,1.2-0.7,2.1-0.9,2.6c-0.9,3.5-1.7,6.7-2.3,9.5c-0.7,2.8-1,5-1.1,6.6c0,0,0,0.1,0,0.3
			c0,0.3,0,0.6,0,1.1s0,1,0.1,1.5c0,0.6,0.1,1.1,0.3,1.6c0.1,0.2,0,0.3-0.2,0.3c0.4,0,0.8-0.3,1.3-0.8s0.9-1,1.4-1.3l0.1-0.1
			l0.2-0.2h0.1l0.1-0.2l0.2-0.2l0.1-0.1l0.1,0.1l0.1-0.1l0.1-0.1h0.2v-0.1l0.1-0.1h0.1h0.1h0.1l-0.3-0.4h0.1c0.1,0,0.2,0,0.3,0.1
			c0.1,0.1,0.2,0.1,0.2,0.2c0,0,0,0.1-0.1,0.1c0,0-0.1,0-0.1,0.1l0.1,0.1h-0.1l0.1,0.1c0,0,0,0.1-0.1,0h-0.1v0.1v0.1h-0.1l0.1,0.1
			l-0.2,0.2l-0.1,0.1l-0.1,0.2h-0.1l0.1,0.1l-0.2,0.3c-0.1,0.1-0.2,0.4-0.4,0.9c-0.2,0.5-0.4,0.9-0.7,1.4c-0.3,0.5-0.7,0.9-1.2,1.3
			c-0.5,0.4-1,0.6-1.7,0.6c-0.5,0-1-0.1-1.3-0.3s-0.6-0.5-0.8-0.8c-0.2-0.3-0.4-0.6-0.5-0.9
			C126.55,209.137,126.55,208.937,126.45,208.737z"/>
		<path d="M148.15,196.037c0.1,0.1,0.2,0.2,0.2,0.3c0,0.2-0.1,0.3-0.4,0.3c-0.2,0-0.6,0.1-0.9,0.5h-0.2c-0.1,0-0.2,0.2-0.2,0.6
			s-0.1,0.9-0.2,1.5s-0.2,1.2-0.3,1.8c-0.1,0.6-0.2,1-0.3,1.4c-0.2,0.8-0.6,1.7-1,2.7s-0.9,2-1.6,2.8c-0.6,0.9-1.3,1.6-2,2.2
			c-0.7,0.6-1.4,0.9-2.2,0.9c-0.8,0-1.5-0.3-2.1-0.8c-0.7-0.5-1-1.2-1-1.9c0-1,0.3-2.2,1-3.4s1.4-2.2,2.2-3l1.2-1.1l0.7-0.6l0.8-0.7
			l1.2-0.9l0.6-0.5v-1.4c0-0.5,0-1.2-0.1-2s-0.2-1.6-0.4-2.4c-0.2-0.8-0.3-1.5-0.6-2c-0.2-0.5-0.5-0.8-0.7-0.8
			c-0.1,0-0.3,0.2-0.6,0.5c-0.3,0.3-0.6,0.7-0.9,1.1c-0.3,0.5-0.6,0.9-0.9,1.5s-0.5,1-0.7,1.5c-1.2,3.1-2.1,5.9-2.7,8.4
			s-1,4.2-1.2,5.2c0,0.3,0,0.6,0,0.9s0,0.6-0.1,0.9c-0.1,0.3-0.2,0.5-0.4,0.7c-0.2,0.2-0.6,0.3-1.1,0.3c-0.1,0-0.2,0.1-0.2,0.4v-0.4
			v0.1v-0.1c0,0-0.1-0.1-0.3-0.1c-0.5-0.1-0.7-0.2-0.9-0.4c-0.1-0.2-0.2-0.5-0.2-0.9c0-0.5,0-1.2,0-2.1c0-0.9,0.1-2.1,0.4-3.6
			c0.2-1.5,0.6-3.3,1-5.6c0.5-2.2,1.1-4.9,2-8.1c0.6-2.3,1.2-4.4,1.8-6.5c0.6-2.1,1.2-3.9,1.7-5.5s0.9-3,1.3-4
			c0.4-1.1,0.6-1.7,0.7-1.9c0-0.1,0-0.2,0.1-0.3c0.2-0.2,0.5-0.3,0.8-0.3c0.7,0,1.2,0.2,1.6,0.5c0.3,0.3,0.5,0.6,0.5,0.8
			s-0.1,0.6-0.2,1.1s-0.3,1.1-0.5,1.8s-0.4,1.4-0.6,2c-0.2,0.7-0.4,1.3-0.6,1.8l-0.1,0.3l-0.1,0.3l-0.3,1.1l-0.1,0.3l0.1-0.1
			c-0.3,0.9-0.5,1.7-0.8,2.4l-0.1,0.1l-0.1,0.5l-0.1-0.1v0.1l-0.1,0.2l-0.1,0.1l-0.3,0.9l0,0l-0.2,0.6c0,0-0.1,0.1-0.1,0.2
			c0,0.1,0,0.1-0.1,0.2h0.1l-0.1,0.1v-0.1l-0.2,0.4c0,0.1,0,0.3-0.1,0.4c-0.1,0.1-0.1,0.3-0.1,0.5c0.4-0.3,0.8-0.6,1.3-0.8
			s1-0.4,1.6-0.4c1.2,0,2.1,0.4,2.7,1.1c0.7,0.7,1.1,1.6,1.4,2.6s0.5,2,0.5,3s0.1,1.7,0.1,2.2v1.1c0.4,0,0.6,0,0.8-0.1
			c0.2-0.1,0.3-0.1,0.4-0.1l-0.1-0.1L148.15,196.037z M137.05,209.437c0,0.1,0.1,0.2,0.3,0.2
			C137.15,209.537,137.05,209.437,137.05,209.437z M137.85,209.937c0.1,0,0.1,0,0.2,0c0,0,0.1,0,0.2,0h-0.1
			C137.95,210.037,137.95,209.937,137.85,209.937z M141.85,205.637c0.5-0.9,0.8-1.8,1.1-2.8c0.3-1,0.5-2.1,0.6-3.2l-0.3,0.3
			l-0.5,0.6c-0.1,0-0.2,0-0.3,0.1l-0.1,0.3l-1.2,1.2c-0.7,0.8-1.4,1.7-2,2.7c-0.7,1.1-1,2-1,2.8c0,0.3,0.3,0.5,0.8,0.5
			s1-0.2,1.6-0.5C141.05,207.137,141.55,206.537,141.85,205.637z M138.85,210.637l0.1,0.1c0.1,0,0.2,0,0.3-0.1c0,0-0.1,0.1-0.3,0.1
			C138.85,210.637,138.85,210.637,138.85,210.637l-0.1-0.1c0,0-0.1,0-0.1-0.1h-0.1h-0.3l0.5,0.1h0.1V210.637z M140.15,209.937
			L140.15,209.937c-0.2,0.1-0.4,0.1-0.7,0.2c-0.3,0-0.6,0-1,0c0.1,0,0.3,0.1,0.4,0.1s0.2,0,0.3-0.1l-0.1,0.1h0.1
			c0.1-0.1,0.2-0.1,0.3-0.1l-0.1,0.2L140.15,209.937L140.15,209.937z M140.15,210.237v-0.1l-0.4,0.1l-0.4,0.1l0.1,0.1l0.4-0.1v0.1
			v-0.1L140.15,210.237z"/>
		<path d="M160.05,199.637c0.1,0,0.2,0,0.3,0c0.1,0.1,0.2,0.1,0.2,0.2c0,0,0,0.1-0.1,0.1c0,0-0.1,0.1-0.1,0.2v0.1c0,0,0,0.1,0.1,0.1
			c0,0,0,0.1-0.1,0.1c0,0-0.1,0-0.1,0.1c0,0,0,0,0,0.1v0.1c0,0,0,0.1-0.1,0.1s-0.1,0-0.1,0.1s0,0.2,0,0.2v0.1l-0.1,0.1v0.1l-0.1,0.4
			c0,0,0,0.1-0.1,0.1s-0.1,0-0.1,0.1c0,0,0,0.1,0.1,0.1l-0.1,0.2l-0.1,0.3v0.1c0,0-0.1,0.1-0.2,0.1c0,0,0,0.1,0.1,0.1l0.1,0.1
			l-0.1,0.2l-0.1,0.5c-0.3,0.9-0.6,1.9-1,3c-0.1,0.3-0.3,0.6-0.4,0.8c-0.1,0.3-0.3,0.6-0.5,1c-0.1,0.2-0.3,0.4-0.4,0.6
			c-0.1,0.2-0.4,0.4-0.9,0.6c-0.1,0.1-0.2,0.2-0.3,0.3v0.1c-0.2,0.1-0.5,0.1-0.9,0c0,0,0-0.1,0.1,0c0,0,0,0-0.1,0h-0.1
			c0-0.1-0.1-0.2-0.1-0.2s0-0.1,0-0.2c-0.3-0.2-0.5-0.4-0.7-0.7l-0.3-0.8c-0.1-0.2-0.1-0.5-0.1-0.7s0-0.5,0-0.7
			c-0.3,0.5-0.7,1.1-1.1,1.8s-1,1.2-1.8,1.5c-0.3,0.3-0.7,0.4-1.2,0.4h0.2l-0.1-0.1h0.1c0.1,0,0.2,0,0.3-0.1l0.1,0.1l0.2-0.1h0.1
			c0,0,0,0,0.1,0h-0.3l-0.1,0.1l0.1-0.1h-0.3l0.1,0.1l-0.1,0.1c0,0-0.1-0.1-0.2-0.1h-0.1v0.1h-0.1h-0.1l-0.1,0.1l0.1,0.1
			c0,0,0.1,0.1,0.2,0.1h-0.1c-0.2-0.1-0.3-0.2-0.5-0.3s-0.3-0.2-0.5-0.3v-0.1h-0.1c-0.5-0.3-0.8-0.6-1-1s-0.3-0.8-0.4-1.2
			c-0.3-1.2-0.4-2.2-0.3-3c0-1.9,0.2-3.8,0.6-5.5c0.4-1.8,1-3.4,1.7-4.8c0.7-1.5,1.5-2.7,2.2-3.8s1.4-1.9,2.1-2.5s1.1-0.9,1.4-1
			c0.2-0.1,0.4-0.1,0.5-0.1c0.4,0,0.7,0.3,1,0.9c0.3,0.5,0.4,0.9,0.4,1.2s-0.1,0.5-0.3,0.6c-0.2,0.2-0.5,0.5-0.8,0.8
			s-0.7,0.7-1.2,1.3s-1,1.4-1.6,2.3c-0.6,1-1.2,2.3-1.8,3.9c-0.2,0.5-0.4,1.2-0.6,1.9s-0.4,1.5-0.5,2.3c-0.2,0.8-0.3,1.6-0.3,2.5
			c-0.1,0.8-0.1,1.7,0,2.5c0,0.5,0.1,0.8,0.3,0.9c0.1,0.1,0.2,0.1,0.2,0.1c0.2-0.1,0.5-0.4,0.8-0.7c0.3-0.4,0.6-0.7,0.8-1.1
			c0.5-0.8,0.9-1.5,1.4-2.3c0.4-0.8,0.8-1.5,1.2-2.2v-0.1c0-0.3,0.1-0.5,0.1-0.8s0.1-0.5,0.1-0.8c0.3-1.3,0.6-2.5,0.9-3.6
			s0.6-2.1,0.9-3s0.6-1.6,0.8-2.2c0.2-0.6,0.4-0.9,0.6-1c0-0.1,0.2-0.2,0.3-0.3c0.1,0,0.3-0.1,0.5,0c0.2,0,0.5,0.1,0.8,0.4
			c0.9,0.6,1.2,1.1,1.1,1.4c-0.1,0.2-0.2,0.5-0.3,0.8c-0.1,0.3-0.3,0.8-0.5,1.4c-0.2,0.6-0.4,1.3-0.7,2.1c-0.3,0.8-0.6,1.9-0.9,3.1
			c-0.2,0.9-0.5,2.1-0.9,3.3c-0.4,1.3-0.7,2.6-0.9,3.9c0,0.2,0,0.4,0,0.5c0,0.2,0,0.3,0,0.5c0.4-0.5,0.7-1.1,1-1.7
			c0.3-0.6,0.6-1.1,0.8-1.6v-0.1l0.1-0.2l0.1-0.2v-0.1l0.1-0.3v-0.1v-0.1l0.1-0.1l0.1-0.1h0.1l0.1-0.2h-0.1c0.1-0.2,0.2-0.4,0.3-0.5
			c0.1-0.2,0.2-0.3,0.3-0.5v0.1h-0.1v0.1v0.1l0.1-0.1c0,0,0.1-0.1,0-0.1v-0.1l-0.1-0.1l0.1-0.1c0-0.1,0.1-0.1,0.1-0.2l0,0l0.3-0.3
			v-0.9l0.1-0.1l0.1-0.2c0-0.1,0.1-0.2,0.2-0.3C159.95,199.737,160.05,199.737,160.05,199.637L160.05,199.637L160.05,199.637z"/>
		<path d="M174.45,196.037c0.1,0.1,0.2,0.2,0.2,0.3c0,0.2-0.1,0.3-0.4,0.3c-0.2,0-0.6,0.1-0.9,0.5h-0.2c-0.1,0-0.2,0.2-0.2,0.6
			s-0.1,0.9-0.2,1.5s-0.2,1.2-0.3,1.8c-0.1,0.6-0.2,1-0.3,1.4c-0.2,0.8-0.6,1.7-1,2.7s-0.9,2-1.6,2.8c-0.6,0.9-1.3,1.6-2,2.2
			c-0.7,0.6-1.4,0.9-2.2,0.9c-0.8,0-1.5-0.3-2.1-0.8c-0.7-0.5-1-1.2-1-1.9c0-1,0.3-2.2,1-3.4s1.4-2.2,2.2-3l1.2-1.1l0.7-0.6l0.8-0.7
			l1.2-0.9l0.6-0.5v-1.4c0-0.5,0-1.2-0.1-2s-0.2-1.6-0.4-2.4c-0.2-0.8-0.3-1.5-0.6-2c-0.2-0.5-0.5-0.8-0.7-0.8
			c-0.1,0-0.3,0.2-0.6,0.5c-0.3,0.3-0.6,0.7-0.9,1.1c-0.3,0.5-0.6,0.9-0.9,1.5s-0.5,1-0.7,1.5c-1.2,3.1-2.1,5.9-2.7,8.4
			s-1,4.2-1.2,5.2c0,0.3,0,0.6,0,0.9s0,0.6-0.1,0.9c-0.1,0.3-0.2,0.5-0.4,0.7c-0.2,0.2-0.6,0.3-1.1,0.3c-0.1,0-0.2,0.1-0.2,0.4v-0.4
			v0.1v-0.1c0,0-0.1-0.1-0.3-0.1c-0.5-0.1-0.7-0.2-0.9-0.4c-0.1-0.2-0.2-0.5-0.2-0.9c0-0.5,0-1.2,0-2.1c0-0.9,0.1-2.1,0.4-3.6
			c0.2-1.5,0.6-3.3,1-5.6c0.5-2.2,1.1-4.9,2-8.1c0.6-2.3,1.2-4.4,1.8-6.5c0.6-2.1,1.2-3.9,1.7-5.5s0.9-3,1.3-4
			c0.4-1.1,0.6-1.7,0.7-1.9c0-0.1,0-0.2,0.1-0.3c0.2-0.2,0.5-0.3,0.8-0.3c0.7,0,1.2,0.2,1.6,0.5c0.3,0.3,0.5,0.6,0.5,0.8
			s-0.1,0.6-0.2,1.1s-0.3,1.1-0.5,1.8s-0.4,1.4-0.6,2c-0.2,0.7-0.4,1.3-0.6,1.8l-0.1,0.3l-0.1,0.3l-0.3,1.1l-0.1,0.3l0.1-0.1
			c-0.3,0.9-0.5,1.7-0.8,2.4l-0.1,0.1l-0.1,0.5l-0.1-0.1v0.1l-0.1,0.2l-0.1,0.1l-0.3,0.9l0,0l-0.2,0.6c0,0-0.1,0.1-0.1,0.2
			c0,0.1,0,0.1-0.1,0.2h0.1l-0.1,0.1v-0.1l-0.2,0.4c0,0.1,0,0.3-0.1,0.4c-0.1,0.1-0.1,0.3-0.1,0.5c0.4-0.3,0.8-0.6,1.3-0.8
			s1-0.4,1.6-0.4c1.2,0,2.1,0.4,2.7,1.1c0.7,0.7,1.1,1.6,1.4,2.6s0.5,2,0.5,3s0.1,1.7,0.1,2.2v1.1c0.4,0,0.6,0,0.8-0.1
			c0.2-0.1,0.3-0.1,0.4-0.1l-0.1-0.1L174.45,196.037z M163.35,209.437c0,0.1,0.1,0.2,0.3,0.2
			C163.55,209.537,163.45,209.437,163.35,209.437z M164.15,209.937c0.1,0,0.1,0,0.2,0c0,0,0.1,0,0.2,0h-0.1
			C164.35,210.037,164.25,209.937,164.15,209.937z M168.25,205.637c0.5-0.9,0.8-1.8,1.1-2.8c0.3-1,0.5-2.1,0.6-3.2l-0.3,0.3
			l-0.5,0.6c-0.1,0-0.2,0-0.3,0.1l-0.1,0.3l-1.2,1.2c-0.7,0.8-1.4,1.7-2,2.7c-0.7,1.1-1,2-1,2.8c0,0.3,0.3,0.5,0.8,0.5
			s1-0.2,1.6-0.5C167.45,207.137,167.85,206.537,168.25,205.637z M165.25,210.637l0.1,0.1c0.1,0,0.2,0,0.3-0.1c0,0-0.1,0.1-0.3,0.1
			C165.25,210.637,165.15,210.637,165.25,210.637l-0.1-0.1c0,0-0.1,0-0.1-0.1h-0.1h-0.3l0.5,0.1h0.1V210.637z M166.55,209.937
			L166.55,209.937c-0.2,0.1-0.4,0.1-0.7,0.2c-0.3,0-0.6,0-1,0c0.1,0,0.3,0.1,0.4,0.1s0.2,0,0.3-0.1l-0.1,0.1h0.1
			c0.1-0.1,0.2-0.1,0.3-0.1l-0.1,0.2L166.55,209.937L166.55,209.937z M166.45,210.237v-0.1l-0.4,0.1l-0.4,0.1l0.1,0.1l0.4-0.1v0.1
			v-0.1L166.45,210.237z"/>
		<path d="M211.05,216.437c0.1,0,0.2,0.1,0.3,0.2c0.3,0.2,0.4,0.5,0.4,0.9c0,1.3-0.5,2-1.5,2c-0.5,0-1.4-0.2-2.6-0.5s-2.9-0.6-5.2-1
			c-2.2-0.4-5-0.9-8.3-1.5s-7.3-1.3-12-2c-0.4,1.1-0.9,2.3-1.5,3.6s-1.4,2.5-2.4,3.6s-2.2,2-3.6,2.7s-3,1.1-4.8,1.1
			c-0.9,0-1.9-0.1-2.9-0.4s-2-0.7-2.9-1.2s-1.7-1.2-2.5-1.9c-0.7-0.8-1.3-1.6-1.6-2.6c-0.1-0.2-0.1-0.3-0.1-0.5s0-0.2-0.1-0.3h0.1
			c0-0.1,0-0.2,0-0.2s0-0.1,0-0.2v0.1l0.1-0.1c0,0-0.1-0.1-0.1-0.2s0-0.2-0.1-0.3c0-0.1,0-0.2,0-0.3s0-0.2,0-0.3l0.1-0.1l0.1-0.5
			c0.1-0.8,0.4-1.4,0.8-1.8c0.4-0.5,1.1-0.9,1.9-1.4l1.1-0.4c0,0,0.1,0,0.2,0s0.3-0.1,0.8-0.2c0.1-0.1,0.2-0.1,0.2-0.2
			c0,0,0,0,0.1,0h0.3c0.1,0,0.1,0,0.2-0.1c0,0,0.1-0.1,0.2-0.1s0.2,0,0.2,0s0.1,0,0.2,0s0.2-0.1,0.3-0.1c0.1,0,0.2-0.1,0.3-0.1
			l0.1,0.1l0.2-0.1l0.7-0.1h0.1h0.1h0.1h0.1h0.4l0.5-0.1c0,0,0.1,0,0.1,0.1l0.1,0.1c0,0,0.1,0,0.1-0.1l0.1-0.1l1.1-0.1
			c0.5,0,1-0.1,1.6-0.1s1.2,0,1.8,0c1.7,0,3.5,0.1,5.5,0.2c0.2-1.1,0.5-2.1,0.7-3.1s0.5-2,0.7-3.1l-0.3,0.4
			c-0.2,0.3-0.5,0.7-0.8,1.2s-0.6,0.9-1,1.4s-0.9,0.9-1.4,1.2s-1.1,0.5-1.8,0.5c-0.5,0-0.9-0.1-1.2-0.3c-0.3-0.2-0.5-0.5-0.7-0.8
			s-0.3-0.6-0.4-0.9c-0.1-0.3-0.1-0.6-0.1-0.7c0-1.7,0.1-3.4,0.4-4.9c0.3-1.6,0.6-3.1,0.9-4.7c0.9-4.1,1.7-7.1,2.5-9
			c0.8-1.8,1.4-2.8,1.7-2.8c0.3,0,0.5,0.1,0.8,0.2c0.3,0.2,0.5,0.3,0.7,0.5s0.4,0.5,0.6,0.8c0,0.2-0.1,0.5-0.2,0.9s-0.3,0.9-0.6,1.6
			s-0.5,1.5-0.9,2.6c-0.3,1.1-0.7,2.4-1.1,3.9c-0.2,0.6-0.4,1.4-0.7,2.3c-0.3,0.9-0.5,1.9-0.8,2.9s-0.5,2-0.7,3s-0.3,1.9-0.3,2.6
			c0,0.4,0.1,0.6,0.3,0.6c0.5,0,1.1-0.3,1.8-1c0.6-0.7,1.1-1.2,1.6-1.6l0.3-0.3l0.5-0.5l0.2-0.1l0.2-0.3c0,0,0-0.1,0.1-0.2l0.2-0.3
			l0.1,0.1l0.1-0.2c0.1-0.2,0.3-0.4,0.4-0.6c0.1-0.2,0.2-0.4,0.3-0.5l-0.1,0.1l-0.1,0.1l0.1,0.2l0.2-0.3v-0.2v-0.2
			c0,0,0.1-0.3,0.3-1c0.2-0.7,0.3-1.5,0.5-2.4s0.4-1.7,0.6-2.6c0.2-0.9,0.3-1.4,0.4-1.8c0.3-1.5,0.6-2.8,0.8-3.7
			c0.2-0.9,0.4-1.7,0.5-2.2c0.2-0.5,0.3-0.9,0.6-1.1c0.2-0.2,0.5-0.3,0.9-0.3c0.5,0,1,0.1,1.6,0.4c0.6,0.3,0.9,0.6,0.9,1
			c0,0.2,0,0.4-0.1,0.6c-0.1,0.2-0.2,0.5-0.4,0.9c-0.2,0.4-0.4,1-0.6,1.8c-0.3,0.8-0.6,1.9-1,3.2c-0.3,1.4-0.7,3-1.1,4.9
			s-1,4.3-1.6,7.1c0,0.1,0,0.1,0.1,0.1s0.4-0.2,0.7-0.7c0.4-0.5,0.9-1.3,1.5-2.5l0.1-0.3l0.1-0.2l0.1-0.1h-0.1v-0.1c0,0,0,0,0-0.1
			l0.3-0.4l0.1-0.3l0.1-0.1c0,0,0-0.1,0.1-0.1l0.1-0.3l0.1-0.1h-0.1c0.2-0.4,0.4-0.7,0.7-1.1l-0.1,0.1l-0.1,0.1l0.1,0.3v-0.1h0.1
			l0.1-0.1l0.1-0.3l-0.1-0.1l-0.1-0.2l0.1-0.1v0.1l0.1-0.1v0.1l0.1-0.1v0.1l0.1-0.1v0.2h-0.1v-0.1c-0.1,0-0.1,0-0.1,0.1
			c0,0,0,0.1,0.1,0.1v-0.1c0,0,0,0,0.1,0.1l-0.1,0.1l0.1-0.3l0.2-0.3c0.1-0.2,0.3-0.3,0.4-0.3v-0.1h0.1c0.1,0,0.2,0,0.3,0.1
			c0.1,0,0.1,0.1,0.1,0.2c0,0,0,0.1-0.1,0.1s-0.1,0.1-0.2,0.2v0.1c0,0,0,0.1,0.1,0.1c0,0,0,0.1-0.1,0.1s-0.1,0-0.1,0.1
			c0,0,0,0.1,0.1,0.1c0,0.1,0,0.1-0.1,0.2c-0.1,0-0.1,0.1-0.1,0.2v0.1v0.1h-0.1l0.1,0.2l-0.2,0.5c0,0,0,0.1-0.1,0.1s-0.1,0-0.1,0.1
			v0.1l-0.1,0.3l-0.1,0.3c0,0,0,0.1-0.1,0c0,0-0.1,0-0.1,0.1v0.1v0.1l-0.3,0.7c-0.1,0.3-0.3,0.7-0.5,1.4c-0.2,0.6-0.5,1.3-0.8,2
			s-0.8,1.3-1.3,1.8s-1.1,0.7-1.8,0.7h-0.3c-0.1,0.3-0.2,0.6-0.2,1c-0.1,0.3-0.1,0.7-0.2,1c3.1,0.3,6.3,0.6,9.5,1s6.1,0.8,8.8,1.3
			c2.7,0.5,4.9,0.9,6.7,1.3C209.65,215.937,210.65,216.237,211.05,216.437z M168.75,222.437c0.2,0.1,0.5,0.1,0.7,0.1s0.5,0,0.7,0
			c1.1,0,2.1-0.2,3-0.7s1.8-1.1,2.6-1.9c0.8-0.8,1.5-1.7,2-2.7c0.6-1,1-2.1,1.3-3.2c-0.7-0.1-1.4-0.1-2.2-0.1c-0.7,0-1.5,0-2.2-0.1
			l-0.3-0.1h-0.2h-0.3c0,0,0,0.1-0.1,0c-0.1,0-0.1,0-0.1,0h-0.4h-0.2h-1h-0.3h0.1c-0.4,0-0.7,0.1-1.1,0.1s-0.7,0-1.1,0h-0.1
			l-0.3,0.1l-0.1-0.1c0,0,0,0.1-0.1,0.1l-0.7,0.1l-0.6,0.1h-0.4l-0.3,0.1v-0.1l-0.3,0.1c-0.5,0-1.1,0.2-1.6,0.3l0.1-0.1l0.3-0.3
			h-0.1l0.1-0.1h-0.1l0.1-0.1c0.1-0.1,0.3-0.2,0.5-0.2s0.5-0.1,0.6-0.1h0.1c0.1-0.1,0.3-0.1,0.6-0.2c0.3,0,0.5,0,0.6,0h0.1
			c0.3-0.1,0.5-0.1,0.8-0.2c0.2,0,0.5-0.1,0.8-0.1l-0.1,0.1h0.1c0,0,0,0,0.1,0c0-0.1,0.2-0.1,0.5-0.2c0.4,0,0.6,0,0.7,0h0.5h0.2
			c0.1,0,0.2-0.1,0.3-0.1c-0.2,0-0.3,0-0.4-0.1h-1.1l-0.7-0.1l-0.5,0.1h-0.1c0,0-0.1,0-0.2,0l-0.2-0.1l-1.3,0.3c-0.1,0-0.2,0-0.2,0
			s-0.1,0-0.2,0s-0.1,0-0.2,0.1l-0.1,0.1l-0.5,0.1l-0.7,0.2h-0.1c0,0-0.1,0-0.2,0l-0.2,0.2l-0.4,0.1c-1,0.2-1.8,0.6-2.3,1
			c-0.5,0.5-0.7,0.9-0.7,1.5c0,0.5,0.2,1.1,0.6,1.8s0.9,1.3,1.5,1.8c0.6,0.6,1.4,1.1,2.3,1.5
			C166.85,222.037,167.75,222.337,168.75,222.437z M163.55,223.037l-0.4-0.3l-0.5-0.3l0.4,0.3l0.1,0.1L163.55,223.037z
			 M164.45,223.337l-0.3-0.2l-0.4-0.2v0.1l0.3,0.2l-0.1,0.1l0.4,0.1L164.45,223.337z M164.65,223.337c-0.1-0.1-0.2-0.1-0.3-0.2
			c-0.1,0-0.2-0.1-0.3-0.2h-0.1L164.65,223.337L164.65,223.337z M168.25,224.837L168.25,224.837c-0.1-0.1-0.3-0.1-0.4-0.2
			c-0.2,0-0.3-0.1-0.4-0.1h0.1l0.3,0.1L168.25,224.837z M167.55,213.737C167.55,213.737,167.45,213.737,167.55,213.737
			L167.55,213.737z M168.15,213.637h-0.1H168.15L168.15,213.637z M168.45,213.737l-0.1,0.1L168.45,213.737L168.45,213.737z
			 M168.95,224.837c-0.1,0-0.2,0-0.2,0c-0.1,0-0.1,0-0.2,0h0.1c0,0,0.1,0,0.2,0H168.95z M168.55,213.637c0.2,0,0.3,0,0.3-0.1
			L168.55,213.637z M169.65,213.737h0.3l-0.1-0.1h-0.1L169.65,213.737z M169.75,213.637L169.75,213.637L169.75,213.637
			L169.75,213.637z M169.75,213.537l0.1-0.1L169.75,213.537L169.75,213.537z M171.55,213.537L171.55,213.537c0,0.1,0.1,0.1,0.1,0
			h0.1H171.55z M172.35,213.437L172.35,213.437C172.35,213.537,172.35,213.437,172.35,213.437L172.35,213.437z"/>
	</g>
</g>
</svg>
